<?xml version="1.0" encoding="utf-8"?>
<!-- Generator: Adobe Illustrator 24.1.2, SVG Export Plug-In . SVG Version: 6.00 Build 0)  -->
<svg version="1.1" id="Layer_1" xmlns="http://www.w3.org/2000/svg" xmlns:xlink="http://www.w3.org/1999/xlink" x="0px" y="0px"
	 viewBox="0 0 192 72" style="enable-background:new 0 0 192 72;" xml:space="preserve">
<style type="text/css">
	.st0{fill-rule:evenodd;clip-rule:evenodd;fill:#FFFFFF;}
	.st1{fill-rule:evenodd;clip-rule:evenodd;fill:#D61B3C;}
</style>
<path class="st0" d="M0,1h51v36.2v0.2l0,0l-0.5,4.4C48.1,52.2,37.8,60,25.5,60c-12.3,0-22.6-7.8-25-18.2L0,37.4l0,0v-0.2V1z"/>
<path class="st1" d="M0,1h51v24.6h-5.9v0.5c0,3.3,0,6.6,0,10c0,0.6-0.1,1.3-0.2,1.9c-0.2,1.7-1.1,2.5-2.9,2.5
	c-1.5-0.1-2.5-0.9-2.6-2.5c-0.1-0.9-0.1-1.8-0.2-2.7c-0.1-1-0.1-2.1-0.3-3.1c-0.9-4-3.7-6.3-7.8-6.5c-3.4-0.1-6.9,0-10.3,0
	c-0.1,0-0.2,0-0.3,0.1v19.1h0.6c2.6,0,5.1,0,7.7,0c0.9-0.1,1.9-0.1,2.8-0.2c1.1-0.2,2.1-0.4,3.1-1c-1.5-1.5-2.1-3.4-2.3-5.6
	c-0.6,0.9-1.4,1.5-2.3,1.7c-1.2,0.2-2.4,0.1-3.6,0.2v-9.4c0.8,0,1.5-0.1,2.3,0c2.8,0.2,4.1,1.6,4.3,4.3c0.1,1.3,0,2.6,0.1,3.9
	c0.3,3,1.9,5.2,5,6c2.5,0.7,5,0.7,7.5,0.1c2.3-0.5,3.9-1.8,4.7-4l-0.1,1C48.1,52.2,37.8,60,25.5,60c-12.3,0-22.6-7.8-25-18.2L0,37.4
	l0,0v-0.2V17.8l15.8,4.1c1,0.3,1.9-0.3,2.1-1.2c0.3-0.9-0.3-1.8-1.2-2.1L0,14.2V12l15.8,4.1c1,0.3,1.9-0.3,2.1-1.2
	c0.3-0.9-0.3-1.9-1.2-2.1L0,8.4V6.2l15.8,4.1c1,0.3,1.9-0.3,2.1-1.2c0.3-0.9-0.3-1.9-1.2-2.1L0,2.6V1z M34.6,25.6h4.7v5.1
	C38.4,28.4,36.9,26.6,34.6,25.6z"/>
<path class="st0" d="M3.8,65.6H3.2v3.9H2.7v-1.4l0,0c-0.1,0.1-0.1,0.1-0.2,0.2c-0.1,0-0.1,0.1-0.2,0.1c-0.1,0.1-0.2,0.1-0.3,0.1
	c-0.1,0-0.2,0.1-0.3,0.1c-0.2,0-0.4-0.1-0.5-0.2C1,68.3,0.8,68.2,0.8,68c-0.2-0.1-0.2-0.3-0.3-0.4c-0.1-0.2-0.1-0.3-0.1-0.6
	c0.1,0,0.2-0.1,0.3-0.1c0.1-0.1,0.1-0.1,0.2-0.2C0.9,66.7,1,66.7,1,66.6c0-0.1,0-0.1,0-0.2v-0.2c0-0.1,0-0.1-0.1-0.2
	c0-0.1-0.1-0.2-0.1-0.2c-0.1-0.1-0.1-0.2-0.2-0.2H0v-0.4h3.8V65.6z M1.3,65.6c0.1,0.1,0.1,0.2,0.2,0.4c0,0.1,0.1,0.3,0.1,0.4
	c0,0.1-0.1,0.2-0.1,0.3c0,0.1-0.1,0.2-0.1,0.3c-0.1,0.1-0.1,0.2-0.2,0.2c-0.1,0.1-0.2,0.1-0.3,0.1c0.1,0.2,0.1,0.3,0.2,0.3
	c0.1,0.1,0.1,0.2,0.2,0.3c0.1,0.1,0.2,0.1,0.2,0.1c0.1,0,0.2,0,0.3,0c0.1,0,0.2,0,0.3,0c0.1-0.1,0.2-0.1,0.3-0.1
	c0.1-0.1,0.2-0.1,0.2-0.2c0.1-0.1,0.2-0.1,0.2-0.2v-1.9H1.3z M5.8,65.6H4.6v3.9H4.2v-3.9H3.8v-0.4h2V65.6z M4.6,65.2H4.1l-0.2-0.4
	c-0.1-0.2-0.2-0.4-0.3-0.6c-0.1-0.1-0.2-0.2-0.3-0.2c-0.1-0.1-0.2-0.2-0.2-0.2c-0.1,0-0.2,0-0.3,0H2.4v-0.5h0.5
	c0.1,0,0.2,0.1,0.3,0.1c0.1,0,0.2,0.1,0.3,0.1c0.1,0.1,0.2,0.1,0.2,0.2c0.1,0.1,0.2,0.2,0.3,0.3c0.1,0.1,0.2,0.3,0.3,0.4
	C4.3,64.7,4.4,64.9,4.6,65.2L4.6,65.2z M9.5,65.6H8.9v3.9H8.4v-3.9H7.1v2.2v0.1c0,0.1,0,0.1,0,0.1c0,0.1-0.1,0.1-0.1,0.1
	c-0.1,0-0.1,0.1-0.1,0.1c-0.1,0-0.1-0.1-0.2-0.1c-0.1-0.1-0.2-0.1-0.2-0.2l-0.2-0.2c-0.1-0.1-0.1-0.1-0.2-0.2
	c-0.1-0.1-0.1-0.1-0.1-0.2c-0.1-0.1-0.1-0.1-0.1-0.2c0-0.1,0-0.1,0.1-0.1c0-0.1,0.1-0.1,0.1-0.1c0.1,0,0.1,0,0.2,0h0.2h0.1v-1.4H5.8
	v-0.4h3.7V65.6z M10.6,67.1c-0.1,0-0.2-0.1-0.2-0.1c-0.1-0.1-0.1-0.1-0.1-0.2c0-0.1,0.1-0.2,0.1-0.2c0.1-0.1,0.1-0.1,0.2-0.1
	c0.1,0,0.2,0.1,0.2,0.1c0.1,0.1,0.1,0.1,0.1,0.2c0,0.1-0.1,0.2-0.1,0.2C10.8,67.1,10.7,67.1,10.6,67.1z M10.6,69.6
	c-0.1,0-0.2-0.1-0.2-0.1c-0.1-0.1-0.1-0.1-0.1-0.2c0-0.1,0.1-0.2,0.1-0.2c0.1-0.1,0.1-0.1,0.2-0.1c0.1,0,0.2,0.1,0.2,0.1
	c0.1,0.1,0.1,0.2,0.1,0.2c0,0.1-0.1,0.2-0.1,0.2C10.8,69.5,10.7,69.6,10.6,69.6z M18.5,65.6h-3v1.1l0,0c0.1-0.1,0.2-0.2,0.4-0.3
	c0.1-0.1,0.3-0.2,0.4-0.2c0.2,0,0.3,0.1,0.4,0.1c0.1,0.1,0.2,0.1,0.3,0.2c0.1,0.1,0.2,0.2,0.2,0.3c0.1,0.2,0.1,0.3,0.1,0.4
	c0,0.2-0.1,0.4-0.1,0.5c-0.1,0.2-0.2,0.3-0.2,0.4c-0.1,0.2-0.2,0.3-0.3,0.3c-0.1,0.1-0.3,0.2-0.4,0.3L16,68.4c0-0.1,0.1-0.1,0.1-0.1
	c0.1-0.1,0.1-0.1,0.2-0.1c0.1-0.1,0.2-0.1,0.2-0.2c0.1-0.1,0.1-0.1,0.2-0.2c0-0.1,0.1-0.1,0.1-0.2c0-0.1,0.1-0.2,0.1-0.2
	c0-0.1-0.1-0.2-0.1-0.2c-0.1-0.1-0.1-0.2-0.1-0.2c-0.1-0.1-0.1-0.1-0.2-0.1c-0.1-0.1-0.2-0.1-0.2-0.1c-0.1,0-0.2,0-0.3,0.1
	c-0.1,0.1-0.2,0.1-0.3,0.2c-0.1,0.1-0.2,0.2-0.2,0.3c-0.1,0.1-0.1,0.2-0.1,0.3v1.9H15v-1.1l0,0c-0.1,0-0.1,0.1-0.1,0.1
	c-0.1,0.1-0.1,0.1-0.2,0.1c-0.1,0.1-0.1,0.1-0.2,0.1c-0.1,0-0.2,0-0.3,0c-0.2,0-0.3,0-0.4-0.1c-0.2-0.1-0.3-0.2-0.4-0.3
	c-0.1-0.1-0.2-0.3-0.3-0.4c-0.1-0.2-0.1-0.3-0.1-0.5c0-0.2,0-0.3,0.1-0.5c0.1-0.1,0.2-0.2,0.3-0.3c0.1-0.1,0.2-0.2,0.3-0.2
	c0.2-0.1,0.3-0.1,0.4-0.1c0.1,0,0.2,0,0.3,0.1c0.1,0,0.2,0.1,0.2,0.1c0.1,0,0.2,0.1,0.2,0.1c0.1,0,0.1,0.1,0.2,0.1l0,0v-1.1h-2.3
	v-0.4h5.8V65.6z M14.2,66.7c-0.1,0-0.2,0.1-0.3,0.1c-0.1,0-0.2,0.1-0.2,0.1c-0.1,0.1-0.1,0.2-0.1,0.3c-0.1,0.1-0.1,0.2-0.1,0.3
	c0,0.1,0,0.2,0.1,0.3c0.1,0.1,0.1,0.2,0.1,0.2c0.1,0.1,0.2,0.1,0.2,0.2c0.1,0.1,0.2,0.1,0.3,0.1c0.1,0,0.2,0,0.3-0.1
	c0.1,0,0.2-0.1,0.2-0.2c0.1-0.1,0.2-0.2,0.2-0.3c0.1-0.1,0.1-0.2,0.1-0.4v-0.2c-0.1-0.1-0.1-0.1-0.2-0.2c-0.1-0.1-0.1-0.1-0.2-0.1
	c-0.1-0.1-0.1-0.1-0.2-0.1C14.4,66.8,14.3,66.7,14.2,66.7z M22.9,65.6h-1.1v3.9h-0.4v-1.6h-1.6v0.3c0,0.1,0,0.1,0,0.1
	c0,0.1,0,0.1-0.1,0.2c0,0,0,0.1-0.1,0.1c0,0-0.1,0-0.1,0c-0.1,0-0.1,0-0.2,0c-0.1-0.1-0.1-0.1-0.2-0.1c-0.1-0.1-0.2-0.2-0.2-0.2
	c-0.1-0.1-0.1-0.1-0.2-0.2c0-0.1-0.1-0.1-0.1-0.2c0-0.1-0.1-0.1-0.1-0.2c0,0,0-0.1,0.1-0.1c0-0.1,0-0.1,0.1-0.1
	c0.1-0.1,0.1-0.1,0.1-0.1H19h0.3v-1.8h-0.9v-0.4h4.4V65.6z M19.8,65.6v1.8h1.6v-1.8H19.8z M22.3,63.8c-0.1-0.1-0.2-0.1-0.2-0.2
	c-0.1-0.1-0.2-0.1-0.3-0.1c-0.2,0-0.3,0.1-0.3,0.1c-0.1,0.1-0.2,0.3-0.2,0.4c0,0.1,0,0.2,0,0.3c0.1,0.1,0.1,0.1,0.1,0.2
	c0.1,0.1,0.1,0.2,0.1,0.2c0.1,0.1,0.1,0.2,0.2,0.3h-0.5C21.1,65,21,64.8,21,64.7c-0.1-0.2-0.1-0.3-0.1-0.5c0-0.2,0.1-0.3,0.1-0.4
	c0.1-0.1,0.2-0.2,0.2-0.3c0.1-0.1,0.2-0.2,0.3-0.2c0.1-0.1,0.2-0.1,0.3-0.1c0.2,0,0.3,0,0.4,0.1c0.1,0.1,0.3,0.2,0.4,0.3L22.3,63.8z
	 M27.1,65.2v0.4h-0.6v3.9H26v-1.9h-1.6c-0.1,0.1-0.2,0.1-0.4,0.1l0,0c0.2,0.3,0.4,0.6,0.6,0.8c0.3,0.3,0.5,0.5,0.8,0.7l-0.3,0.3
	c-0.1-0.1-0.3-0.3-0.4-0.4c-0.1-0.2-0.3-0.3-0.4-0.4c-0.2-0.2-0.3-0.3-0.4-0.4c-0.1-0.2-0.2-0.3-0.3-0.4c-0.1-0.2-0.2-0.3-0.2-0.4
	c-0.1-0.2-0.2-0.3-0.2-0.4l0.4-0.2c0,0.1,0.1,0.2,0.1,0.2c0.1,0.1,0.1,0.2,0.1,0.2c0.1,0.1,0.1,0.1,0.2,0.1c0,0.1,0.1,0.1,0.1,0.1
	c0.1,0,0.2-0.1,0.3-0.2c0.1-0.1,0.1-0.2,0.1-0.4c0-0.1,0-0.2-0.1-0.3c0-0.1-0.1-0.2-0.1-0.3c-0.1-0.1-0.1-0.2-0.1-0.2
	c-0.1-0.1-0.1-0.2-0.1-0.2h-1.2v-0.4H27.1z M26,65.6h-1.5c0.1,0.2,0.1,0.3,0.2,0.5c0.1,0.2,0.1,0.4,0.1,0.6c0,0.1,0,0.2,0,0.2
	c-0.1,0.1-0.1,0.2-0.1,0.2l0,0H26V65.6z M25.5,69.6c0.1-0.1,0.3-0.1,0.4-0.2c0.1-0.1,0.3-0.1,0.4-0.1c0.1,0,0.2,0,0.3,0.1
	c0.1,0.1,0.2,0.1,0.3,0.2c0.1,0.1,0.1,0.1,0.2,0.2c0.1,0.1,0.1,0.2,0.1,0.3c0,0.2,0,0.3-0.1,0.4c-0.1,0.1-0.1,0.2-0.2,0.3
	c-0.1,0.1-0.2,0.2-0.4,0.2C26.4,70.9,26.2,71,26,71c-0.2,0-0.4-0.1-0.5-0.1c-0.2-0.1-0.3-0.1-0.5-0.2c-0.1-0.1-0.2-0.2-0.3-0.3
	c-0.1-0.1-0.2-0.2-0.3-0.3l0.3-0.3c0.1,0.1,0.2,0.2,0.3,0.3c0.1,0.1,0.2,0.2,0.3,0.3c0.1,0.1,0.2,0.1,0.3,0.2c0.1,0,0.3,0.1,0.4,0.1
	c0.1,0,0.2-0.1,0.3-0.1c0.1-0.1,0.2-0.1,0.2-0.1c0.1-0.1,0.1-0.1,0.1-0.2c0.1,0,0.1-0.1,0.1-0.2c0-0.1,0-0.2-0.1-0.2
	c-0.1-0.1-0.2-0.1-0.3-0.1c-0.1,0-0.2,0-0.3,0.1c-0.1,0-0.3,0.1-0.3,0.1L25.5,69.6z M33.6,65.6h-2.4v1.1l0,0
	c0.1-0.1,0.2-0.2,0.4-0.3c0.2-0.1,0.3-0.2,0.5-0.2c0.1,0,0.3,0.1,0.4,0.1c0.1,0.1,0.2,0.1,0.3,0.2c0.1,0.1,0.2,0.2,0.2,0.3
	c0.1,0.2,0.1,0.3,0.1,0.4c0,0.2,0,0.4-0.1,0.5c-0.1,0.2-0.2,0.3-0.3,0.4c-0.1,0.2-0.2,0.3-0.3,0.3c-0.1,0.1-0.2,0.2-0.3,0.3
	l-0.3-0.4c0.1-0.1,0.1-0.1,0.2-0.1c0.1-0.1,0.1-0.1,0.2-0.1c0.1-0.1,0.1-0.1,0.2-0.2c0.1-0.1,0.1-0.1,0.2-0.2
	c0.1-0.1,0.1-0.1,0.1-0.2c0-0.1,0.1-0.2,0.1-0.2c0-0.1-0.1-0.2-0.1-0.2c0-0.1-0.1-0.2-0.1-0.2c-0.1-0.1-0.1-0.1-0.2-0.1
	c-0.1-0.1-0.1-0.1-0.2-0.1c-0.1,0-0.2,0-0.3,0.1c-0.1,0.1-0.2,0.1-0.2,0.2c-0.1,0.1-0.2,0.2-0.2,0.3c-0.1,0.1-0.1,0.2-0.1,0.3v1.9
	h-0.5v-1.1l0,0c0,0-0.1,0.1-0.1,0.1c0,0.1-0.1,0.1-0.2,0.1c-0.1,0.1-0.1,0.1-0.2,0.1c-0.1,0-0.2,0-0.3,0c-0.2,0-0.3,0-0.5-0.1
	c-0.2-0.1-0.3-0.2-0.3-0.3c-0.2-0.1-0.2-0.3-0.3-0.4c-0.1-0.2-0.1-0.3-0.1-0.5c0-0.2,0.1-0.3,0.1-0.5c0.1-0.1,0.1-0.2,0.2-0.3
	c0.1-0.1,0.2-0.2,0.3-0.2c0.1-0.1,0.3-0.1,0.4-0.1c0.1,0,0.2,0,0.2,0.1c0.1,0,0.2,0.1,0.3,0.1c0.1,0,0.2,0.1,0.2,0.1
	c0.1,0,0.1,0.1,0.1,0.1l0,0v-1.1h-2.3v-0.4h5.2V65.6z M30,66.7c-0.1,0-0.2,0.1-0.3,0.1c-0.1,0-0.1,0.1-0.2,0.1
	c0,0.1-0.1,0.2-0.1,0.3c0,0.1,0,0.2,0,0.3c0,0.1,0,0.2,0,0.3c0.1,0.1,0.1,0.2,0.2,0.2c0.1,0.1,0.1,0.1,0.2,0.2
	c0.1,0.1,0.2,0.1,0.3,0.1c0.1,0,0.2,0,0.3-0.1c0.1,0,0.2-0.1,0.3-0.2c0.1-0.1,0.1-0.2,0.2-0.3c0.1-0.1,0.1-0.2,0.1-0.4v-0.2
	c-0.1-0.1-0.1-0.1-0.2-0.2c-0.1-0.1-0.2-0.1-0.2-0.1c-0.1-0.1-0.2-0.1-0.2-0.1C30.1,66.8,30.1,66.7,30,66.7z M35.7,65.6h-1.1v3.9
	h-0.5v-3.9h-0.4v-0.4h2V65.6z M34.5,65.2h-0.3l-0.1-0.1c-0.2-0.1-0.3-0.2-0.4-0.3c-0.2-0.1-0.2-0.2-0.3-0.2
	c-0.1-0.1-0.2-0.1-0.2-0.1c-0.1-0.1-0.2-0.1-0.2-0.1c-0.1,0-0.1,0-0.2,0h-0.2h-0.5v-0.4h0.5c0.1,0,0.2,0,0.2,0.1
	c0.1,0,0.2,0,0.2,0.1c0.1,0,0.2,0.1,0.2,0.1c0.1,0,0.1,0.1,0.2,0.1c0.1,0.1,0.2,0.2,0.3,0.2c0.1,0.1,0.2,0.2,0.3,0.3l0,0
	c-0.1-0.2-0.2-0.3-0.3-0.5c-0.1-0.1-0.2-0.2-0.3-0.3c-0.1-0.1-0.1-0.2-0.2-0.2c-0.1-0.1-0.1-0.1-0.2-0.2c-0.1,0-0.1-0.1-0.2-0.1
	c-0.1,0-0.2,0-0.2,0h-0.5V63h0.5c0.1,0,0.2,0,0.3,0.1c0.1,0,0.2,0.1,0.3,0.1c0.1,0.1,0.1,0.1,0.2,0.2c0.1,0.1,0.2,0.2,0.3,0.4
	c0.1,0.1,0.2,0.3,0.3,0.5c0.1,0.2,0.3,0.5,0.4,0.8L34.5,65.2z M37.5,67.2c-0.1,0-0.1,0-0.1,0h-0.1c-0.2,0-0.3,0-0.4-0.1
	c-0.1-0.1-0.2-0.2-0.3-0.2c-0.1-0.1-0.1-0.2-0.2-0.3c-0.1-0.1-0.1-0.3-0.1-0.4c0-0.1,0-0.2,0-0.3c0.1-0.1,0.1-0.2,0.2-0.3l0,0h-0.8
	v-0.4h5.1v0.4h-1.1v3.9h-0.5v-3.9h-1l0,0c0.1,0.1,0.1,0.1,0.1,0.2c0.1,0.1,0.1,0.2,0.1,0.2c0.1,0.1,0.1,0.2,0.1,0.3
	c0,0.1,0,0.2,0,0.3c0,0.1,0,0.3-0.1,0.4c-0.1,0.1-0.1,0.3-0.2,0.4c-0.1,0.1-0.2,0.2-0.3,0.3c-0.1,0.1-0.2,0.2-0.4,0.3l0,0
	c0.1,0.1,0.2,0.2,0.3,0.3c0.1,0.2,0.2,0.2,0.3,0.3c0.1,0.2,0.2,0.3,0.3,0.4c0.1,0.1,0.2,0.2,0.3,0.3l-0.3,0.3
	c-0.1-0.1-0.2-0.2-0.2-0.3c-0.1-0.1-0.2-0.2-0.3-0.3c-0.1-0.1-0.2-0.2-0.3-0.3c-0.1-0.2-0.3-0.3-0.4-0.3c-0.1,0-0.2,0.1-0.2,0.1
	c-0.1,0-0.2,0-0.2,0c-0.1,0-0.2,0-0.3,0c-0.1-0.1-0.2-0.1-0.2-0.1c-0.1-0.1-0.1-0.1-0.1-0.1c-0.1-0.1-0.1-0.2-0.1-0.2
	c0-0.1,0-0.2,0.1-0.3c0.1-0.1,0.2-0.1,0.3-0.1c0.1,0,0.2,0,0.3,0.1c0.1,0.1,0.2,0.1,0.3,0.2c0.1,0,0.1,0,0.2-0.1
	c0.1-0.1,0.2-0.1,0.2-0.1c0.1-0.1,0.2-0.1,0.2-0.2c0.1-0.1,0.1-0.2,0.2-0.2c0.1-0.1,0.1-0.2,0.1-0.3c0.1-0.1,0.1-0.2,0.1-0.3
	c0-0.1,0-0.2-0.1-0.3c0-0.1-0.1-0.2-0.2-0.3c-0.1-0.1-0.1-0.1-0.2-0.2c-0.1-0.1-0.2-0.1-0.3-0.1c-0.1,0-0.2,0-0.3,0.1
	c-0.1,0.1-0.1,0.1-0.2,0.1c-0.1,0.1-0.1,0.1-0.1,0.2c-0.1,0.1-0.1,0.2-0.1,0.2c0,0.1,0,0.1,0.1,0.2c0,0.1,0.1,0.1,0.1,0.2
	c0.1,0.1,0.1,0.1,0.2,0.1c0.1,0.1,0.1,0.1,0.3,0.1c0,0,0.1-0.1,0.1-0.1V67.2z M45.6,65.6h-1.2v3.9h-0.5v-2.7
	c-0.1-0.1-0.2-0.1-0.3-0.1c-0.1,0-0.2,0-0.2,0.1c-0.1,0.1-0.1,0.1-0.2,0.1c-0.1,0.1-0.1,0.1-0.1,0.2c0,0.1,0,0.2,0,0.2v0.1v0.1h-0.4
	c0-0.1-0.1-0.2-0.1-0.3c0-0.1-0.1-0.2-0.1-0.3c0-0.1-0.1-0.1-0.1-0.2c-0.1-0.1-0.2-0.1-0.3-0.1c-0.1,0-0.1,0.1-0.2,0.1
	c-0.1,0-0.1,0.1-0.2,0.1c0,0.1-0.1,0.2-0.1,0.3c-0.1,0.1-0.1,0.2-0.1,0.3c0,0.2,0.1,0.4,0.1,0.6s0.2,0.3,0.3,0.5
	c0.1,0.1,0.3,0.3,0.4,0.3c0.2,0.1,0.3,0.2,0.5,0.3l-0.2,0.4c-0.1,0-0.2-0.1-0.3-0.1c-0.1-0.1-0.2-0.2-0.3-0.3
	c-0.1-0.1-0.2-0.2-0.4-0.3c-0.1-0.1-0.2-0.3-0.3-0.4c-0.1-0.1-0.2-0.3-0.2-0.5c-0.1-0.2-0.1-0.3-0.1-0.6c0-0.2,0.1-0.3,0.1-0.4
	c0.1-0.2,0.2-0.3,0.2-0.4c0.1-0.1,0.2-0.2,0.3-0.2c0.1-0.1,0.2-0.1,0.4-0.1c0.1,0,0.2,0,0.3,0.1c0.1,0,0.2,0.1,0.2,0.1
	c0.1,0.1,0.1,0.1,0.2,0.2c0,0.1,0.1,0.1,0.1,0.1h0.1c0-0.1,0.1-0.1,0.1-0.2c0.1-0.1,0.1-0.1,0.2-0.1c0.1-0.1,0.2-0.1,0.2-0.1
	c0.1,0,0.1-0.1,0.2-0.1c0.1,0,0.2,0.1,0.2,0.1c0.1,0,0.1,0,0.1,0.1v-0.7h-3.1v-0.4h4.8V65.6z M49.5,65.6h-0.6v3.9h-0.5v-1.6h-1.6
	v0.3v0.1c0,0.1,0,0.1,0,0.2c-0.1,0-0.1,0.1-0.1,0.1c-0.1,0-0.1,0-0.2,0c-0.1,0-0.1,0-0.2,0c-0.1-0.1-0.1-0.1-0.2-0.1
	c-0.1-0.1-0.1-0.2-0.2-0.2C46.1,68.2,46,68.1,46,68c-0.1-0.1-0.1-0.1-0.1-0.2c-0.1-0.1-0.1-0.1-0.1-0.2v-0.1c0-0.1,0.1-0.1,0.1-0.1
	c0.1-0.1,0.1-0.1,0.1-0.1h0.1h0.3v-1.8h-0.9v-0.4h3.9V65.6z M46.9,65.6v1.8h1.6v-1.8H46.9z M49.7,70.9l-1.1-1.1l-0.2-0.3h0.5
	l1.1,1.1L49.7,70.9z"/>
<path class="st0" d="M66,31.6V8.3h8.3c8.3,0,12.5,3.7,12.5,11.3c0,3.6-1.1,6.5-3.4,8.7c-2.3,2.1-5.3,3.2-9.1,3.2H66z M71.2,12.6
	v14.8h2.7c2.3,0,4.1-0.7,5.4-2c1.3-1.4,2-3.2,2-5.6c0-2.2-0.6-4-2-5.3c-1.3-1.2-3.1-1.9-5.4-1.9H71.2z M104.2,31.6h-4.9v-2.4h-0.1
	c-1.1,1.9-2.8,2.8-5,2.8c-1.6,0-2.9-0.5-3.8-1.4c-1-0.9-1.4-2.2-1.4-3.7c0-3.3,2-5.1,5.8-5.6l4.6-0.6c0-1.8-1-2.7-3-2.7
	c-2,0-3.9,0.6-5.7,1.7v-3.9c0.7-0.3,1.7-0.7,3-0.9c1.2-0.3,2.4-0.5,3.4-0.5c4.8,0,7.2,2.4,7.2,7.1V31.6z M99.3,24.8v-1.1l-3,0.4
	c-1.7,0.2-2.5,0.9-2.5,2.3c0,0.6,0.2,1.1,0.6,1.4c0.4,0.4,0.9,0.6,1.6,0.6c1,0,1.8-0.4,2.3-1C99,26.7,99.3,25.9,99.3,24.8z
	 M119.2,19.6c-0.6-0.3-1.4-0.5-2.2-0.5c-1.1,0-2,0.4-2.6,1.2c-0.6,0.8-1,1.9-1,3.3v8h-5.1V15h5.1v3.1h0.1c0.8-2.3,2.3-3.4,4.4-3.4
	c0.6,0,1,0.1,1.3,0.2V19.6z M120.7,31.2V27c0.9,0.5,1.7,0.9,2.5,1.1c0.9,0.3,1.6,0.4,2.4,0.4c0.8,0,1.6-0.1,2.1-0.4
	c0.5-0.2,0.8-0.6,0.8-1.1c0-0.4-0.1-0.6-0.3-0.8c-0.3-0.2-0.5-0.4-1-0.6c-0.4-0.2-0.8-0.3-1.2-0.4c-0.5-0.2-0.8-0.3-1.3-0.4
	c-0.6-0.3-1.2-0.6-1.7-0.8c-0.5-0.3-0.9-0.6-1.3-0.9c-0.3-0.4-0.6-0.8-0.7-1.4c-0.2-0.5-0.3-1.1-0.3-1.7c0-0.9,0.2-1.7,0.6-2.4
	c0.4-0.7,1-1.2,1.6-1.7c0.7-0.4,1.5-0.7,2.4-0.9c0.8-0.3,1.8-0.4,2.8-0.4c0.7,0,1.4,0.1,2.2,0.2c0.8,0.1,1.5,0.3,2.2,0.5v4
	c-0.6-0.4-1.3-0.7-2.1-0.9c-0.7-0.1-1.5-0.2-2.2-0.2c-0.4,0-0.7,0-1,0.1c-0.3,0.1-0.5,0.1-0.7,0.3c-0.3,0.1-0.4,0.3-0.6,0.4
	c-0.1,0.2-0.2,0.4-0.2,0.6c0,0.3,0.1,0.5,0.3,0.8c0.2,0.2,0.5,0.4,0.8,0.5c0.3,0.2,0.7,0.3,1,0.4c0.4,0.2,0.8,0.3,1.2,0.4
	c0.7,0.2,1.3,0.5,1.9,0.7c0.6,0.3,1.1,0.6,1.5,1c0.4,0.4,0.7,0.8,0.9,1.4c0.2,0.5,0.3,1.1,0.3,1.8c0,0.9-0.2,1.8-0.6,2.5
	c-0.4,0.6-1.1,1.2-1.7,1.7c-0.7,0.4-1.6,0.7-2.5,0.9c-1,0.2-1.9,0.3-2.9,0.3C124,32,122.3,31.7,120.7,31.2z M152.7,31.6h-5.1v-9.5
	c0-2.4-1-3.6-2.7-3.6c-0.9,0-1.6,0.3-2.2,1c-0.6,0.7-0.9,1.6-0.9,2.6v9.5h-5.1V7h5.1v10.5h0.1c1.3-1.9,3-2.9,5.2-2.9
	c3.8,0,5.7,2.3,5.7,6.8V31.6z M170.7,31.6h-4.9v-2.4h-0.1c-1.1,1.9-2.8,2.8-5,2.8c-1.6,0-2.9-0.5-3.8-1.4c-0.9-0.9-1.4-2.2-1.4-3.7
	c0-3.3,2-5.1,5.8-5.6l4.5-0.6c0-1.8-1-2.7-3-2.7c-2,0-3.9,0.6-5.7,1.7v-3.9c0.7-0.3,1.7-0.7,3-0.9c1.2-0.3,2.4-0.5,3.4-0.5
	c4.8,0,7.2,2.4,7.2,7.1V31.6z M165.8,24.8v-1.1l-3,0.4c-1.7,0.2-2.5,0.9-2.5,2.3c0,0.6,0.2,1.1,0.6,1.4c0.4,0.4,1,0.6,1.7,0.6
	c0.9,0,1.7-0.4,2.3-1C165.6,26.7,165.8,25.9,165.8,24.8z M191,31.6h-5.2v-9.2c0-2.6-0.9-3.8-2.8-3.8c-0.9,0-1.6,0.3-2.2,1
	s-0.8,1.6-0.8,2.6v9.5h-5.2V15h5.2v2.6h0.1c1.3-2,3-3,5.4-3c3.7,0,5.6,2.4,5.6,6.9V31.6z"/>
<path class="st0" d="M76.9,47.5c0,4.3-1.9,6.5-5.6,6.5c-3.6,0-5.3-2.1-5.3-6.3v-9.5h1.4v9.4c0,1.7,0.3,3,1,3.8
	c0.6,0.9,1.7,1.2,3.1,1.2c2.7,0,4-1.6,4-4.9v-9.5h1.4V47.5z M92.7,53.7l-8.4-12.4c-0.1-0.2-0.2-0.3-0.3-0.5
	c-0.1-0.2-0.2-0.3-0.3-0.5h-0.1c0.1,0.1,0.1,0.3,0.1,0.5s0,0.5,0,0.9v12h-1.4V38.2h1.5l8.3,12.3c0.2,0.2,0.3,0.4,0.4,0.5
	c0.1,0.2,0.2,0.3,0.3,0.5h0.1c0-0.2-0.1-0.5-0.1-0.8c0-0.3,0-0.6,0-1V38.2h1.4v15.5H92.7z M101.2,53.7h-1.4V38.2h1.4V53.7z
	 M112,53.7h-1.4l-5.5-15.5h1.6l4.3,12.4c0.1,0.2,0.2,0.5,0.2,0.7c0.1,0.2,0.1,0.5,0.1,0.8h0.1c0.1-0.2,0.1-0.4,0.2-0.7
	c0.1-0.2,0.2-0.5,0.3-0.8l4.5-12.4h1.5L112,53.7z M121.7,53.7V38.2h7.4v1.4h-6v5.7h5.5v1.3h-5.5v5.9h6.3v1.3H121.7z M142.5,53.7
	l-2.3-4.4c-0.2-0.5-0.4-0.8-0.6-1.1c-0.2-0.3-0.5-0.5-0.7-0.7c-0.2-0.2-0.5-0.3-0.7-0.4c-0.3-0.1-0.6-0.1-0.9-0.1h-1.6v6.8h-1.4
	V38.2h4.4c0.5,0,1.1,0.1,1.6,0.3c0.5,0.2,1,0.4,1.4,0.8c0.4,0.4,0.7,0.8,1,1.3c0.2,0.5,0.4,1.1,0.4,1.8c0,0.5-0.1,1-0.3,1.5
	c-0.2,0.4-0.4,0.9-0.7,1.2c-0.3,0.4-0.6,0.7-1.1,0.9c-0.4,0.3-0.9,0.4-1.4,0.5v0.1c0.2,0.1,0.4,0.2,0.6,0.3c0.2,0.2,0.3,0.3,0.5,0.5
	c0.2,0.2,0.3,0.4,0.5,0.6c0.2,0.3,0.3,0.5,0.5,0.9l2.5,4.8H142.5z M135.7,39.6v6.1h2.5c0.5,0,1-0.1,1.4-0.2c0.4-0.2,0.7-0.4,1.1-0.6
	c0.3-0.3,0.5-0.6,0.7-1c0.2-0.4,0.3-0.9,0.3-1.4c0-0.9-0.3-1.6-0.8-2.1c-0.6-0.5-1.4-0.8-2.5-0.8H135.7z M147.8,51.5
	c0.3,0.2,0.5,0.3,0.8,0.5c0.3,0.2,0.6,0.3,1,0.4c0.3,0.1,0.6,0.2,1,0.2c0.3,0.1,0.6,0.1,1,0.1c1.1,0,2-0.2,2.5-0.6
	c0.6-0.4,0.8-1.1,0.8-1.9c0-0.4-0.1-0.8-0.2-1.1c-0.2-0.3-0.4-0.6-0.6-0.9c-0.3-0.3-0.6-0.5-1.1-0.8c-0.4-0.2-1-0.5-1.5-0.9
	c-0.6-0.4-1.2-0.7-1.6-1c-0.5-0.3-0.8-0.6-1.2-1c-0.3-0.3-0.5-0.7-0.6-1.1c-0.2-0.4-0.2-0.9-0.2-1.4c0-0.6,0.2-1.2,0.4-1.7
	c0.2-0.5,0.6-0.9,1-1.2c0.5-0.4,1-0.6,1.6-0.8c0.6-0.2,1.2-0.3,1.9-0.3c1.2,0,2.2,0.2,3,0.5v1.6c-0.9-0.5-1.9-0.8-3.1-0.8
	c-0.5,0-0.9,0.1-1.3,0.2c-0.4,0.1-0.7,0.3-1.1,0.5c-0.3,0.2-0.5,0.5-0.7,0.8c-0.2,0.3-0.3,0.7-0.3,1.1c0,0.4,0.1,0.8,0.2,1.1
	c0.1,0.3,0.3,0.5,0.6,0.8c0.3,0.3,0.6,0.5,1,0.8c0.4,0.3,1,0.5,1.5,0.9c0.6,0.3,1.2,0.6,1.6,1c0.5,0.3,0.9,0.7,1.2,1
	c0.3,0.4,0.5,0.8,0.7,1.1c0.2,0.4,0.2,0.9,0.2,1.4c0,0.6-0.1,1.2-0.4,1.8c-0.2,0.5-0.6,0.9-1,1.3c-0.5,0.3-1,0.6-1.6,0.8
	c-0.6,0.2-1.3,0.3-2,0.3c-0.3,0-0.5-0.1-0.8-0.1c-0.4,0-0.7-0.1-1-0.2c-0.4-0.1-0.7-0.2-1-0.3c-0.3-0.1-0.5-0.2-0.7-0.3V51.5z
	 M162.7,53.7h-1.4V38.2h1.4V53.7z M172.6,39.6v14.2h-1.4V39.6h-4.4v-1.4H177v1.4H172.6z M186,47.9v5.8h-1.4v-5.8l-4.8-9.7h1.6
	l3.4,7.2c0.1,0.1,0.1,0.2,0.2,0.4c0.1,0.2,0.2,0.4,0.2,0.6h0.1c0.1-0.1,0.1-0.3,0.2-0.4c0.1-0.2,0.2-0.4,0.3-0.6l3.6-7.2h1.5
	L186,47.9z"/>
</svg>
