<svg xmlns="http://www.w3.org/2000/svg" viewBox="0 0 2015.98 1692.7"><defs><style>.cls-1{fill:#c1272d;}.cls-2{fill:#39b54a;}.cls-3{fill:none;stroke:#000;stroke-miterlimit:10;stroke-width:5px;}</style></defs><g id="Layer_2" data-name="Layer 2"><g id="Layer_1-2" data-name="Layer 1"><path d="M1520.44,560.85l-94.57-91v-3.59l47.28-46.68,137.67,136.47v9L1473.15,701.51l-47.28-46.69v-3.59Z"/><path d="M648.69,673.56v3.59l-47.28,46.68L463.74,587.36v-9L601.41,441.91l47.28,46.69v3.59l-94.57,91Z"/><path class="cls-1" d="M518.57,192.07a0,0,0,0,0,0,0c1.69-.2,3.39-.39,5.08-.57h.1c1.72-.19,3.43-.36,5.15-.52,1.48-.14,3-.27,4.45-.39l1.4-.11,4.56-.33Q528.87,190.83,518.57,192.07ZM594.85,2.31Q599.92,2.6,605,3,599.92,2.58,594.85,2.31Z"/><path class="cls-2" d="M968.83,948.79c-102,106.62-245.65,173-404.84,173a557.45,557.45,0,0,1-282.07-76.11V813.57A374.9,374.9,0,0,0,564,941c131.54,0,247.3-67.58,314.45-169.92a661.22,661.22,0,0,0,90.39,177.67Z"/><path class="cls-1" d="M1091,365.19l-.31-.79-.2-.53C1090.64,364.31,1090.8,364.75,1091,365.19Z"/><path class="cls-1" d="M1169.76,309.16c-.08-.2-.17-.4-.26-.6q-1-2.38-2-4.77,1,2.38,2,4.77Z"/><path class="cls-2" d="M1912,322.7a89.51,89.51,0,0,1-55.75,18.85h-6a92.06,92.06,0,0,1-68.58-30.34,375.29,375.29,0,0,0-90.43-73.67,371.3,371.3,0,0,0-145-48.16q-4.38-.49-8.79-.89-16.86-1.55-34.14-1.55h0a378,378,0,0,0-42.93,2.44A374.46,374.46,0,0,0,1188.52,359q-3-8.92-6.17-17.77c-.28-.79-.56-1.57-.86-2.35s-.58-1.58-.87-2.36a.08.08,0,0,0,0-.05c-.53-1.45-1.07-2.9-1.63-4.35-.18-.48-.36-.95-.55-1.43-.45-1.21-.92-2.42-1.39-3.62q-.91-2.37-1.85-4.72c-.42-1.06-.85-2.12-1.28-3.18q-.89-2.2-1.8-4.41-1.15-2.82-2.34-5.62l-.25-.6q-1-2.38-2-4.77l-.28-.64c-.13-.29-.25-.58-.38-.86q-1.68-3.87-3.42-7.71c-.34-.77-.69-1.54-1-2.3l-1-2.29q-1.05-2.3-2.13-4.57-1.26-2.7-2.57-5.4-3-6.25-6.15-12.45-10.73-21.18-23-41.46-11.28-18.77-23.82-36.73-4.43-6.36-9-12.61,15.74-16.77,32.84-32.2a558.36,558.36,0,0,1,335-143.1Q1482.71,0,1503.31,0h0q20.6,0,40.82,1.47Q1564.93,3,1585.25,6A561.32,561.32,0,0,1,1923.5,189.38l1.19,1.35C1961.86,233,1950.49,292.66,1912,322.7Z"/><path class="cls-1" d="M1169.76,309.16c-.08-.2-.17-.4-.26-.6q-1-2.38-2-4.77,1,2.38,2,4.77Z"/><line class="cls-3" x1="1879.15" y1="565.21" x2="1879.15" y2="560.82"/><line class="cls-3" x1="1691.24" y1="941.04" x2="1691.24" y2="890.76"/><line class="cls-3" x1="1315.41" y1="941.04" x2="1315.41" y2="890.77"/><line class="cls-3" x1="751.66" y1="216.21" x2="751.66" y2="189.38"/><line class="cls-3" x1="751.66" y1="239.66" x2="751.66" y2="239.52"/><line class="cls-3" x1="375.83" y1="239.67" x2="375.83" y2="189.38"/><path class="cls-1" d="M1127.49,560.82v4.39c0-1.46,0-2.93,0-4.39Z"/><path class="cls-1" d="M1169.76,309.16c-.08-.2-.17-.4-.26-.6q-1-2.38-2-4.77,1,2.38,2,4.77Z"/><path class="cls-1" d="M539.32,190.17l-4.56.33-1.4.11c-1.48.12-3,.25-4.45.39-1.72.16-3.43.33-5.15.52h-.1c-1.69.18-3.39.37-5.08.57a0,0,0,0,1,0,0Q528.86,190.83,539.32,190.17Z"/><path class="cls-1" d="M939.82,565.21q0,5.22-.14,10.41-.1-5.19-.1-10.4h0a378.52,378.52,0,0,0-4.07-55.47A373,373,0,0,0,889.29,377.3,377.38,377.38,0,0,0,751.66,239.66a373.56,373.56,0,0,0-171.42-49.92,373.47,373.47,0,0,1,171.42,49.78c97.26,56.16,167,154.63,184.09,270.26A378.08,378.08,0,0,1,939.82,565.21Z"/><path class="cls-1" d="M1091,365.19l-.31-.79-.2-.53C1090.64,364.31,1090.8,364.75,1091,365.19Z"/><path class="cls-1" d="M1127.49,560.82v4.39c0-1.46,0-2.93,0-4.39Z"/><path d="M2005.5,821.66c-93.35,182.43-283.18,307.3-502.18,307.3A563.57,563.57,0,0,1,939.68,575.62q.14-5.19.14-10.41a378.08,378.08,0,0,0-4.07-55.43c-17.08-115.63-86.83-214.1-184.09-270.26a373.47,373.47,0,0,0-171.42-49.78c-1.51-.07-3-.13-4.56-.17s-2.84-.09-4.26-.11l-3.15-.05c-1.35,0-2.69,0-4,0h-.48q-2.31,0-4.62,0c-1.61,0-3.23.05-4.84.09h-.14c-1.5,0-3,.08-4.5.14-1.31.05-2.62.1-3.92.17q-1.71.08-3.42.18c-1,0-2,.11-3,.18q-10.46.66-20.75,1.9A375.72,375.72,0,0,0,187.92,565.21V1598.74a94,94,0,1,1-187.92,0V565.21C0,286,203,54.2,469.43,9.33a.28.28,0,0,0,0,.09,562.56,562.56,0,0,1,83.7-7.85q5.29-.11,10.6-.1h0q4.47,0,8.93.07,3.35,0,6.67.14l3.89.12q5.82.19,11.61.51Q599.92,2.6,605,3l3.36.25q3.36.27,6.7.57t6.68.64l3.81.4,3.8.43,3.72.44c1.93.24,3.87.49,5.8.75l2.69.36q6.47.9,12.89,1.94l5,.83.28,0c2.85.49,5.7,1,8.54,1.54l.32.06c2.29.43,4.57.87,6.85,1.34.87.17,1.74.34,2.61.53,1.56.32,3.12.65,4.67,1s3.09.68,4.64,1l2.89.66,2.88.67,2.5.59c1.68.42,3.37.82,5,1.25,1.36.32,2.72.68,4.07,1l2.23.58c2.72.72,5.44,1.46,8.14,2.21l3.75,1.06q3.87,1.11,7.71,2.28,3.6,1.08,7.17,2.22l3.58,1.15L740.83,30a565.09,565.09,0,0,1,327,282.63c.83,1.64,1.64,3.29,2.45,4.94,0,.11.11.22.16.32q3.69,7.56,7.17,15.24l.14.3c.75,1.68,1.51,3.36,2.24,5.05.38.83.74,1.67,1.1,2.51s.66,1.5,1,2.25c.45,1,.89,2.08,1.33,3.13s.79,1.88,1.18,2.82c.19.44.37.89.55,1.34.52,1.24,1,2.48,1.53,3.73l.63,1.58c.54,1.33,1.07,2.67,1.59,4l.36.91h0c.41,1,.82,2.1,1.21,3.15l.2.53.31.79c.18.47.35.93.53,1.39.44,1.19.89,2.37,1.32,3.56l1.06,2.89c.52,1.42,1,2.84,1.53,4.27a560.49,560.49,0,0,1,29.28,131.45q2.57,25.71,2.78,52.07c0,1.46,0,2.93,0,4.39h0A375.64,375.64,0,0,0,1503.31,941h0a375.65,375.65,0,0,0,325.54-187.91q5-8.55,9.46-17.39a94.29,94.29,0,0,1,127.51-40.29C2009,718.29,2030.17,773.45,2005.5,821.66Z"/><path class="cls-1" d="M939.82,565.21q0,5.22-.14,10.41-.1-5.19-.1-10.4h0a378.52,378.52,0,0,0-4.07-55.47A373,373,0,0,0,889.29,377.3,377.38,377.38,0,0,0,751.66,239.66a373.56,373.56,0,0,0-171.42-49.92,373.47,373.47,0,0,1,171.42,49.78c97.26,56.16,167,154.63,184.09,270.26A378.08,378.08,0,0,1,939.82,565.21Z"/><path class="cls-1" d="M1091,365.19l-.31-.79-.2-.53C1090.64,364.31,1090.8,364.75,1091,365.19Z"/></g></g></svg>