<?xml version="1.0" encoding="UTF-8"?>
<!DOCTYPE svg PUBLIC "-//W3C//DTD SVG 1.1//EN" "http://www.w3.org/Graphics/SVG/1.1/DTD/svg11.dtd">
<!-- Creator: CorelDRAW -->
<svg xmlns="http://www.w3.org/2000/svg" xml:space="preserve" width="224px" height="52px" style="shape-rendering:geometricPrecision; text-rendering:geometricPrecision; image-rendering:optimizeQuality; fill-rule:evenodd; clip-rule:evenodd"
viewBox="0 0 224 51.9996"
 xmlns:xlink="http://www.w3.org/1999/xlink">
 <defs>
  <style type="text/css">
   <![CDATA[
    .fil0 {fill:#84C225}
    .fil1 {fill:#183884}
    .fil3 {fill:#84C225;fill-rule:nonzero}
    .fil2 {fill:#183884;fill-rule:nonzero}
   ]]>
  </style>
 </defs>
 <g id="Layer_x0020_1">
  <metadata id="CorelCorpID_0Corel-Layer"/>
  <g id="_208163408">
   <path id="_208164080" class="fil0" d="M34.2723 4.07011c3.77483,-0.708666 7.60635,-1.09489 11.4367,-1.36655l0.434649 -0.0307089 3.12876 0.0389767 -3.05553 0.849219 -0.432287 0.0566933c-1.96655,0.25512 -3.93428,0.505515 -5.88429,0.865754 -6.81619,1.25552 -14.3741,3.5516 -20.197,7.40911 -0.315357,0.209057 -0.636619,0.431105 -0.957881,0.662603 2.7697,-0.348428 5.60319,-0.581106 8.46856,-0.683863 22.6254,-0.812604 38.6601,6.76186 35.8077,16.9147 -2.06931,7.36186 -13.5036,14.0611 -28.2604,17.497 -1.07481,0.250395 -5.13311,1.22954 -6.24099,1.44332 1.11497,-0.289372 5.17326,-1.34292 6.24217,-1.67009 12.1796,-3.72995 21.149,-9.83393 22.7458,-16.4493 2.47443,-10.2497 -13.6808,-17.8548 -36.0747,-16.9832 -1.00867,0.0389767 -2.01143,0.0944889 -3.00829,0.166537 -3.07561,2.29017 -6.16658,5.61382 -6.15831,9.53511 0.00236222,1.58977 0.525594,3.0579 1.38662,4.38192 2.33387,3.5894 6.96147,5.91028 10.8757,7.29336 5.72012,2.02088 12.143,2.91262 18.1867,3.12049l3.64845 0.52087 -3.65199 0.396853c-7.12682,0.193702 -14.7473,-0.448822 -21.6143,-2.43663 -4.71972,-1.36655 -10.5379,-3.83979 -13.4481,-8.01029 -1.03465,-1.48347 -1.67363,-3.15475 -1.68544,-4.97602 -0.0307089,-4.75515 4.1209,-8.61148 7.78588,-11.0198 5.93154,-3.89767 13.5993,-6.228 20.5218,-7.52604z"/>
   <path id="_208163432" class="fil1" d="M41.1404 13.5462l-3.61538 37.8593 -3.67444 -36.0546c-6.17721,2.16143 -10.1481,5.52524 -10.1481,9.30243 0,2.92679 2.38584,5.60555 6.3343,7.66895 -8.58195,-1.95119 -14.4627,-5.93508 -14.4627,-10.5308 0,-6.52091 11.8312,-11.8087 26.4191,-11.8087 8.03864,0 15.2387,1.60631 20.0848,4.13861 -3.59058,-0.816147 -7.6536,-1.27678 -11.9564,-1.27678 -3.15357,0 -6.17721,0.248033 -8.98117,0.70158zm-2.98112 -12.9627c2.0445,0 3.70042,1.6571 3.70042,3.70042 0,2.04332 -1.65592,3.7016 -3.70042,3.7016 -2.04332,0 -3.70042,-1.65828 -3.70042,-3.7016 0,-2.04332 1.6571,-3.70042 3.70042,-3.70042z"/>
  </g>
  <path class="fil2" d="M73.2289 39.0948l3.55514 -23.06 7.79651 0 -2.48033 16.0926c2.87955,-0.175985 5.30791,-1.4256 7.28627,-3.74885 1.97718,-2.32206 3.16892,-4.79649 3.57286,-7.42092 0.600004,-3.88822 -1.01103,-5.83114 -4.83074,-5.83114l-12.619 0 2.85711 -7.00517 12.691 0c3.69924,0 6.41461,1.04765 8.14612,3.14294 1.73151,2.09529 2.33033,5.11185 1.79647,9.04967 -0.427562,3.07916 -1.57678,6.065 -3.44766,8.95518 -1.87206,2.89018 -4.35712,5.25004 -7.45517,7.08076 -3.09805,1.82954 -6.59296,2.7449 -10.4859,2.7449l-6.38272 0z"/>
  <path id="1" class="fil2" d="M101.769 24.971c0.51024,-3.30711 1.75159,-5.59728 3.72522,-6.87288 1.97245,-1.27442 4.21657,-1.91222 6.73115,-1.91222l10.6241 0 -3.53152 22.9088 -6.99808 0c-2.56301,0 -4.69728,-0.694493 -6.40516,-2.0823 -1.70789,-1.38899 -2.91262,-3.18073 -3.61302,-5.3776 -0.70158,-2.19568 -0.878746,-4.41735 -0.532681,-6.66383zm10.5142 -2.57482c-1.06418,0 -1.86379,0.252758 -2.4012,0.757092 -0.537405,0.505515 -0.891739,1.3134 -1.063,2.42364 -0.252758,1.64056 0.02126,3.19963 0.820872,4.67602 0.799612,1.47757 2.03269,2.37994 3.69806,2.70711l1.62875 -10.5639 -2.68348 0z"/>
  <path id="12" class="fil2" d="M123.452 39.0948l3.53034 -22.9088 6.63666 0 -0.204332 1.32521c1.44804,-1.23662 3.17483,-1.85552 5.18153,-1.85552l-1.01576 6.58942c-2.19096,0.100394 -3.85042,0.908274 -4.97838,2.42364l-2.22285 14.4261 -6.92721 0z"/>
  <path id="123" class="fil2" d="M141.296 32.9601c0.484255,0 0.877565,0.0259844 1.18465,0.0767722 0.813785,-0.101576 1.24725,-0.328349 1.30158,-0.682682 0.0472444,-0.302364 -0.187797,-0.895282 -0.703942,-1.77875l-2.29962 -3.90003c-1.16812,-1.9949 -1.63938,-3.72404 -1.41379,-5.18744 0.214962,-1.38899 0.918904,-2.6197 2.11183,-3.69215 1.19174,-1.07363 2.73191,-1.60985 4.61696,-1.60985l5.87484 0 0.781895 5.98351 -3.11931 0c-1.32875,0 -2.0386,0.289372 -2.12836,0.870479 -0.04252,0.277561 0.217324,0.870479 0.778352,1.77993l2.08466 3.4075c1.13859,1.86852 1.58033,3.62247 1.32757,5.26303 -0.248033,1.61576 -0.986227,2.95396 -2.2134,4.0146 -1.22717,1.05946 -2.59018,1.58977 -4.08782,1.58977l-7.18115 0 -0.72284 -6.13469 3.8079 0z"/>
  <path id="1234" class="fil2" d="M153.659 39.0948l4.77405 -30.9734 6.99926 0 -1.24253 8.06462 3.84333 0c2.75553,0 4.64413,0.60591 5.66579,1.81773 1.02166,1.21182 1.29568,3.3579 0.820872,6.43705l-2.18505 14.654 -6.99926 0 2.00789 -13.0253c0.237403,-1.54017 0.23386,-2.53703 -0.01063,-2.99175 -0.243309,-0.454728 -1.06654,-0.681501 -2.4697,-0.681501l-1.63111 0 -2.57364 16.6985 -6.99926 0z"/>
  <path id="12345" class="fil2" d="M177.086 24.971c0.51024,-3.30711 1.75159,-5.59728 3.72522,-6.87288 1.97245,-1.27442 4.21657,-1.91222 6.73115,-1.91222l10.6241 0 -3.53152 22.9088 -6.99808 0c-2.56301,0 -4.69728,-0.694493 -6.40516,-2.0823 -1.70789,-1.38899 -2.91262,-3.18073 -3.61302,-5.3776 -0.70158,-2.19568 -0.878746,-4.41735 -0.532681,-6.66383zm10.5142 -2.57482c-1.06418,0 -1.86379,0.252758 -2.4012,0.757092 -0.537405,0.505515 -0.891739,1.3134 -1.063,2.42364 -0.252758,1.64056 0.02126,3.19963 0.820872,4.67602 0.799612,1.47757 2.03269,2.37994 3.69806,2.70711l1.62875 -10.5639 -2.68348 0z"/>
  <path id="123456" class="fil2" d="M212.491 16.1859c2.75671,0 4.74216,0.524413 5.9587,1.57206 1.21536,1.04765 1.53544,3.45121 0.955519,7.21304l-2.17679 14.1237 -6.99926 0 2.00789 -13.0253c0.229135,-1.48938 0.218505,-2.47443 -0.0342522,-2.95396 -0.252758,-0.479531 -1.06772,-0.719296 -2.44608,-0.719296l-1.63111 0 -2.57364 16.6985 -6.99926 0 3.53152 -22.9088 10.4068 0z"/>
  <polygon class="fil2" points="75.7375,41.7889 74.9049,49.1874 73.6482,49.1874 74.4808,41.7889 "/>
  <path id="1" class="fil2" d="M78.0242 44.2621l-0.0673233 0.556303c0.437011,-0.426381 0.88229,-0.640162 1.34056,-0.640162 0.343703,0 0.608272,0.132284 0.791344,0.400397 0.183072,0.26575 0.274018,0.638981 0.274018,1.11851 0,0.140552 -0.00826777,0.289372 -0.0248033,0.444098l-0.338979 3.04608 -1.17048 0 0.328349 -2.9386c0.0118111,-0.08504 0.0177167,-0.17008 0.0177167,-0.25512 0,-0.486618 -0.120473,-0.729926 -0.363782,-0.729926 -0.278742,0 -0.608272,0.252758 -0.986227,0.757092l-0.354333 3.16656 -1.17048 0 0.557484 -4.92523 1.16694 0z"/>
  <path id="12" class="fil2" d="M84.0963 44.6235l-0.0921266 1.15867c-0.203151,-0.126379 -0.41457,-0.227954 -0.634256,-0.302364 -0.219687,-0.0732289 -0.388585,-0.109843 -0.503153,-0.109843 -0.171261,0 -0.258663,0.0720478 -0.258663,0.217324 0,0.144096 0.155907,0.36142 0.465358,0.649611 0.354333,0.333073 0.58465,0.609453 0.686225,0.831502 0.103938,0.22323 0.154725,0.445279 0.154725,0.667328 0,0.445279 -0.137009,0.811423 -0.411027,1.10316 -0.275199,0.288191 -0.628351,0.433468 -1.05946,0.433468 -0.448822,0 -0.900006,-0.14882 -1.35828,-0.445279l0.161812 -1.09135c0.47835,0.229135 0.837407,0.344884 1.07363,0.344884 0.257482,0 0.383861,-0.0897644 0.383861,-0.270474 0,-0.152363 -0.17008,-0.388585 -0.51024,-0.71221 -0.341341,-0.321262 -0.562209,-0.579925 -0.660241,-0.773627 -0.0980322,-0.19134 -0.14882,-0.375593 -0.14882,-0.55276 0,-0.468901 0.139371,-0.851581 0.413389,-1.14804 0.274018,-0.296459 0.62717,-0.445279 1.05946,-0.445279 0.408664,0 0.820872,0.14882 1.2378,0.445279z"/>
  <path id="123" class="fil2" d="M86.8034 43.2239l-0.165355 1.0382 0.866935 0 -0.155907 1.08662 -0.863392 0 -0.227954 1.59332c-0.0188978,0.13819 -0.0283467,0.264569 -0.0283467,0.381499 0,0.434649 0.11693,0.650792 0.35079,0.650792 0.140552,0 0.366144,-0.0992133 0.675595,-0.296459l0 1.29214c-0.343703,0.207875 -0.679139,0.312994 -1.00749,0.312994 -0.379137,0 -0.679139,-0.151182 -0.897644,-0.453546 -0.218505,-0.302364 -0.327168,-0.692131 -0.327168,-1.17284 0,-0.14882 0.0118111,-0.292915 0.0330711,-0.433468l0.275199 -1.87442 -0.794887 0 0.147639 -1.08662 0.796069 0 0.139371 -1.0382 1.18347 0z"/>
  <path id="1234" class="fil2" d="M88.6542 42.8968c0,-0.209057 0.0590555,-0.386223 0.178348,-0.535043 0.118111,-0.147639 0.259844,-0.222049 0.427562,-0.222049 0.168899,0 0.310632,0.07441 0.431105,0.222049 0.118111,0.14882 0.177167,0.325987 0.177167,0.535043 0,0.211419 -0.0590555,0.390948 -0.177167,0.538586 -0.120473,0.14882 -0.262207,0.22323 -0.431105,0.22323 -0.167718,0 -0.309451,-0.07441 -0.427562,-0.22323 -0.119292,-0.147639 -0.178348,-0.327168 -0.178348,-0.538586zm1.05591 1.36536l-0.55276 4.92523 -1.17048 0 0.55276 -4.92523 1.17048 0z"/>
  <path id="12345" class="fil2" d="M92.553 43.2239l-0.165355 1.0382 0.866935 0 -0.155907 1.08662 -0.863392 0 -0.227954 1.59332c-0.0188978,0.13819 -0.0283467,0.264569 -0.0283467,0.381499 0,0.434649 0.11693,0.650792 0.35079,0.650792 0.140552,0 0.366144,-0.0992133 0.675595,-0.296459l0 1.29214c-0.343703,0.207875 -0.679139,0.312994 -1.00749,0.312994 -0.379137,0 -0.679139,-0.151182 -0.897644,-0.453546 -0.218505,-0.302364 -0.327168,-0.692131 -0.327168,-1.17284 0,-0.14882 0.0118111,-0.292915 0.0330711,-0.433468l0.275199 -1.87442 -0.794887 0 0.147639 -1.08662 0.796069 0 0.139371 -1.0382 1.18347 0z"/>
  <path id="123456" class="fil2" d="M97.9944 44.2621l-0.55276 4.92523 -1.17166 0 0.0720478 -0.551579c-0.409845,0.4252 -0.833864,0.636619 -1.27324,0.636619 -0.366144,0 -0.64843,-0.133466 -0.849219,-0.402759 -0.200789,-0.268112 -0.300002,-0.633075 -0.300002,-1.09607 0,-0.120473 0.00590555,-0.249214 0.0200789,-0.386223l0.355514 -3.12522 1.17048 0 -0.295278 2.61734c-0.0259844,0.222049 -0.0366144,0.413389 -0.0366144,0.576382 0,0.490161 0.11693,0.735832 0.349609,0.735832 0.301183,0 0.629532,-0.240947 0.983865,-0.719296l0.356695 -3.21026 1.17048 0z"/>
  <path id="1234567" class="fil2" d="M100.833 43.2239l-0.165355 1.0382 0.866935 0 -0.155907 1.08662 -0.863392 0 -0.227954 1.59332c-0.0188978,0.13819 -0.0283467,0.264569 -0.0283467,0.381499 0,0.434649 0.11693,0.650792 0.35079,0.650792 0.140552,0 0.366144,-0.0992133 0.675595,-0.296459l0 1.29214c-0.343703,0.207875 -0.679139,0.312994 -1.00749,0.312994 -0.379137,0 -0.679139,-0.151182 -0.897644,-0.453546 -0.218505,-0.302364 -0.327168,-0.692131 -0.327168,-1.17284 0,-0.14882 0.0118111,-0.292915 0.0330711,-0.433468l0.275199 -1.87442 -0.794887 0 0.147639 -1.08662 0.796069 0 0.139371 -1.0382 1.18347 0z"/>
  <path id="12345678" class="fil2" d="M105.819 46.9314l-2.57246 0c-0.0271655,0.388585 0.0437011,0.698036 0.2126,0.927172 0.168899,0.230317 0.398034,0.343703 0.688588,0.343703 0.321262,0 0.805517,-0.167718 1.45395,-0.501972l-0.206694 1.22717c-0.51024,0.236222 -0.966149,0.355514 -1.36655,0.355514 -0.594099,0 -1.07009,-0.217324 -1.42442,-0.651973 -0.355514,-0.434649 -0.532681,-1.01457 -0.532681,-1.74096 0,-0.753549 0.206694,-1.39371 0.621264,-1.92167 0.415751,-0.525594 0.916542,-0.790163 1.5071,-0.790163 0.509059,0 0.917723,0.188978 1.22245,0.568114 0.307089,0.379137 0.459452,0.879927 0.459452,1.50237 0,0.218505 -0.02126,0.44646 -0.0625989,0.682682zm-2.45789 -0.848037l1.37481 0c0.00826777,-0.0590555 0.01063,-0.119292 0.01063,-0.178348 0,-0.217324 -0.0507878,-0.390948 -0.154725,-0.522051 -0.103938,-0.132284 -0.24449,-0.199608 -0.419294,-0.199608 -0.375593,0 -0.644886,0.300002 -0.811423,0.900006z"/>
  <path id="123456789" class="fil2" d="M111.328 44.1783c0.572839,0 1.04056,0.213781 1.40434,0.642524 0.362601,0.429924 0.545673,0.98859 0.545673,1.67718 0,0.781895 -0.216143,1.4445 -0.646068,1.97954 -0.429924,0.536224 -0.957881,0.805517 -1.58741,0.805517 -0.558665,0 -1.02757,-0.229135 -1.41025,-0.688588 -0.38268,-0.459452 -0.572839,-1.02166 -0.572839,-1.68426 0,-0.745281 0.222049,-1.38662 0.667328,-1.92521 0.445279,-0.538586 0.979141,-0.806699 1.59922,-0.806699zm-0.274018 3.9142c0.294097,0 0.537405,-0.172442 0.726383,-0.511421 0.190159,-0.342522 0.283467,-0.715753 0.283467,-1.12678 0,-0.323624 -0.0732289,-0.585831 -0.214962,-0.78662 -0.144096,-0.198427 -0.335435,-0.29764 -0.571658,-0.29764 -0.312994,0 -0.558665,0.174804 -0.738194,0.525594 -0.178348,0.353152 -0.268112,0.718115 -0.268112,1.09961 0,0.331892 0.0791344,0.597642 0.236222,0.79725 0.158269,0.198427 0.34016,0.300002 0.546854,0.300002z"/>
  <path id="12345678910" class="fil2" d="M117.751 41.9424l-0.131103 1.18111c-0.248033,-0.157088 -0.46772,-0.237403 -0.655516,-0.237403 -0.514964,0 -0.798431,0.459452 -0.849219,1.37599l0.751186 0 -0.121654 1.08662 -0.760635 0 -0.676776 5.99886 -1.16812 0 0.676776 -5.99886 -0.799612 0 0.122836 -1.08662 0.803155 0c0.0779533,-0.838589 0.279923,-1.47639 0.614178,-1.91458 0.331892,-0.43583 0.748824,-0.654335 1.25198,-0.654335 0.29764,0 0.612996,0.0838589 0.942526,0.249214z"/>
  <polygon id="1234567891011" class="fil2" points="124.145,41.7889 124.005,43.029 121.574,43.029 121.374,44.7712 123.515,44.7712 123.375,46.0102 121.234,46.0102 121.019,47.9531 124.085,47.9531 123.945,49.1874 119.624,49.1874 120.457,41.7889 "/>
  <path id="123456789101112" class="fil2" d="M126.462 44.2621l-0.0673233 0.556303c0.437011,-0.426381 0.88229,-0.640162 1.34056,-0.640162 0.343703,0 0.608272,0.132284 0.791344,0.400397 0.183072,0.26575 0.274018,0.638981 0.274018,1.11851 0,0.140552 -0.00826777,0.289372 -0.0248033,0.444098l-0.338979 3.04608 -1.17048 0 0.328349 -2.9386c0.0118111,-0.08504 0.0177167,-0.17008 0.0177167,-0.25512 0,-0.486618 -0.120473,-0.729926 -0.363782,-0.729926 -0.278742,0 -0.608272,0.252758 -0.986227,0.757092l-0.354333 3.16656 -1.17048 0 0.557484 -4.92523 1.16694 0z"/>
  <path id="12345678910111213" class="fil2" d="M133.807 44.2621l-0.109843 1.08662 -0.634256 0c0.0992133,0.257482 0.14882,0.516145 0.14882,0.778352 0,0.504334 -0.14882,0.930715 -0.445279,1.27796 -0.296459,0.348428 -0.695674,0.522051 -1.20119,0.522051 -0.25512,0 -0.438192,0.0153544 -0.546854,0.0460633 -0.108662,0.0283467 -0.162993,0.102757 -0.162993,0.218505 0,0.0625989 0.0354333,0.119292 0.105119,0.166537 0.0708666,0.0484255 0.357877,0.122836 0.86103,0.22323 0.503153,0.100394 0.863392,0.278742 1.08072,0.537405 0.217324,0.256301 0.325987,0.576382 0.325987,0.957881 0,1.07009 -0.675595,1.60513 -2.02679,1.60513 -0.618902,0 -1.08662,-0.109843 -1.40198,-0.32953 -0.314175,-0.218505 -0.470082,-0.512602 -0.470082,-0.883471 0,-0.484255 0.323624,-0.852762 0.970873,-1.1067 -0.362601,-0.225592 -0.544492,-0.529138 -0.544492,-0.910636 0,-0.459452 0.264569,-0.762997 0.794887,-0.910636 -0.455909,-0.336617 -0.683863,-0.810242 -0.683863,-1.42442 0,-0.494885 0.160631,-0.927172 0.485436,-1.29804 0.323624,-0.370869 0.742919,-0.556303 1.2567,-0.556303l2.19805 0zm-2.32088 2.75435c0.428743,0 0.642524,-0.351971 0.642524,-1.05946 0,-0.218505 -0.0496066,-0.389767 -0.146458,-0.516145 -0.09567,-0.125198 -0.231498,-0.188978 -0.399215,-0.188978 -0.428743,0 -0.642524,0.360239 -0.642524,1.0819 0,0.454728 0.181891,0.682682 0.545673,0.682682zm0.650792 3.2575c0,-0.230317 -0.184253,-0.390948 -0.553941,-0.483074l-0.51024 -0.137009c-0.112206,0 -0.258663,0.0472444 -0.442916,0.139371 -0.185434,0.0933077 -0.277561,0.239765 -0.277561,0.437011 0,0.34016 0.289372,0.507878 0.866935,0.507878 0.324805,0 0.558665,-0.0342522 0.702761,-0.105119 0.142914,-0.0696855 0.214962,-0.19134 0.214962,-0.359058z"/>
  <path id="1234567891011121314" class="fil2" d="M134.758 42.8968c0,-0.209057 0.0590555,-0.386223 0.178348,-0.535043 0.118111,-0.147639 0.259844,-0.222049 0.427562,-0.222049 0.168899,0 0.310632,0.07441 0.431105,0.222049 0.118111,0.14882 0.177167,0.325987 0.177167,0.535043 0,0.211419 -0.0590555,0.390948 -0.177167,0.538586 -0.120473,0.14882 -0.262207,0.22323 -0.431105,0.22323 -0.167718,0 -0.309451,-0.07441 -0.427562,-0.22323 -0.119292,-0.147639 -0.178348,-0.327168 -0.178348,-0.538586zm1.05591 1.36536l-0.55276 4.92523 -1.17048 0 0.55276 -4.92523 1.17048 0z"/>
  <path id="123456789101112131415" class="fil2" d="M138.243 44.2621l-0.0673233 0.556303c0.437011,-0.426381 0.88229,-0.640162 1.34056,-0.640162 0.343703,0 0.608272,0.132284 0.791344,0.400397 0.183072,0.26575 0.274018,0.638981 0.274018,1.11851 0,0.140552 -0.00826777,0.289372 -0.0248033,0.444098l-0.338979 3.04608 -1.17048 0 0.328349 -2.9386c0.0118111,-0.08504 0.0177167,-0.17008 0.0177167,-0.25512 0,-0.486618 -0.120473,-0.729926 -0.363782,-0.729926 -0.278742,0 -0.608272,0.252758 -0.986227,0.757092l-0.354333 3.16656 -1.17048 0 0.557484 -4.92523 1.16694 0z"/>
  <path id="12345678910111213141516" class="fil2" d="M145.26 46.9314l-2.57246 0c-0.0271655,0.388585 0.0437011,0.698036 0.2126,0.927172 0.168899,0.230317 0.398034,0.343703 0.688588,0.343703 0.321262,0 0.805517,-0.167718 1.45395,-0.501972l-0.206694 1.22717c-0.51024,0.236222 -0.966149,0.355514 -1.36655,0.355514 -0.594099,0 -1.07009,-0.217324 -1.42442,-0.651973 -0.355514,-0.434649 -0.532681,-1.01457 -0.532681,-1.74096 0,-0.753549 0.206694,-1.39371 0.621264,-1.92167 0.415751,-0.525594 0.916542,-0.790163 1.5071,-0.790163 0.509059,0 0.917723,0.188978 1.22245,0.568114 0.307089,0.379137 0.459452,0.879927 0.459452,1.50237 0,0.218505 -0.02126,0.44646 -0.0625989,0.682682zm-2.45789 -0.848037l1.37481 0c0.00826777,-0.0590555 0.01063,-0.119292 0.01063,-0.178348 0,-0.217324 -0.0507878,-0.390948 -0.154725,-0.522051 -0.103938,-0.132284 -0.24449,-0.199608 -0.419294,-0.199608 -0.375593,0 -0.644886,0.300002 -0.811423,0.900006z"/>
  <path id="1234567891011121314151617" class="fil2" d="M149.844 46.9314l-2.57246 0c-0.0271655,0.388585 0.0437011,0.698036 0.2126,0.927172 0.168899,0.230317 0.398034,0.343703 0.688588,0.343703 0.321262,0 0.805517,-0.167718 1.45395,-0.501972l-0.206694 1.22717c-0.51024,0.236222 -0.966149,0.355514 -1.36655,0.355514 -0.594099,0 -1.07009,-0.217324 -1.42442,-0.651973 -0.355514,-0.434649 -0.532681,-1.01457 -0.532681,-1.74096 0,-0.753549 0.206694,-1.39371 0.621264,-1.92167 0.415751,-0.525594 0.916542,-0.790163 1.5071,-0.790163 0.509059,0 0.917723,0.188978 1.22245,0.568114 0.307089,0.379137 0.459452,0.879927 0.459452,1.50237 0,0.218505 -0.02126,0.44646 -0.0625989,0.682682zm-2.45789 -0.848037l1.37481 0c0.00826777,-0.0590555 0.01063,-0.119292 0.01063,-0.178348 0,-0.217324 -0.0507878,-0.390948 -0.154725,-0.522051 -0.103938,-0.132284 -0.24449,-0.199608 -0.419294,-0.199608 -0.375593,0 -0.644886,0.300002 -0.811423,0.900006z"/>
  <path id="123456789101112131415161718" class="fil2" d="M152.299 44.2621l-0.0897644 0.705123 0.0177167 0.02126c0.349609,-0.540949 0.668509,-0.810242 0.955519,-0.810242 0.220868,0 0.453546,0.179529 0.698036,0.538586l-0.544492 1.35592c-0.190159,-0.351971 -0.374412,-0.529138 -0.555122,-0.529138 -0.154725,0 -0.310632,0.101576 -0.465358,0.301183 -0.154725,0.203151 -0.236222,0.34016 -0.24449,0.41457l-0.325987 2.92797 -1.17166 0 0.55276 -4.92523 1.17284 0z"/>
  <path id="12345678910111213141516171819" class="fil2" d="M154.625 42.8968c0,-0.209057 0.0590555,-0.386223 0.178348,-0.535043 0.118111,-0.147639 0.259844,-0.222049 0.427562,-0.222049 0.168899,0 0.310632,0.07441 0.431105,0.222049 0.118111,0.14882 0.177167,0.325987 0.177167,0.535043 0,0.211419 -0.0590555,0.390948 -0.177167,0.538586 -0.120473,0.14882 -0.262207,0.22323 -0.431105,0.22323 -0.167718,0 -0.309451,-0.07441 -0.427562,-0.22323 -0.119292,-0.147639 -0.178348,-0.327168 -0.178348,-0.538586zm1.05591 1.36536l-0.55276 4.92523 -1.17048 0 0.55276 -4.92523 1.17048 0z"/>
  <path id="1234567891011121314151617181920" class="fil2" d="M158.109 44.2621l-0.0673233 0.556303c0.437011,-0.426381 0.88229,-0.640162 1.34056,-0.640162 0.343703,0 0.608272,0.132284 0.791344,0.400397 0.183072,0.26575 0.274018,0.638981 0.274018,1.11851 0,0.140552 -0.00826777,0.289372 -0.0248033,0.444098l-0.338979 3.04608 -1.17048 0 0.328349 -2.9386c0.0118111,-0.08504 0.0177167,-0.17008 0.0177167,-0.25512 0,-0.486618 -0.120473,-0.729926 -0.363782,-0.729926 -0.278742,0 -0.608272,0.252758 -0.986227,0.757092l-0.354333 3.16656 -1.17048 0 0.557484 -4.92523 1.16694 0z"/>
  <path id="123456789101112131415161718192021" class="fil2" d="M165.455 44.2621l-0.109843 1.08662 -0.634256 0c0.0992133,0.257482 0.14882,0.516145 0.14882,0.778352 0,0.504334 -0.14882,0.930715 -0.445279,1.27796 -0.296459,0.348428 -0.695674,0.522051 -1.20119,0.522051 -0.25512,0 -0.438192,0.0153544 -0.546854,0.0460633 -0.108662,0.0283467 -0.162993,0.102757 -0.162993,0.218505 0,0.0625989 0.0354333,0.119292 0.105119,0.166537 0.0708666,0.0484255 0.357877,0.122836 0.86103,0.22323 0.503153,0.100394 0.863392,0.278742 1.08072,0.537405 0.217324,0.256301 0.325987,0.576382 0.325987,0.957881 0,1.07009 -0.675595,1.60513 -2.02679,1.60513 -0.618902,0 -1.08662,-0.109843 -1.40198,-0.32953 -0.314175,-0.218505 -0.470082,-0.512602 -0.470082,-0.883471 0,-0.484255 0.323624,-0.852762 0.970873,-1.1067 -0.362601,-0.225592 -0.544492,-0.529138 -0.544492,-0.910636 0,-0.459452 0.264569,-0.762997 0.794887,-0.910636 -0.455909,-0.336617 -0.683863,-0.810242 -0.683863,-1.42442 0,-0.494885 0.160631,-0.927172 0.485436,-1.29804 0.323624,-0.370869 0.742919,-0.556303 1.2567,-0.556303l2.19805 0zm-2.32088 2.75435c0.428743,0 0.642524,-0.351971 0.642524,-1.05946 0,-0.218505 -0.0496066,-0.389767 -0.146458,-0.516145 -0.09567,-0.125198 -0.231498,-0.188978 -0.399215,-0.188978 -0.428743,0 -0.642524,0.360239 -0.642524,1.0819 0,0.454728 0.181891,0.682682 0.545673,0.682682zm0.650792 3.2575c0,-0.230317 -0.184253,-0.390948 -0.553941,-0.483074l-0.51024 -0.137009c-0.112206,0 -0.258663,0.0472444 -0.442916,0.139371 -0.185434,0.0933077 -0.277561,0.239765 -0.277561,0.437011 0,0.34016 0.289372,0.507878 0.866935,0.507878 0.324805,0 0.558665,-0.0342522 0.702761,-0.105119 0.142914,-0.0696855 0.214962,-0.19134 0.214962,-0.359058z"/>
  <path id="12345678910111213141516171819202122" class="fil2" d="M172.711 45.8673l1.14213 0c-0.213781,0.677958 -0.539768,1.30158 -0.97796,1.86852 0.231498,0.121654 0.487799,0.18071 0.770084,0.18071l0.362601 0 -0.395672 1.27088c-0.133466,0.06378 -0.290553,0.09567 -0.473625,0.09567 -0.493704,0 -0.943707,-0.194883 -1.35473,-0.583469 -0.535043,0.388585 -1.09135,0.583469 -1.67363,0.583469 -0.601185,0 -1.09843,-0.2126 -1.49292,-0.641343 -0.39331,-0.426381 -0.591736,-0.961424 -0.591736,-1.60395 0,-0.631894 0.187797,-1.1693 0.564571,-1.6134 0.376774,-0.442916 0.927172,-0.726383 1.65119,-0.855124 -0.00590555,-0.112206 -0.00826777,-0.220868 -0.00826777,-0.321262 0,-0.799612 0.177167,-1.42442 0.530319,-1.87678 0.354333,-0.451184 0.824415,-0.677958 1.41025,-0.677958 0.426381,0 0.774809,0.14882 1.04765,0.442916 0.271655,0.295278 0.407483,0.672052 0.407483,1.1315 0,1.09017 -0.699218,1.7882 -2.09765,2.09175 0.134647,0.64843 0.317719,1.18347 0.544492,1.60513 0.292915,-0.311813 0.503153,-0.676776 0.635438,-1.09725zm-1.3193 -1.5508c0.419294,-0.0992133 0.742919,-0.23386 0.966149,-0.401578 0.225592,-0.166537 0.335435,-0.390948 0.335435,-0.668509 0,-0.19134 -0.0543311,-0.347247 -0.164174,-0.468901 -0.108662,-0.122836 -0.252758,-0.181891 -0.427562,-0.181891 -0.236222,0 -0.421657,0.102757 -0.557484,0.309451 -0.135828,0.205513 -0.203151,0.492523 -0.203151,0.859849 0,0.204332 0.0165355,0.388585 0.0507878,0.551579zm-1.00158 1.35592c-0.71221,0.167718 -1.06654,0.581106 -1.06654,1.2378 0,0.35079 0.0944889,0.6378 0.285829,0.863392 0.190159,0.226773 0.432287,0.337798 0.728745,0.337798 0.242128,0 0.49961,-0.0826777 0.771265,-0.246852 -0.356695,-0.707485 -0.596461,-1.43741 -0.719296,-2.19214z"/>
  <polygon id="1234567891011121314151617181920212223" class="fil2" points="181.253,41.7889 181.114,43.029 179.193,43.029 178.501,49.1874 177.245,49.1874 177.938,43.029 176.065,43.029 176.205,41.7889 "/>
  <path id="123456789101112131415161718192021222324" class="fil2" d="M184.071 46.9314l-2.57246 0c-0.0271655,0.388585 0.0437011,0.698036 0.2126,0.927172 0.168899,0.230317 0.398034,0.343703 0.688588,0.343703 0.321262,0 0.805517,-0.167718 1.45395,-0.501972l-0.206694 1.22717c-0.51024,0.236222 -0.966149,0.355514 -1.36655,0.355514 -0.594099,0 -1.07009,-0.217324 -1.42442,-0.651973 -0.355514,-0.434649 -0.532681,-1.01457 -0.532681,-1.74096 0,-0.753549 0.206694,-1.39371 0.621264,-1.92167 0.415751,-0.525594 0.916542,-0.790163 1.5071,-0.790163 0.509059,0 0.917723,0.188978 1.22245,0.568114 0.307089,0.379137 0.459452,0.879927 0.459452,1.50237 0,0.218505 -0.02126,0.44646 -0.0625989,0.682682zm-2.45789 -0.848037l1.37481 0c0.00826777,-0.0590555 0.01063,-0.119292 0.01063,-0.178348 0,-0.217324 -0.0507878,-0.390948 -0.154725,-0.522051 -0.103938,-0.132284 -0.24449,-0.199608 -0.419294,-0.199608 -0.375593,0 -0.644886,0.300002 -0.811423,0.900006z"/>
  <path id="12345678910111213141516171819202122232425" class="fil2" d="M188.51 44.3519l-0.146458 1.32048c-0.206694,-0.0933077 -0.35079,-0.152363 -0.434649,-0.177167 -0.0826777,-0.0271655 -0.22323,-0.0401578 -0.415751,-0.0401578 -0.395672,0 -0.726383,0.144096 -0.994495,0.43583 -0.266931,0.290553 -0.401578,0.64843 -0.401578,1.07363 0,0.355514 0.0897644,0.631894 0.268112,0.82914 0.179529,0.198427 0.429924,0.298821 0.75473,0.298821 0.316538,0 0.687406,-0.108662 1.11615,-0.323624l-0.139371 1.33347c-0.394491,0.121654 -0.79725,0.18071 -1.20828,0.18071 -0.590555,0 -1.07127,-0.222049 -1.44214,-0.664965 -0.373231,-0.442916 -0.558665,-1.01221 -0.558665,-1.70789 0,-0.770084 0.242128,-1.41733 0.727564,-1.94293 0.484255,-0.526775 1.0819,-0.788982 1.79293,-0.788982 0.411027,0 0.772446,0.0578744 1.0819,0.173623z"/>
  <path id="1234567891011121314151617181920212223242526" class="fil2" d="M191.098 41.7889l-0.346065 3.04018c0.413389,-0.433468 0.852762,-0.650792 1.31458,-0.650792 0.34016,0 0.604729,0.125198 0.798431,0.377955 0.192521,0.253939 0.288191,0.603548 0.288191,1.05591 0,0.125198 -0.00708666,0.252758 -0.0200789,0.386223l-0.356695 3.189 -1.17048 0 0.355514 -3.15593c0.0200789,-0.187797 -0.00354333,-0.344884 -0.0696855,-0.471263 -0.0661422,-0.12756 -0.164174,-0.190159 -0.294097,-0.190159 -0.270474,0 -0.59528,0.205513 -0.97796,0.617721l-0.354333 3.19963 -1.17048 0 0.832683 -7.39848 1.17048 0z"/>
  <path id="123456789101112131415161718192021222324252627" class="fil2" d="M195.767 44.2621l-0.0673233 0.556303c0.437011,-0.426381 0.88229,-0.640162 1.34056,-0.640162 0.343703,0 0.608272,0.132284 0.791344,0.400397 0.183072,0.26575 0.274018,0.638981 0.274018,1.11851 0,0.140552 -0.00826777,0.289372 -0.0248033,0.444098l-0.338979 3.04608 -1.17048 0 0.328349 -2.9386c0.0118111,-0.08504 0.0177167,-0.17008 0.0177167,-0.25512 0,-0.486618 -0.120473,-0.729926 -0.363782,-0.729926 -0.278742,0 -0.608272,0.252758 -0.986227,0.757092l-0.354333 3.16656 -1.17048 0 0.557484 -4.92523 1.16694 0z"/>
  <path id="12345678910111213141516171819202122232425262728" class="fil2" d="M201.303 44.1783c0.572839,0 1.04056,0.213781 1.40434,0.642524 0.362601,0.429924 0.545673,0.98859 0.545673,1.67718 0,0.781895 -0.216143,1.4445 -0.646068,1.97954 -0.429924,0.536224 -0.957881,0.805517 -1.58741,0.805517 -0.558665,0 -1.02757,-0.229135 -1.41025,-0.688588 -0.38268,-0.459452 -0.572839,-1.02166 -0.572839,-1.68426 0,-0.745281 0.222049,-1.38662 0.667328,-1.92521 0.445279,-0.538586 0.979141,-0.806699 1.59922,-0.806699zm-0.274018 3.9142c0.294097,0 0.537405,-0.172442 0.726383,-0.511421 0.190159,-0.342522 0.283467,-0.715753 0.283467,-1.12678 0,-0.323624 -0.0732289,-0.585831 -0.214962,-0.78662 -0.144096,-0.198427 -0.335435,-0.29764 -0.571658,-0.29764 -0.312994,0 -0.558665,0.174804 -0.738194,0.525594 -0.178348,0.353152 -0.268112,0.718115 -0.268112,1.09961 0,0.331892 0.0791344,0.597642 0.236222,0.79725 0.158269,0.198427 0.34016,0.300002 0.546854,0.300002z"/>
  <polygon id="1234567891011121314151617181920212223242526272829" class="fil2" points="206.054,41.7889 205.222,49.1874 204.055,49.1874 204.884,41.7889 "/>
  <path id="123456789101112131415161718192021222324252627282930" class="fil2" d="M208.766 44.1783c0.572839,0 1.04056,0.213781 1.40434,0.642524 0.362601,0.429924 0.545673,0.98859 0.545673,1.67718 0,0.781895 -0.216143,1.4445 -0.646068,1.97954 -0.429924,0.536224 -0.957881,0.805517 -1.58741,0.805517 -0.558665,0 -1.02757,-0.229135 -1.41025,-0.688588 -0.38268,-0.459452 -0.572839,-1.02166 -0.572839,-1.68426 0,-0.745281 0.222049,-1.38662 0.667328,-1.92521 0.445279,-0.538586 0.979141,-0.806699 1.59922,-0.806699zm-0.274018 3.9142c0.294097,0 0.537405,-0.172442 0.726383,-0.511421 0.190159,-0.342522 0.283467,-0.715753 0.283467,-1.12678 0,-0.323624 -0.0732289,-0.585831 -0.214962,-0.78662 -0.144096,-0.198427 -0.335435,-0.29764 -0.571658,-0.29764 -0.312994,0 -0.558665,0.174804 -0.738194,0.525594 -0.178348,0.353152 -0.268112,0.718115 -0.268112,1.09961 0,0.331892 0.0791344,0.597642 0.236222,0.79725 0.158269,0.198427 0.34016,0.300002 0.546854,0.300002z"/>
  <path id="12345678910111213141516171819202122232425262728293031" class="fil2" d="M215.535 44.2621l-0.109843 1.08662 -0.634256 0c0.0992133,0.257482 0.14882,0.516145 0.14882,0.778352 0,0.504334 -0.14882,0.930715 -0.445279,1.27796 -0.296459,0.348428 -0.695674,0.522051 -1.20119,0.522051 -0.25512,0 -0.438192,0.0153544 -0.546854,0.0460633 -0.108662,0.0283467 -0.162993,0.102757 -0.162993,0.218505 0,0.0625989 0.0354333,0.119292 0.105119,0.166537 0.0708666,0.0484255 0.357877,0.122836 0.86103,0.22323 0.503153,0.100394 0.863392,0.278742 1.08072,0.537405 0.217324,0.256301 0.325987,0.576382 0.325987,0.957881 0,1.07009 -0.675595,1.60513 -2.02679,1.60513 -0.618902,0 -1.08662,-0.109843 -1.40198,-0.32953 -0.314175,-0.218505 -0.470082,-0.512602 -0.470082,-0.883471 0,-0.484255 0.323624,-0.852762 0.970873,-1.1067 -0.362601,-0.225592 -0.544492,-0.529138 -0.544492,-0.910636 0,-0.459452 0.264569,-0.762997 0.794887,-0.910636 -0.455909,-0.336617 -0.683863,-0.810242 -0.683863,-1.42442 0,-0.494885 0.160631,-0.927172 0.485436,-1.29804 0.323624,-0.370869 0.742919,-0.556303 1.2567,-0.556303l2.19805 0zm-2.32088 2.75435c0.428743,0 0.642524,-0.351971 0.642524,-1.05946 0,-0.218505 -0.0496066,-0.389767 -0.146458,-0.516145 -0.09567,-0.125198 -0.231498,-0.188978 -0.399215,-0.188978 -0.428743,0 -0.642524,0.360239 -0.642524,1.0819 0,0.454728 0.181891,0.682682 0.545673,0.682682zm0.650792 3.2575c0,-0.230317 -0.184253,-0.390948 -0.553941,-0.483074l-0.51024 -0.137009c-0.112206,0 -0.258663,0.0472444 -0.442916,0.139371 -0.185434,0.0933077 -0.277561,0.239765 -0.277561,0.437011 0,0.34016 0.289372,0.507878 0.866935,0.507878 0.324805,0 0.558665,-0.0342522 0.702761,-0.105119 0.142914,-0.0696855 0.214962,-0.19134 0.214962,-0.359058z"/>
  <polygon id="1234567891011121314151617181920212223242526272829303132" class="fil2" points="219.983,44.2621 217.128,51.6819 215.898,51.6819 217.041,48.7314 215.783,44.2621 216.956,44.2621 217.725,47.1381 218.765,44.2621 "/>
  <path class="fil3" d="M80.7419 2.45671c0,0.445279 -0.134647,0.915361 -0.40394,1.41261 -0.357877,0.654335 -0.875203,1.16221 -1.55552,1.52363 -0.62717,0.32953 -1.30158,0.494885 -2.02088,0.494885l-1.05237 0 1.15395 -3.7453 1.15158 0 -0.979141 3.16183c0.418113,0 0.832683,-0.147639 1.24489,-0.441735 0.411027,-0.295278 0.711029,-0.65906 0.900006,-1.09135 0.17008,-0.38268 0.25512,-0.70158 0.25512,-0.957881 0,-0.418113 -0.102757,-0.718115 -0.305908,-0.901187 -0.183072,-0.160631 -0.462995,-0.240947 -0.842132,-0.240947l-3.0827 0 0.492523 -0.920085 3.08506 0c0.533862,0 0.976779,0.128741 1.33229,0.386223 0.418113,0.305908 0.62717,0.7441 0.62717,1.3193zm4.11971 2.84766c-0.0448822,0.187797 -0.147639,0.334254 -0.307089,0.441735 -0.141733,0.0944889 -0.304727,0.141733 -0.487799,0.141733l-1.77521 0c-1.03229,0 -1.54962,-0.355514 -1.54962,-1.06891 0,-0.458271 0.177167,-0.817329 0.530319,-1.07835 0.303545,-0.222049 0.664965,-0.334254 1.08308,-0.334254l0.462995 0c0.269293,0 0.506696,0.0472444 0.709848,0.141733 0.272837,0.126379 0.41457,0.3189 0.427562,0.576382 0.01063,0.261025 -0.0992133,0.47835 -0.328349,0.649611l-1.05473 0 0.344884 -0.784257 -0.674414 0 -0.261025 0.879927c-0.0153544,0.0519689 -0.02126,0.0980322 -0.02126,0.139371 0,0.196064 0.13819,0.295278 0.413389,0.295278l2.48742 0zm4.24137 0c-0.1063,0.389767 -0.366144,0.583469 -0.780714,0.583469l-1.21418 0c-0.35079,0 -0.522051,-0.126379 -0.517326,-0.379137 -0.232679,0.314175 -0.546854,0.470082 -0.938983,0.470082 -0.257482,0 -0.466539,-0.0814966 -0.624808,-0.246852 -0.165355,-0.171261 -0.249214,-0.401578 -0.249214,-0.694493 0,-0.527956 0.186615,-0.941345 0.561028,-1.24135 0.32953,-0.261025 0.734651,-0.389767 1.21418,-0.389767l0.663784 0 0.59528 -1.92875 1.16103 0 -1.18584 3.8268 1.31576 0zm-2.06222 -1.31458l-0.810242 0 -0.240947 0.784257c-0.02126,0.0732289 -0.0330711,0.139371 -0.0330711,0.198427 0,0.162993 0.0909455,0.266931 0.271655,0.310632 0.06378,0.0129922 0.199608,0.02126 0.407483,0.02126l0.405121 -1.31458zm4.24846 -2.08112c0,0.243309 -0.0814966,0.450003 -0.246852,0.621264 -0.164174,0.168899 -0.362601,0.25512 -0.594099,0.25512 -0.236222,0 -0.43583,-0.0862211 -0.600004,-0.25512 -0.166537,-0.171261 -0.248033,-0.377955 -0.248033,-0.621264 0,-0.240947 0.0814966,-0.44646 0.248033,-0.61654 0.164174,-0.171261 0.363782,-0.256301 0.600004,-0.256301 0.231498,0 0.429924,0.08504 0.594099,0.256301 0.165355,0.17008 0.246852,0.375593 0.246852,0.61654zm0.229135 3.39569c-0.0543311,0.213781 -0.168899,0.37205 -0.343703,0.474806 -0.125198,0.0732289 -0.261025,0.108662 -0.407483,0.108662l-1.25906 0c-0.304727,0 -0.455909,-0.145277 -0.455909,-0.438192 0,-0.0826777 0.0153544,-0.171261 0.0448822,-0.26575l0.555122 -1.77757 1.15631 0 -0.589374 1.89804 1.29922 0zm3.98861 0c-0.0472444,0.190159 -0.145277,0.337798 -0.292915,0.441735 -0.135828,0.0944889 -0.295278,0.141733 -0.475988,0.141733l-1.9193 0c-0.364963,0 -0.672052,-0.0708666 -0.920085,-0.211419 -0.314175,-0.178348 -0.472444,-0.445279 -0.472444,-0.801974 0,-0.0401578 0.00236222,-0.0803155 0.00708666,-0.121654 0.04252,-0.43583 0.239765,-0.77599 0.592918,-1.02166 0.309451,-0.217324 0.676776,-0.324805 1.09961,-0.324805l0.803155 0c0.18071,0 0.334254,0.0649611 0.461814,0.196064 0.12756,0.131103 0.19134,0.291734 0.19134,0.483074 0,0.19134 -0.0649611,0.354333 -0.193702,0.487799 -0.12756,0.134647 -0.281104,0.200789 -0.459452,0.200789 -0.18071,0 -0.334254,-0.0673233 -0.460633,-0.20197 -0.12756,-0.135828 -0.188978,-0.300002 -0.186615,-0.494885 0,0 0,-0.0295278 0,-0.0874022l-0.385042 0 -0.249214 0.806699c-0.02126,0.0685044 -0.03189,0.131103 -0.03189,0.185434 0,0.214962 0.147639,0.322443 0.442916,0.322443l2.44844 0zm4.07247 0c-0.101576,0.389767 -0.36142,0.583469 -0.780714,0.583469l-1.2071 0c-0.343703,0 -0.517326,-0.126379 -0.517326,-0.379137 -0.230317,0.301183 -0.516145,0.453546 -0.853943,0.453546 -0.248033,0 -0.451184,-0.0885833 -0.604729,-0.263388 -0.155907,-0.175985 -0.232679,-0.405121 -0.232679,-0.686225 0,-0.509059 0.168899,-0.911817 0.51024,-1.20591 0.307089,-0.266931 0.688588,-0.400397 1.14332,-0.400397l1.82009 0 -0.600004 1.89804 1.32284 0zm-2.05513 -1.31458l-0.705123 0 -0.222049 0.8504c-0.0141733,0.05315 -0.0200789,0.102757 -0.0200789,0.146458 0,0.211419 0.18071,0.317719 0.54213,0.317719l0.405121 -1.31458zm4.88389 1.31458c-0.100394,0.389767 -0.366144,0.583469 -0.798431,0.583469l-1.62521 0c-0.314175,0 -0.472444,-0.126379 -0.472444,-0.379137 0,-0.0625989 0.0118111,-0.131103 0.0366144,-0.204332l0.40394 -1.31458 -0.523232 0 0.20197 -0.583469c0.37205,-0.109843 0.647249,-0.249214 0.827959,-0.420475 0.204332,-0.19134 0.421657,-0.540949 0.653154,-1.0441l0.621264 0 -0.448822 1.46458 0.822053 0c-0.131103,0.388585 -0.399215,0.583469 -0.801974,0.583469l-0.211419 0 -0.398034 1.31458 1.71261 0zm4.00515 0c-0.0437011,0.187797 -0.146458,0.334254 -0.305908,0.441735 -0.141733,0.0944889 -0.304727,0.141733 -0.487799,0.141733l-1.77521 0c-1.03347,0 -1.54962,-0.355514 -1.54962,-1.06891 0,-0.458271 0.177167,-0.817329 0.529138,-1.07835 0.303545,-0.222049 0.664965,-0.334254 1.08426,-0.334254l0.461814 0c0.270474,0 0.507878,0.0472444 0.711029,0.141733 0.271655,0.126379 0.41457,0.3189 0.427562,0.576382 0.00944889,0.261025 -0.0992133,0.47835 -0.328349,0.649611l-1.05591 0 0.344884 -0.784257 -0.673233 0 -0.261025 0.879927c-0.0153544,0.0519689 -0.02126,0.0980322 -0.02126,0.139371 0,0.196064 0.137009,0.295278 0.413389,0.295278l2.48624 0zm4.24255 0c-0.1063,0.389767 -0.366144,0.583469 -0.780714,0.583469l-1.21418 0c-0.35079,0 -0.523232,-0.126379 -0.517326,-0.379137 -0.232679,0.314175 -0.546854,0.470082 -0.940164,0.470082 -0.256301,0 -0.465358,-0.0814966 -0.624808,-0.246852 -0.165355,-0.171261 -0.248033,-0.401578 -0.248033,-0.694493 0,-0.527956 0.186615,-0.941345 0.561028,-1.24135 0.32953,-0.261025 0.734651,-0.389767 1.21418,-0.389767l0.663784 0 0.59528 -1.92875 1.16103 0 -1.18702 3.8268 1.31694 0zm-2.06222 -1.31458l-0.810242 0 -0.240947 0.784257c-0.0224411,0.0732289 -0.0330711,0.139371 -0.0330711,0.198427 0,0.162993 0.0897644,0.266931 0.270474,0.310632 0.0649611,0.0129922 0.200789,0.02126 0.408664,0.02126l0.405121 -1.31458zm10.8083 -3.23861l-0.490161 0.920085 -1.12914 0 -0.529138 1.73505 1.02757 0c-0.0307089,0.383861 -0.23386,0.578744 -0.609453,0.583469l-0.600004 0.00708666 -0.248033 0.806699c-0.220868,0.72284 -0.65906,1.08426 -1.3134,1.08426l-2.23112 0c0.0933077,-0.272837 0.174804,-0.465358 0.24449,-0.579925 0.124017,-0.20197 0.269293,-0.303545 0.434649,-0.303545 0.0248033,0 0.0519689,0.00236222 0.0791344,0.00826777l1.4882 0.270474 1.10316 -3.61184 -1.82363 0c-0.274018,0 -0.519689,0.0909455 -0.739375,0.274018 -0.237403,0.199608 -0.356695,0.450003 -0.356695,0.751186 0,0.209057 0.0614178,0.32953 0.185434,0.359058 0.0401578,-0.226773 0.144096,-0.408664 0.311813,-0.544492 0.157088,-0.131103 0.337798,-0.197245 0.54213,-0.197245 0.222049,0 0.412208,0.0779533 0.57402,0.23386 0.173623,0.165355 0.261025,0.379137 0.261025,0.642524 0,0.291734 -0.103938,0.519689 -0.311813,0.682682 -0.178348,0.141733 -0.400397,0.2126 -0.666146,0.2126 -0.409845,0 -0.752367,-0.109843 -1.02402,-0.32953 -0.301183,-0.245671 -0.452365,-0.58465 -0.452365,-1.01457 0,-0.644886 0.22323,-1.14922 0.668509,-1.51182 0.394491,-0.3189 0.88229,-0.47835 1.46694,-0.47835l4.13743 0zm3.20317 4.55318c-0.101576,0.389767 -0.36142,0.583469 -0.780714,0.583469l-1.20828 0c-0.343703,0 -0.516145,-0.126379 -0.516145,-0.379137 -0.231498,0.301183 -0.516145,0.453546 -0.853943,0.453546 -0.248033,0 -0.451184,-0.0885833 -0.604729,-0.263388 -0.155907,-0.175985 -0.23386,-0.405121 -0.23386,-0.686225 0,-0.509059 0.17008,-0.911817 0.51024,-1.20591 0.30827,-0.266931 0.688588,-0.400397 1.1445,-0.400397l1.82009 0 -0.600004 1.89804 1.32284 0zm-2.05513 -1.31458l-0.705123 0 -0.22323 0.8504c-0.0129922,0.05315 -0.0188978,0.102757 -0.0188978,0.146458 0,0.211419 0.18071,0.317719 0.54213,0.317719l0.405121 -1.31458zm6.03666 1.31458c-0.0472444,0.190159 -0.145277,0.337798 -0.292915,0.441735 -0.135828,0.0944889 -0.295278,0.141733 -0.474806,0.141733l-1.9193 0c-0.366144,0 -0.673233,-0.0708666 -0.921266,-0.211419 -0.314175,-0.178348 -0.472444,-0.445279 -0.472444,-0.801974 0,-0.0401578 0.00236222,-0.0803155 0.00708666,-0.121654 0.04252,-0.43583 0.240947,-0.77599 0.592918,-1.02166 0.310632,-0.217324 0.676776,-0.324805 1.09961,-0.324805l0.803155 0c0.18071,0 0.334254,0.0649611 0.462995,0.196064 0.126379,0.131103 0.190159,0.291734 0.190159,0.483074 0,0.19134 -0.06378,0.354333 -0.192521,0.487799 -0.128741,0.134647 -0.282285,0.200789 -0.460633,0.200789 -0.18071,0 -0.334254,-0.0673233 -0.459452,-0.20197 -0.12756,-0.135828 -0.190159,-0.300002 -0.187797,-0.494885 0,0 0,-0.0295278 0,-0.0874022l-0.385042 0 -0.249214 0.806699c-0.02126,0.0685044 -0.03189,0.131103 -0.03189,0.185434 0,0.214962 0.14882,0.322443 0.442916,0.322443l2.44844 0zm4.18586 0c-0.0448822,0.20197 -0.142914,0.354333 -0.294097,0.459452 -0.119292,0.0838589 -0.24449,0.124017 -0.379137,0.124017l-1.33229 0c-0.311813,0 -0.468901,-0.114568 -0.468901,-0.342522 -0.165355,0.227954 -0.389767,0.342522 -0.672052,0.342522l-0.562209 0c-0.171261,0 -0.305908,-0.0507878 -0.401578,-0.152363 -0.0885833,-0.09567 -0.133466,-0.220868 -0.133466,-0.376774 0,-0.0874022 0.0153544,-0.177167 0.0448822,-0.270474l0.535043 -1.6819 1.15749 0 -0.596461 1.89804 0.647249 0 0.594099 -1.89804 1.1445 0 -0.581106 1.89804 1.29804 0zm2.45435 0c-0.05315,0.213781 -0.175985,0.37205 -0.367325,0.474806 -0.133466,0.0732289 -0.277561,0.108662 -0.429924,0.108662l-1.22836 0c-0.314175,0 -0.470082,-0.122836 -0.470082,-0.368507 0,-0.06378 0.01063,-0.134647 0.0342522,-0.214962l1.18229 -3.81853 1.12914 0 -1.18938 3.81853 1.33938 0zm2.8075 0c-0.0992133,0.389767 -0.364963,0.583469 -0.79725,0.583469l-1.62521 0c-0.314175,0 -0.472444,-0.126379 -0.472444,-0.379137 0,-0.0625989 0.0118111,-0.131103 0.0366144,-0.204332l0.40394 -1.31458 -0.523232 0 0.20197 -0.583469c0.37205,-0.109843 0.647249,-0.249214 0.827959,-0.420475 0.204332,-0.19134 0.421657,-0.540949 0.653154,-1.0441l0.621264 0 -0.448822 1.46458 0.822053 0c-0.131103,0.388585 -0.399215,0.583469 -0.803155,0.583469l-0.210238 0 -0.399215 1.31458 1.71261 0zm4.24137 0c-0.125198,0.389767 -0.360239,0.583469 -0.703942,0.583469l-0.777171 0c-0.185434,0.575201 -0.380318,1.00158 -0.583469,1.27796 -0.285829,0.385042 -0.638981,0.577563 -1.06182,0.577563 -0.26575,0 -0.470082,-0.0885833 -0.615359,-0.266931 -0.125198,-0.155907 -0.187797,-0.356695 -0.187797,-0.602366 0,-0.193702 0.0366144,-0.383861 0.109843,-0.565752 0.07441,-0.183072 0.17008,-0.322443 0.288191,-0.420475l-0.242128 0c-0.139371,0 -0.256301,-0.0496066 -0.348428,-0.147639 -0.0921266,-0.0980322 -0.139371,-0.222049 -0.139371,-0.369688 0,-0.0685044 0.01063,-0.13819 0.03189,-0.209057l0.553941 -1.75513 1.15867 0 -0.596461 1.89804 0.647249 0 0.585831 -1.89804 1.15158 0 -0.588193 1.89804 1.31694 0zm-2.66813 0.682682c-0.139371,0 -0.269293,0.0909455 -0.389767,0.271655 -0.120473,0.181891 -0.179529,0.362601 -0.179529,0.54213 0,0.160631 0.0614178,0.290553 0.184253,0.387404l0.385042 -1.20119zm10.2272 -4.34413c0,0.25512 -0.0885833,0.470082 -0.264569,0.644886 -0.167718,0.165355 -0.364963,0.249214 -0.590555,0.249214 -0.226773,0 -0.426381,-0.0838589 -0.59528,-0.249214 -0.177167,-0.174804 -0.264569,-0.389767 -0.264569,-0.644886 0,-0.0862211 0.00826777,-0.158269 0.0248033,-0.219687 -0.454728,0.00472444 -0.868116,0.275199 -1.23899,0.810242 -0.349609,0.506696 -0.523232,1.02757 -0.523232,1.56261 0,1.00513 0.572839,1.50828 1.71733,1.50828l1.60395 0c-0.0661422,0.389767 -0.324805,0.583469 -0.774809,0.583469l-1.17639 0c-0.73347,0 -1.32757,-0.121654 -1.78466,-0.364963 -0.62717,-0.336617 -0.937802,-0.88229 -0.930715,-1.6382 0.00472444,-0.424019 0.11693,-0.848037 0.34016,-1.27206 0.304727,-0.578744 0.735832,-1.03583 1.29568,-1.37245 0.540949,-0.325987 1.11733,-0.48898 1.72678,-0.48898l0.6378 0c0.205513,0 0.389767,0.0897644 0.55276,0.270474 0.161812,0.179529 0.24449,0.386223 0.24449,0.621264zm5.27366 1.7634c-0.0838589,0.388585 -0.338979,0.583469 -0.764179,0.583469l-1.99608 0c0.0708666,0.0543311 0.12756,0.151182 0.172442,0.292915 0.0448822,0.144096 0.0625989,0.266931 0.0543311,0.37205 -0.0295278,0.406302 -0.186615,0.725202 -0.46772,0.955519 -0.270474,0.222049 -0.621264,0.334254 -1.05237,0.336617 -0.501972,0.00472444 -0.888195,-0.108662 -1.15749,-0.34016 -0.239765,-0.204332 -0.360239,-0.472444 -0.360239,-0.806699 0,-0.0661422 0.00590555,-0.132284 0.0165355,-0.196064 0.0555122,-0.368507 0.213781,-0.656698 0.477169,-0.866935 0.281104,-0.220868 0.655516,-0.330711 1.12324,-0.330711l3.95436 0zm-3.47365 0.583469l-0.729926 0 -0.28701 0.93544c-0.0141733,0.0484255 -0.0224411,0.0944889 -0.0224411,0.13819 0,0.209057 0.17008,0.314175 0.51024,0.314175 0.0401578,0 0.0755911,-0.00118111 0.105119,-0.00354333l0.424019 -1.38426zm8.08943 1.31458c-0.0614178,0.389767 -0.302364,0.583469 -0.724021,0.583469l-1.29332 0c-0.101576,0 -0.196064,-0.0484255 -0.282285,-0.144096 -0.0862211,-0.09567 -0.128741,-0.204332 -0.128741,-0.325987 0,-0.0389767 0.00472444,-0.0767722 0.0118111,-0.113387 0.0472444,-0.179529 0.118111,-0.441735 0.211419,-0.785439l-1.07717 1.03347c-0.271655,0.257482 -0.505515,0.387404 -0.699218,0.387404 -0.289372,0 -0.432287,-0.125198 -0.432287,-0.373231 0,-0.0791344 0.0153544,-0.167718 0.0472444,-0.262207l0.25512 -0.785439 -1.26851 1.213c-0.108662,0.103938 -0.24449,0.155907 -0.405121,0.155907l-0.650792 0 0.761816 -2.48151 1.15158 0 -0.360239 1.16694 0.97796 -0.918904c0.24449,-0.232679 0.518508,-0.347247 0.822053,-0.347247 0.251577,0 0.376774,0.111024 0.376774,0.331892 0,0.06378 -0.0118111,0.133466 -0.0342522,0.207875l-0.230317 0.726383 0.953156 -0.927172c0.231498,-0.225592 0.48898,-0.338979 0.771265,-0.338979 0.268112,0 0.401578,0.129922 0.401578,0.389767 0,0.0874022 -0.0177167,0.186615 -0.0507878,0.292915l-0.411027 1.31458 1.30631 0zm6.24099 0c-0.0614178,0.389767 -0.302364,0.583469 -0.724021,0.583469l-1.29332 0c-0.102757,0 -0.196064,-0.0484255 -0.283467,-0.144096 -0.08504,-0.09567 -0.12756,-0.204332 -0.12756,-0.325987 0,-0.0389767 0.00354333,-0.0767722 0.0118111,-0.113387 0.0472444,-0.179529 0.11693,-0.441735 0.211419,-0.785439l-1.07717 1.03347c-0.272837,0.257482 -0.505515,0.387404 -0.699218,0.387404 -0.289372,0 -0.432287,-0.125198 -0.432287,-0.373231 0,-0.0791344 0.0153544,-0.167718 0.0472444,-0.262207l0.25512 -0.785439 -1.26851 1.213c-0.108662,0.103938 -0.24449,0.155907 -0.405121,0.155907l-0.650792 0 0.761816 -2.48151 1.15158 0 -0.360239 1.16694 0.97796 -0.918904c0.24449,-0.232679 0.518508,-0.347247 0.822053,-0.347247 0.251577,0 0.376774,0.111024 0.376774,0.331892 0,0.06378 -0.0118111,0.133466 -0.0354333,0.207875l-0.229135 0.726383 0.953156 -0.927172c0.231498,-0.225592 0.48898,-0.338979 0.771265,-0.338979 0.268112,0 0.401578,0.129922 0.401578,0.389767 0,0.0874022 -0.0177167,0.186615 -0.0507878,0.292915l-0.412208 1.31458 1.30749 0zm2.19214 -3.39569c0,0.243309 -0.0814966,0.450003 -0.246852,0.621264 -0.164174,0.168899 -0.362601,0.25512 -0.594099,0.25512 -0.236222,0 -0.43583,-0.0862211 -0.601185,-0.25512 -0.165355,-0.171261 -0.246852,-0.377955 -0.246852,-0.621264 0,-0.240947 0.0814966,-0.44646 0.246852,-0.61654 0.165355,-0.171261 0.364963,-0.256301 0.601185,-0.256301 0.231498,0 0.429924,0.08504 0.594099,0.256301 0.165355,0.17008 0.246852,0.375593 0.246852,0.61654zm0.229135 3.39569c-0.0543311,0.213781 -0.168899,0.37205 -0.343703,0.474806 -0.125198,0.0732289 -0.261025,0.108662 -0.407483,0.108662l-1.25906 0c-0.304727,0 -0.455909,-0.145277 -0.455909,-0.438192 0,-0.0826777 0.0153544,-0.171261 0.0448822,-0.26575l0.555122 -1.77757 1.15631 0 -0.589374 1.89804 1.29922 0zm2.83467 0c-0.100394,0.389767 -0.364963,0.583469 -0.79725,0.583469l-1.62521 0c-0.315357,0 -0.472444,-0.126379 -0.472444,-0.379137 0,-0.0625989 0.0118111,-0.131103 0.0354333,-0.204332l0.405121 -1.31458 -0.523232 0 0.200789 -0.583469c0.37205,-0.109843 0.647249,-0.249214 0.827959,-0.420475 0.204332,-0.19134 0.422838,-0.540949 0.654335,-1.0441l0.621264 0 -0.450003 1.46458 0.823234 0c-0.132284,0.388585 -0.399215,0.583469 -0.803155,0.583469l-0.211419 0 -0.398034 1.31458 1.71261 0zm2.83348 0c-0.100394,0.389767 -0.366144,0.583469 -0.79725,0.583469l-1.62639 0c-0.314175,0 -0.471263,-0.126379 -0.471263,-0.379137 0,-0.0625989 0.0118111,-0.131103 0.0354333,-0.204332l0.405121 -1.31458 -0.523232 0 0.200789 -0.583469c0.37205,-0.109843 0.647249,-0.249214 0.827959,-0.420475 0.204332,-0.19134 0.421657,-0.540949 0.654335,-1.0441l0.621264 0 -0.450003 1.46458 0.823234 0c-0.132284,0.388585 -0.400397,0.583469 -0.803155,0.583469l-0.211419 0 -0.398034 1.31458 1.71261 0zm4.00633 0c-0.0448822,0.187797 -0.147639,0.334254 -0.307089,0.441735 -0.141733,0.0944889 -0.304727,0.141733 -0.487799,0.141733l-1.77521 0c-1.03229,0 -1.54962,-0.355514 -1.54962,-1.06891 0,-0.458271 0.177167,-0.817329 0.530319,-1.07835 0.303545,-0.222049 0.664965,-0.334254 1.08308,-0.334254l0.462995 0c0.269293,0 0.506696,0.0472444 0.709848,0.141733 0.271655,0.126379 0.41457,0.3189 0.427562,0.576382 0.00944889,0.261025 -0.0992133,0.47835 -0.328349,0.649611l-1.05591 0 0.344884 -0.784257 -0.673233 0 -0.261025 0.879927c-0.0153544,0.0519689 -0.02126,0.0980322 -0.02126,0.139371 0,0.196064 0.13819,0.295278 0.413389,0.295278l2.48742 0zm4.24137 0c-0.1063,0.389767 -0.366144,0.583469 -0.780714,0.583469l-1.21418 0c-0.35079,0 -0.522051,-0.126379 -0.517326,-0.379137 -0.232679,0.314175 -0.546854,0.470082 -0.940164,0.470082 -0.256301,0 -0.465358,-0.0814966 -0.623626,-0.246852 -0.165355,-0.171261 -0.249214,-0.401578 -0.249214,-0.694493 0,-0.527956 0.186615,-0.941345 0.561028,-1.24135 0.32953,-0.261025 0.734651,-0.389767 1.21418,-0.389767l0.663784 0 0.59528 -1.92875 1.16103 0 -1.18584 3.8268 1.31576 0zm-2.06222 -1.31458l-0.810242 0 -0.240947 0.784257c-0.0224411,0.0732289 -0.0330711,0.139371 -0.0330711,0.198427 0,0.162993 0.0909455,0.266931 0.271655,0.310632 0.06378,0.0129922 0.199608,0.02126 0.407483,0.02126l0.405121 -1.31458zm9.77605 -2.36222c0,0.239765 -0.0826777,0.44646 -0.246852,0.61654 -0.165355,0.171261 -0.364963,0.256301 -0.601185,0.256301 -0.231498,0 -0.429924,-0.08504 -0.594099,-0.256301 -0.165355,-0.17008 -0.246852,-0.376774 -0.246852,-0.61654 0,-0.112206 0.0141733,-0.209057 0.0448822,-0.291734l-0.376774 0c-0.120473,0 -0.22323,0.0566933 -0.30827,0.173623 -0.0838589,0.115749 -0.125198,0.243309 -0.125198,0.385042 0,0.114568 0.0342522,0.277561 0.101576,0.490161 0.0685044,0.213781 0.102757,0.376774 0.102757,0.491342 0,0.135828 -0.124017,0.272837 -0.370869,0.408664 -0.354333,0.194883 -0.583469,0.342522 -0.687406,0.442916 -0.249214,0.237403 -0.373231,0.551579 -0.373231,0.940164 0,0.292915 0.145277,0.483074 0.433468,0.571658 0.141733,0.0437011 0.390948,0.0649611 0.742919,0.0649611l2.32443 0c-0.0283467,0.187797 -0.125198,0.335435 -0.290553,0.445279 -0.145277,0.0921266 -0.307089,0.13819 -0.487799,0.13819l-2.61734 0c-0.390948,0 -0.721659,-0.0767722 -0.992133,-0.230317 -0.347247,-0.199608 -0.522051,-0.498429 -0.522051,-0.896463 0,-0.434649 0.190159,-0.82914 0.566933,-1.18702 0.310632,-0.292915 0.675595,-0.505515 1.09725,-0.638981 -0.121654,-0.304727 -0.181891,-0.581106 -0.181891,-0.82914 0,-0.474806 0.218505,-0.832683 0.656698,-1.07245 0.337798,-0.188978 0.739375,-0.282285 1.20473,-0.282285l0.973235 0c0.213781,0 0.396853,0.0874022 0.548035,0.261025 0.150001,0.173623 0.225592,0.379137 0.225592,0.615359zm4.08546 3.6768c-0.1063,0.389767 -0.366144,0.583469 -0.780714,0.583469l-1.21418 0c-0.35079,0 -0.522051,-0.126379 -0.517326,-0.379137 -0.232679,0.314175 -0.546854,0.470082 -0.938983,0.470082 -0.257482,0 -0.466539,-0.0814966 -0.624808,-0.246852 -0.165355,-0.171261 -0.249214,-0.401578 -0.249214,-0.694493 0,-0.527956 0.186615,-0.941345 0.561028,-1.24135 0.32953,-0.261025 0.734651,-0.389767 1.21418,-0.389767l0.663784 0 0.59528 -1.92875 1.16103 0 -1.18584 3.8268 1.31576 0zm-2.06222 -1.31458l-0.809061 0 -0.242128 0.784257c-0.02126,0.0732289 -0.0330711,0.139371 -0.0330711,0.198427 0,0.162993 0.0909455,0.266931 0.271655,0.310632 0.06378,0.0129922 0.199608,0.02126 0.407483,0.02126l0.405121 -1.31458zm6.27997 1.31458c-0.0448822,0.20197 -0.142914,0.354333 -0.294097,0.459452 -0.118111,0.0838589 -0.24449,0.124017 -0.377955,0.124017l-1.33347 0c-0.311813,0 -0.468901,-0.114568 -0.468901,-0.342522 -0.165355,0.227954 -0.389767,0.342522 -0.672052,0.342522l-0.561028 0c-0.172442,0 -0.305908,-0.0507878 -0.401578,-0.152363 -0.0897644,-0.09567 -0.134647,-0.220868 -0.134647,-0.376774 0,-0.0874022 0.0153544,-0.177167 0.0448822,-0.270474l0.535043 -1.6819 1.15749 0 -0.59528 1.89804 0.647249 0 0.592918 -1.89804 1.1445 0 -0.581106 1.89804 1.29804 0zm3.97444 0c-0.0472444,0.190159 -0.145277,0.337798 -0.292915,0.441735 -0.135828,0.0944889 -0.294097,0.141733 -0.474806,0.141733l-1.9193 0c-0.366144,0 -0.673233,-0.0708666 -0.921266,-0.211419 -0.314175,-0.178348 -0.471263,-0.445279 -0.471263,-0.801974 0,-0.0401578 0.00118111,-0.0803155 0.00590555,-0.121654 0.04252,-0.43583 0.240947,-0.77599 0.592918,-1.02166 0.310632,-0.217324 0.676776,-0.324805 1.09961,-0.324805l0.803155 0c0.18071,0 0.334254,0.0649611 0.462995,0.196064 0.126379,0.131103 0.190159,0.291734 0.190159,0.483074 0,0.19134 -0.06378,0.354333 -0.192521,0.487799 -0.128741,0.134647 -0.282285,0.200789 -0.460633,0.200789 -0.18071,0 -0.334254,-0.0673233 -0.459452,-0.20197 -0.12756,-0.135828 -0.190159,-0.300002 -0.187797,-0.494885 0,0 0,-0.0295278 0,-0.0874022l-0.385042 0 -0.249214 0.806699c-0.0200789,0.0685044 -0.03189,0.131103 -0.03189,0.185434 0,0.214962 0.14882,0.322443 0.442916,0.322443l2.44844 0zm4.07365 0c-0.102757,0.389767 -0.362601,0.583469 -0.781895,0.583469l-1.2071 0c-0.343703,0 -0.517326,-0.126379 -0.517326,-0.379137 -0.230317,0.301183 -0.514964,0.453546 -0.853943,0.453546 -0.248033,0 -0.450003,-0.0885833 -0.604729,-0.263388 -0.155907,-0.175985 -0.232679,-0.405121 -0.232679,-0.686225 0,-0.509059 0.17008,-0.911817 0.51024,-1.20591 0.30827,-0.266931 0.688588,-0.400397 1.14332,-0.400397l1.82009 0 -0.598823 1.89804 1.32284 0zm-2.05513 -1.31458l-0.705123 0 -0.22323 0.8504c-0.0129922,0.05315 -0.0200789,0.102757 -0.0200789,0.146458 0,0.211419 0.18071,0.317719 0.54213,0.317719l0.406302 -1.31458zm4.88271 1.31458c-0.100394,0.389767 -0.366144,0.583469 -0.79725,0.583469l-1.62639 0c-0.314175,0 -0.471263,-0.126379 -0.471263,-0.379137 0,-0.0625989 0.0118111,-0.131103 0.0354333,-0.204332l0.405121 -1.31458 -0.523232 0 0.200789 -0.583469c0.37205,-0.109843 0.647249,-0.249214 0.827959,-0.420475 0.204332,-0.19134 0.422838,-0.540949 0.654335,-1.0441l0.621264 0 -0.450003 1.46458 0.823234 0c-0.132284,0.388585 -0.399215,0.583469 -0.803155,0.583469l-0.211419 0 -0.398034 1.31458 1.71261 0zm2.19805 -3.39569c0,0.243309 -0.0814966,0.450003 -0.246852,0.621264 -0.164174,0.168899 -0.362601,0.25512 -0.594099,0.25512 -0.236222,0 -0.437011,-0.0862211 -0.601185,-0.25512 -0.165355,-0.171261 -0.246852,-0.377955 -0.246852,-0.621264 0,-0.240947 0.0814966,-0.44646 0.246852,-0.61654 0.164174,-0.171261 0.364963,-0.256301 0.601185,-0.256301 0.231498,0 0.429924,0.08504 0.594099,0.256301 0.165355,0.17008 0.246852,0.375593 0.246852,0.61654zm0.229135 3.39569c-0.0543311,0.213781 -0.17008,0.37205 -0.343703,0.474806 -0.125198,0.0732289 -0.261025,0.108662 -0.407483,0.108662l-1.25906 0c-0.304727,0 -0.455909,-0.145277 -0.455909,-0.438192 0,-0.0826777 0.0153544,-0.171261 0.0448822,-0.26575l0.553941 -1.77757 1.15749 0 -0.590555 1.89804 1.3004 0zm5.42484 -1.89804c-0.08504,0.388585 -0.338979,0.583469 -0.764179,0.583469l-1.99608 0c0.0708666,0.0543311 0.12756,0.151182 0.172442,0.292915 0.0437011,0.144096 0.0625989,0.266931 0.0543311,0.37205 -0.0295278,0.406302 -0.186615,0.725202 -0.46772,0.955519 -0.270474,0.222049 -0.621264,0.334254 -1.05237,0.336617 -0.501972,0.00472444 -0.888195,-0.108662 -1.15749,-0.34016 -0.239765,-0.204332 -0.360239,-0.472444 -0.360239,-0.806699 0,-0.0661422 0.00472444,-0.132284 0.0165355,-0.196064 0.0555122,-0.368507 0.213781,-0.656698 0.477169,-0.866935 0.281104,-0.220868 0.655516,-0.330711 1.12324,-0.330711l3.95436 0zm-3.47365 0.583469l-0.729926 0 -0.28701 0.93544c-0.0141733,0.0484255 -0.0224411,0.0944889 -0.0224411,0.13819 0,0.209057 0.17008,0.314175 0.51024,0.314175 0.0401578,0 0.0755911,-0.00118111 0.105119,-0.00354333l0.424019 -1.38426zm6.2091 1.31458c-0.0555122,0.213781 -0.177167,0.37205 -0.366144,0.474806 -0.134647,0.0732289 -0.277561,0.108662 -0.431105,0.108662l-1.27206 0c-0.290553,0 -0.43583,-0.108662 -0.43583,-0.328349 0,-0.0720478 0.0141733,-0.158269 0.0437011,-0.25512l0.243309 -0.785439 -1.09725 1.063c-0.257482,0.204332 -0.468901,0.305908 -0.634256,0.305908l-0.585831 0 0.760635 -2.48151 1.15158 0 -0.36142 1.16694 0.973235 -0.911817c0.263388,-0.245671 0.549216,-0.363782 0.857486,-0.354333 0.207875,0.01063 0.311813,0.135828 0.311813,0.379137 0,0.0909455 -0.0165355,0.192521 -0.0507878,0.303545l-0.412208 1.31458 1.30513 0z"/>
 </g>
</svg>
