<svg id="Layer_1" data-name="Layer 1" xmlns="http://www.w3.org/2000/svg" viewBox="0 0 770.21 199.95"><defs><style>.cls-1{fill:#d01e3a;}.cls-1,.cls-2{fill-rule:evenodd;}.cls-2,.cls-3{fill:#fff;}</style></defs><path class="cls-1" d="M0,0H169.24V83.08H149.78v1.6c0,11.17,0,22.33,0,33.49a61.32,61.32,0,0,1-.41,6.64c-.66,5.78-3.76,8.39-9.6,8.21-5-.16-8.3-3.16-8.73-8.2-.26-3.08-.23-6.2-.46-9.29A84.49,84.49,0,0,0,129.47,105c-2.78-13.36-12.17-21.43-25.82-21.84C92.27,82.78,80.88,83,69.5,83a3.52,3.52,0,0,0-.76.19v64.55h2c8.55,0,17.1.06,25.66,0a82.33,82.33,0,0,0,9.28-.63A28.9,28.9,0,0,0,116,143.73c-5.18-5.13-6.92-11.54-7.5-18.78-2.09,3.13-4.6,5.17-7.83,5.61-3.91.54-7.9.49-11.94.7V99.62c2.67,0,5.23-.19,7.75,0,9.15.81,13.56,5.33,14.09,14.5.26,4.37-.09,8.78.3,13.12.9,10,6.13,17.48,16.39,20.31a48.79,48.79,0,0,0,25,.23c7.56-1.86,12.94-6.18,15.6-13.48l-.37,3.37c-7.89,35-42,61.38-82.9,61.38s-75-26.36-82.9-61.38L.06,122.78H0V56.66L52.38,70.6a5.82,5.82,0,1,0,3-11.24L0,44.6V37L52.38,51a5.82,5.82,0,1,0,3-11.24L0,25V17.45l52.38,14a5.86,5.86,0,0,0,3-11.32L0,5.32V0ZM114.81,83.06c7.65,3.44,12.61,9.28,15.65,17.37V83.06Z"/><path class="cls-2" d="M274.93,171.51c0,17.11-7,28.44-25.13,28.44-17.41,0-24-11.08-24-27.42V131.3h7.81V172c0,5.23.78,11.45,4.18,15.65,3.17,3.91,8,5.06,12.85,5.06,12.57,0,16.43-8.61,16.43-20.06V131.3h7.82v40.21Zm29.51-27.24c0,.9,0,1.81,0,2.71v51.84h-7.82V131.3h8l36.19,52.56c.37.56.74,1.12,1.1,1.69,0-.09,0-.17,0-.26-.06-1.4-.08-2.81-.08-4.22V131.3h7.9v67.52h-7.63l-36.82-53.2c-.3-.45-.6-.9-.89-1.35Zm75.73,54.55h-7.82V131.3h7.82v67.52Zm43.36-11.58c.28-1,.6-1.93,1-2.88L444.1,131.3h8.44l-25.62,67.52h-7.16L395.18,131.3h8.67l18.83,53.15c.33.92.6,1.85.85,2.79Zm51.85-48.59V161h24.07v7.25H475.38v23.3h27.45v7.26H467.56V131.3h33.8v7.35Zm54.5,31.49v28.68h-7.81V131.3h19.79a24.4,24.4,0,0,1,7.45,1.14,19.82,19.82,0,0,1,6.44,3.4,16.9,16.9,0,0,1,4.57,5.7,17.68,17.68,0,0,1,1.72,7.94,19.7,19.7,0,0,1-1.11,6.72,17.41,17.41,0,0,1-3.16,5.47,18.44,18.44,0,0,1-4.94,4,22.41,22.41,0,0,1-4.59,2,10.29,10.29,0,0,1,.86.61,14.89,14.89,0,0,1,2.25,2.24,25.29,25.29,0,0,1,2.11,2.93c.76,1.21,1.47,2.47,2.13,3.73l11.73,21.66h-9.1l-10.14-19.34a36.82,36.82,0,0,0-2.79-4.58,13.84,13.84,0,0,0-2.66-2.85,8.54,8.54,0,0,0-2.85-1.45,12.63,12.63,0,0,0-3.51-.46ZM597.3,200a32.36,32.36,0,0,1-3.81-.26q-2.24-.27-4.44-.75a40.1,40.1,0,0,1-4.29-1.19,15.77,15.77,0,0,1-3.4-1.54L581,196V186.6l1.37,1a22.19,22.19,0,0,0,3.52,2.14,27.15,27.15,0,0,0,4,1.61,27.93,27.93,0,0,0,4.06,1,24.25,24.25,0,0,0,3.9.33c3.5,0,7.79-.48,10.65-2.7a9.07,9.07,0,0,0,3.38-7.62,10.41,10.41,0,0,0-.8-4.23,10.58,10.58,0,0,0-2.5-3.37,26.66,26.66,0,0,0-4.49-3.26c-2.18-1.3-4.37-2.55-6.59-3.78-2.47-1.36-4.95-2.79-7.29-4.38a27.15,27.15,0,0,1-5.06-4.32,14.8,14.8,0,0,1-3-4.89,17.39,17.39,0,0,1-1-5.94,15.82,15.82,0,0,1,1.8-7.57,17.62,17.62,0,0,1,4.82-5.66,22.39,22.39,0,0,1,7-3.57,28.89,28.89,0,0,1,8.52-1.23,35.35,35.35,0,0,1,13.32,2.23l.52.22v8.78l-1.28-.73a26.06,26.06,0,0,0-13.23-3.24,19.83,19.83,0,0,0-5.31.67,13.55,13.55,0,0,0-4.26,2,9.34,9.34,0,0,0-2.81,3.15,8.85,8.85,0,0,0-1,4.34,10.9,10.9,0,0,0,.69,4.11,9.79,9.79,0,0,0,2.26,3.22,22.15,22.15,0,0,0,4.23,3.17c2.19,1.29,4.41,2.52,6.65,3.72a82,82,0,0,1,7.27,4.34,29.39,29.39,0,0,1,5.27,4.49,17,17,0,0,1,3.22,5.09,16.05,16.05,0,0,1,1.06,6,18.11,18.11,0,0,1-1.68,8,15.64,15.64,0,0,1-4.76,5.76,21.37,21.37,0,0,1-7.16,3.4,33.63,33.63,0,0,1-9,1.13Zm49.56-1.13H639V131.3h7.82v67.52ZM690,138.65v60.17h-7.82V138.65h-19V131.3H709v7.35Zm58.23,34.88v25.29H740.4V173.66L719.19,131.3H728l15.29,31.22c.27.56.52,1.14.76,1.71l.39,1s0-.09.07-.14c.39-.85.81-1.7,1.25-2.51l16-31.25h8.45l-22,42.23ZM529.88,138.65v24.24h10.06a17.32,17.32,0,0,0,5.76-.91,12.81,12.81,0,0,0,4.41-2.58,11.35,11.35,0,0,0,2.81-4,13.39,13.39,0,0,0,1-5.34,10.59,10.59,0,0,0-3.4-8.35c-2.73-2.42-6.57-3.06-10.1-3.06Z"/><path class="cls-3" d="M225.65,102.2V0h36.23q54.44,0,54.44,49.82,0,23.87-14.87,38.12T261.88,102.2Zm23-83.47V83.51H260.1q15,0,23.47-9t8.52-24.45q0-14.6-8.44-23c-5.65-5.59-13.53-8.39-23.7-8.39ZM391.8,102.2H370.49V91.71h-.29Q362.87,104,348.45,104c-7.08,0-12.65-2-16.71-6s-6.08-9.39-6.08-16.08q0-21.22,25.15-24.52l19.83-2.63q0-12-13-12a44.13,44.13,0,0,0-24.79,7.76v-17a55.27,55.27,0,0,1,12.87-4.28,67.16,67.16,0,0,1,14.86-1.85q31.2,0,31.21,31.14V102.2ZM370.64,72.54V67.63l-13.26,1.7q-11,1.42-11,9.93a8.2,8.2,0,0,0,2.65,6.3A10.38,10.38,0,0,0,356.31,88a13.4,13.4,0,0,0,10.34-4.37,15.9,15.9,0,0,0,4-11.1Zm86.6-23a19.45,19.45,0,0,0-9.49-2.22,13.73,13.73,0,0,0-11.48,5.38c-2.75,3.6-4.13,8.47-4.13,14.65V102.2H409.63v-73h22.51V42.77h.29q5.35-14.85,19.24-14.84a14.8,14.8,0,0,1,5.57.85V49.53Zm6.69,50.74V82A48.52,48.52,0,0,0,475,87a36.79,36.79,0,0,0,10.44,1.63A22.39,22.39,0,0,0,494.9,87c2.31-1.1,3.45-2.75,3.45-5a4.63,4.63,0,0,0-1.55-3.58,14.49,14.49,0,0,0-4-2.48,45.43,45.43,0,0,0-5.38-1.92c-1.94-.58-3.82-1.22-5.62-1.92a57.52,57.52,0,0,1-7.66-3.53,22.12,22.12,0,0,1-5.57-4.4,17.16,17.16,0,0,1-3.41-5.77,23.1,23.1,0,0,1-1.19-7.76,20.09,20.09,0,0,1,2.68-10.56,21.74,21.74,0,0,1,7.12-7.22,32.86,32.86,0,0,1,10.2-4.14,53.68,53.68,0,0,1,11.94-1.31,63.44,63.44,0,0,1,9.83.76,70.63,70.63,0,0,1,9.85,2.16V47.75A34.82,34.82,0,0,0,506.38,44a38.71,38.71,0,0,0-9.58-1.24,20.28,20.28,0,0,0-4.16.39,12.48,12.48,0,0,0-3.48,1.14,6,6,0,0,0-2.34,1.92A4.37,4.37,0,0,0,486,48.9a4.89,4.89,0,0,0,1.27,3.4,11.16,11.16,0,0,0,3.35,2.46,31.94,31.94,0,0,0,4.6,1.85l5,1.68a64.39,64.39,0,0,1,8.12,3.43,25.78,25.78,0,0,1,6.23,4.35,17.07,17.07,0,0,1,4,5.84,20.91,20.91,0,0,1,1.38,8A20.61,20.61,0,0,1,517.13,91a22.24,22.24,0,0,1-7.47,7.47,34.12,34.12,0,0,1-10.77,4.21A60.17,60.17,0,0,1,486.24,104a65.56,65.56,0,0,1-22.31-3.7ZM603,102.2H580.55V60.72q0-16-11.7-16a11.92,11.92,0,0,0-9.68,4.47,17.34,17.34,0,0,0-3.72,11.41V102.2H533V0h22.5V40h.29q8.28-12.58,22.45-12.6Q603,27.44,603,57.36V102.2Zm78.52,0H660.22V91.71h-.29Q652.6,104,638.18,104c-7.08,0-12.65-2-16.71-6s-6.08-9.39-6.08-16.08q0-21.22,25.15-24.52l19.83-2.63q0-12-13-12a44.13,44.13,0,0,0-24.79,7.76v-17a55.27,55.27,0,0,1,12.87-4.28,67.09,67.09,0,0,1,14.86-1.85q31.2,0,31.21,31.14V102.2ZM660.37,72.54V67.63l-13.26,1.7q-11,1.42-11,9.93a8.17,8.17,0,0,0,2.65,6.3A10.38,10.38,0,0,0,646,88a13.4,13.4,0,0,0,10.34-4.37,15.9,15.9,0,0,0,4-11.1ZM769.84,102.2H747.38V61.64q0-17-12.11-17a12,12,0,0,0-9.61,4.47,17.12,17.12,0,0,0-3.79,11.41V102.2H699.36v-73h22.51V40.77h.29q8.05-13.35,23.45-13.33,24.23,0,24.23,30.07Z"/></svg>