<?xml version="1.0" encoding="UTF-8" standalone="no"?>
<svg
   xmlns:dc="http://purl.org/dc/elements/1.1/"
   xmlns:cc="http://creativecommons.org/ns#"
   xmlns:rdf="http://www.w3.org/1999/02/22-rdf-syntax-ns#"
   xmlns:svg="http://www.w3.org/2000/svg"
   xmlns="http://www.w3.org/2000/svg"
   id="svg9"
   height="980.2876mm"
   width="710.67505mm"
   version="1.0">
  <metadata
     id="metadata13">
    <rdf:RDF>
      <cc:Work
         rdf:about="">
        <dc:format>image/svg+xml</dc:format>
        <dc:type
           rdf:resource="http://purl.org/dc/dcmitype/StillImage" />
      </cc:Work>
    </rdf:RDF>
  </metadata>
  <defs
     id="defs3">
    <pattern
       y="0"
       x="0"
       height="6"
       width="6"
       patternUnits="userSpaceOnUse"
       id="EMFhbasepattern" />
  </defs>
  <path
     id="path5"
     d="  M 0,-0.33333333   C 2686.3333,-0.33333333 2686.3333,-0.33333333 2686.3333,-0.33333333   C 2686.3333,1318.3333 2686.3333,1318.3333 2686.3333,1318.3333   C 2377.3333,1318.3333 2377.3333,1318.3333 2377.3333,1318.3333   C 2377.3333,1327.3333 2377.3333,1335 2377.3333,1344.3333   C 2377.3333,1521 2377.3333,1697.6667 2377.3333,1874.6667   C 2376,1910 2374.3333,1945.3333 2369.6667,1980.6667   C 2360.3333,2072.6667 2309.6667,2114.3333 2217.6667,2111.3333   C 2137.6667,2108 2085.3333,2060.3333 2079.3333,1980.6667   C 2074.6667,1931.3333 2076.3333,1882.3333 2071.6667,1833   C 2068.3333,1777.6667 2065.3333,1721 2054.6667,1665.6667   C 2010,1453.3333 1861,1326 1644.3333,1318.3333   C 1464.6667,1313.6667 1283.3333,1316.6667 1103.3333,1316.6667   C 1098.6667,1316.6667 1095.6667,1318.3333 1091,1319.6667   C 1091,1661 1091,2002 1091,2343.3333   C 1103.3333,2343.3333 1112.6667,2343.3333 1122,2343.3333   C 1258.6667,2343.3333 1394,2344.6667 1529,2343.3333   C 1578.3333,2343.3333 1627.3333,2340.3333 1676.6667,2334   C 1733.3333,2326.3333 1787.3333,2309.3333 1841,2280.3333   C 1759.6667,2198.6667 1732,2097.3333 1722.6667,1982   C 1689,2032.6667 1649,2065 1598.3333,2071.3333   C 1535.3333,2080.3333 1472.3333,2079 1407.6667,2083.6667   C 1407.6667,1911.3333 1407.6667,1747 1407.6667,1581   C 1450.6667,1581 1490.6667,1578 1532,1581   C 1676.6667,1595 1745.6667,1665.6667 1755,1811.6667   C 1759.6667,1880.6667 1753.3333,1951.3333 1759.6667,2019   C 1773.3333,2177.3333 1856.3333,2297 2019.3333,2341.6667   C 2151.3333,2378.6667 2285.3333,2378.6667 2417.3333,2346.3333   C 2537.3333,2315.6667 2621.6667,2248 2664.6667,2131.3333   C 2658.6667,2185 2658.6667,2185 2658.6667,2185   C 2532.6667,2741.3333 1991.6667,3159.3333 1343,3159.3333   C 694.66667,3159.3333 152,2741.3333 27.666667,2185   C 1.6666667,1948.3333 1.6666667,1948.3333 1.6666667,1948.3333   C 0,1948.3333 0,1948.3333 0,1948.3333   C 0,1939 0,1939 0,1939   C 0,898.66667 0,898.66667 0,898.66667   C 831.33333,1120 831.33333,1120 831.33333,1120   C 880.66667,1133.6667 931.33333,1104.6667 945,1055.3333   C 959,1006.3333 928.33333,955.66667 879,941.66667   C 0,708 0,708 0,708   C 0,586.66667 0,586.66667 0,586.66667   C 831.33333,808 831.33333,808 831.33333,808   C 880.66667,822 931.33333,792.66667 945,743.33333   C 959,694.33333 928.33333,643.66667 879,629.66667   C 0,396 0,396 0,396   C 0,276.33333 0,276.33333 0,276.33333   C 831.33333,499 831.33333,499 831.33333,499   C 880.66667,513 931.33333,483.66667 945,434.66667   C 959,384 928.33333,333 879,319.33333   C 0,84.333333 0,84.333333 0,84.333333   z  M 1822.6667,1318.3333   C 1904,1318.3333 1987,1318.3333 2070,1318.3333   C 2070,1407.3333 2070,1496.3333 2070,1593.3333   C 2022.3333,1465.6667 1944,1372 1822.6667,1318.3333   z "
     style="fill:#ffffff;fill-rule:evenodd;fill-opacity:1;stroke:none;" />
  <path
     id="path7"
     d="  M 236,3432.6667   C 205,3432.6667 205,3432.6667 205,3432.6667   C 205,3629.6667 205,3629.6667 205,3629.6667   C 180.66667,3629.6667 180.66667,3629.6667 180.66667,3629.6667   C 180.66667,3560.3333 180.66667,3560.3333 180.66667,3560.3333   C 180.66667,3560.3333 180.66667,3560.3333 180.66667,3560.3333   C 177.33333,3562 174.33333,3565 171.33333,3566.6667   C 166.66667,3568 162,3571 159,3571   C 154.33333,3574.3333 148.33333,3574.3333 143.66667,3575.6667   C 139,3577.3333 133,3577.3333 128.33333,3577.3333   C 116,3577.3333 106.66667,3575.6667 99,3571   C 90,3566.6667 83.666667,3562 79,3554.3333   C 73,3548 68.333333,3540.3333 65.333333,3531   C 62.333333,3522 60.666667,3512.6667 59,3503.6667   C 65.333333,3502 71.333333,3502 76,3499   C 80.666667,3495.6667 83.666667,3494.3333 86.666667,3491.3333   C 90,3488 91.333333,3485 93,3482   C 94.666667,3479 94.666667,3474.3333 94.666667,3471.3333   C 94.666667,3468 94.666667,3465 94.666667,3463.6667   C 93,3460.3333 93,3457.3333 91.333333,3454.3333   C 90,3449.6667 90,3446.6667 88.333333,3443.6667   C 85.333333,3439 83.666667,3436 80.666667,3432.6667   C 39.333333,3432.6667 39.333333,3432.6667 39.333333,3432.6667   C 39.333333,3409.6667 39.333333,3409.6667 39.333333,3409.6667   C 236,3409.6667 236,3409.6667 236,3409.6667   z  M 106.66667,3432.6667   C 110,3437.3333 113,3443.6667 116,3452.6667   C 117.66667,3459 117.66667,3465 117.66667,3472.6667   C 117.66667,3477.3333 117.66667,3482 116,3486.6667   C 116,3491.3333 113,3495.6667 110,3499   C 106.66667,3505 105.33333,3506.6667 100.66667,3509.6667   C 96,3514.3333 91.333333,3515.6667 85.333333,3519   C 88.333333,3525 90,3529.6667 93,3534.3333   C 96,3540.3333 99,3543.3333 102.33333,3546.6667   C 105.33333,3549.6667 110,3551 114.33333,3552.6667   C 119,3554.3333 123.66667,3554.3333 130,3554.3333   C 134.33333,3554.3333 139,3554.3333 143.66667,3552.6667   C 148.33333,3551 154.33333,3551 159,3548   C 162,3546.6667 166.66667,3543.3333 171.33333,3540.3333   C 174.33333,3537.3333 177.33333,3534.3333 180.66667,3529.6667   C 180.66667,3432.6667 180.66667,3432.6667 180.66667,3432.6667   z  M 342,3432.6667   C 282,3432.6667 282,3432.6667 282,3432.6667   C 282,3629.6667 282,3629.6667 282,3629.6667   C 259,3629.6667 259,3629.6667 259,3629.6667   C 259,3432.6667 259,3432.6667 259,3432.6667   C 236,3432.6667 236,3432.6667 236,3432.6667   C 236,3409.6667 236,3409.6667 236,3409.6667   C 342,3409.6667 342,3409.6667 342,3409.6667   z  M 279,3409.6667   C 257.33333,3409.6667 257.33333,3409.6667 257.33333,3409.6667   C 245,3389.6667 245,3389.6667 245,3389.6667   C 240.66667,3379 234.33333,3371.3333 231.33333,3363.6667   C 226.66667,3357.6667 222,3353 217.33333,3349.6667   C 213,3346.6667 209.66667,3343.6667 205,3343.6667   C 202,3343.6667 197.33333,3342 193,3342   C 165.33333,3342 165.33333,3342 165.33333,3342   C 165.33333,3319 165.33333,3319 165.33333,3319   C 191.33333,3319 191.33333,3319 191.33333,3319   C 196,3319 202,3319 206.66667,3319   C 211.33333,3320.6667 214.33333,3322 219,3323.6667   C 223.66667,3326.6667 228.33333,3330 231.33333,3336   C 236,3339 240.66667,3343.6667 245,3351.3333   C 248.33333,3357.6667 254.33333,3365.3333 259,3374.3333   C 265,3385.3333 269.66667,3396 277.33333,3408.3333   z  M 532.33333,3432.6667   C 503.33333,3432.6667 503.33333,3432.6667 503.33333,3432.6667   C 503.33333,3629.6667 503.33333,3629.6667 503.33333,3629.6667   C 477.33333,3629.6667 477.33333,3629.6667 477.33333,3629.6667   C 477.33333,3432.6667 477.33333,3432.6667 477.33333,3432.6667   C 411,3432.6667 411,3432.6667 411,3432.6667   C 411,3546.6667 411,3546.6667 411,3546.6667   C 411,3546.6667 411,3549.6667 411,3551   C 411,3552.6667 411,3554.3333 411,3557.3333   C 409.66667,3558.6667 408,3560.3333 408,3562   C 405,3563.3333 403.33333,3563.3333 402,3563.3333   C 398.66667,3563.3333 395.66667,3563.3333 392.66667,3560.3333   C 389.66667,3560.3333 386.33333,3557.3333 383.33333,3554.3333   C 380.33333,3551 377.33333,3549.6667 372.66667,3545   C 369.66667,3540.3333 368,3539 365,3534.3333   C 363.33333,3529.6667 362,3526.6667 359,3523.3333   C 359,3520.3333 357.33333,3515.6667 357.33333,3514.3333   C 357.33333,3511.3333 359,3509.6667 359,3508   C 360.33333,3506.6667 362,3505 365,3505   C 366.66667,3505 369.66667,3503.6667 372.66667,3503.6667   C 375.66667,3503.6667 378.66667,3503.6667 383.33333,3503.6667   C 388,3503.6667 388,3503.6667 388,3503.6667   C 388,3432.6667 388,3432.6667 388,3432.6667   C 342,3432.6667 342,3432.6667 342,3432.6667   C 342,3409.6667 342,3409.6667 342,3409.6667   C 532.33333,3409.6667 532.33333,3409.6667 532.33333,3409.6667   z  M 594,3508   C 587.66667,3508 584.66667,3506.6667 581.66667,3503.6667   C 578.66667,3500.3333 577,3495.6667 577,3491.3333   C 577,3488 578.66667,3483.6667 581.66667,3480.3333   C 584.66667,3477.3333 587.66667,3476 594,3476   C 597,3476 601.66667,3477.3333 604.66667,3480.3333   C 607.66667,3483.6667 609.33333,3488 609.33333,3491.3333   C 609.33333,3495.6667 607.66667,3500.3333 604.66667,3503.6667   C 601.66667,3506.6667 597,3508 594,3508   z  M 594,3632.6667   C 587.66667,3632.6667 584.66667,3629.6667 581.66667,3626.3333   C 578.66667,3623.3333 577,3620.3333 577,3615.6667   C 577,3611 578.66667,3608 581.66667,3605   C 584.66667,3600.3333 587.66667,3598.6667 594,3598.6667   C 597,3598.6667 601.66667,3600.3333 604.66667,3605   C 607.66667,3608 609.33333,3611 609.33333,3615.6667   C 609.33333,3620.3333 607.66667,3623.3333 604.66667,3626.3333   C 601.66667,3629.6667 597,3632.6667 594,3632.6667   z  M 1002.6667,3432.6667   C 847.66667,3432.6667 847.66667,3432.6667 847.66667,3432.6667   C 847.66667,3489.6667 847.66667,3489.6667 847.66667,3489.6667   C 847.66667,3489.6667 847.66667,3489.6667 847.66667,3489.6667   C 853.66667,3482 859.66667,3477.3333 867.66667,3474.3333   C 873.66667,3469.6667 881.33333,3466.6667 890.66667,3466.6667   C 898.33333,3466.6667 904.33333,3468 910.66667,3471.3333   C 916.66667,3474.3333 921.33333,3479 926,3483.6667   C 930.66667,3488 933.66667,3494.3333 936.66667,3502   C 939.66667,3508 939.66667,3515.6667 939.66667,3523.3333   C 939.66667,3532.6667 939.66667,3540.3333 935,3548   C 932,3555.6667 927.33333,3563.3333 922.66667,3568   C 918.33333,3574.3333 913.66667,3580.3333 907.33333,3585   C 901.33333,3589.6667 895.33333,3592.6667 889,3597.3333   C 875.33333,3574.3333 875.33333,3574.3333 875.33333,3574.3333   C 878.33333,3574.3333 879.66667,3571 883,3571   C 886,3568 889,3566.6667 892,3563.3333   C 895.33333,3562 898.33333,3558.6667 901.33333,3555.6667   C 903,3552.6667 906,3549.6667 909,3546.6667   C 912,3543.3333 913.66667,3539 915,3534.3333   C 916.66667,3531 916.66667,3526.6667 916.66667,3522   C 916.66667,3519 916.66667,3512.6667 915,3509.6667   C 913.66667,3506.6667 912,3502 909,3500.3333   C 907.33333,3497.3333 904.33333,3494.3333 901.33333,3494.3333   C 898.33333,3491.3333 895.33333,3491.3333 890.66667,3491.3333   C 886,3491.3333 881.33333,3492.6667 875.33333,3494.3333   C 870.66667,3497.3333 867.66667,3500.3333 863,3505   C 859.66667,3508 855.33333,3512.6667 853.66667,3517.3333   C 850.66667,3522 847.66667,3526.6667 847.66667,3529.6667   C 847.66667,3629.6667 847.66667,3629.6667 847.66667,3629.6667   C 823,3629.6667 823,3629.6667 823,3629.6667   C 823,3572.6667 823,3572.6667 823,3572.6667   C 823,3572.6667 823,3572.6667 823,3572.6667   C 821.33333,3574.3333 820,3575.6667 818.33333,3577.3333   C 815.33333,3578.6667 812.33333,3580.3333 809,3582   C 806,3583.3333 803,3585 798.33333,3586.3333   C 793.66667,3588 789,3588 784.66667,3588   C 775.33333,3588 767.66667,3586.3333 760,3583.3333   C 753.66667,3578.6667 746,3575.6667 741.33333,3569.6667   C 737,3563.3333 732.33333,3557.3333 729.33333,3549.6667   C 726,3542 724.66667,3532.6667 724.66667,3525   C 724.66667,3515.6667 726,3508 729.33333,3502   C 732.33333,3494.3333 735.33333,3488 740,3482   C 744.66667,3477.3333 750.66667,3474.3333 757,3471.3333   C 763,3468 770.66667,3466.6667 778.33333,3466.6667   C 783,3466.6667 787.66667,3468 792.33333,3468   C 796.66667,3469.6667 801.33333,3471.3333 804.33333,3474.3333   C 809,3476 812.33333,3477.3333 815.33333,3479   C 818.33333,3482 820,3483.6667 823,3485   C 823,3485 823,3485 823,3485   C 823,3432.6667 823,3432.6667 823,3432.6667   C 701.66667,3432.6667 701.66667,3432.6667 701.66667,3432.6667   C 701.66667,3409.6667 701.66667,3409.6667 701.66667,3409.6667   C 1002.6667,3409.6667 1002.6667,3409.6667 1002.6667,3409.6667   z  M 781.33333,3489.6667   C 775.33333,3489.6667 770.66667,3491.3333 767.66667,3494.3333   C 763,3495.6667 760,3499 757,3502   C 753.66667,3505 750.66667,3509.6667 750.66667,3514.3333   C 749.33333,3519 747.66667,3522 747.66667,3526.6667   C 747.66667,3532.6667 749.33333,3535.6667 750.66667,3540.3333   C 752.33333,3546.6667 753.66667,3549.6667 757,3554.3333   C 760,3557.3333 764.66667,3560.3333 767.66667,3563.3333   C 773.66667,3565 777,3565 783,3565   C 787.66667,3565 792.33333,3565 796.66667,3563.3333   C 801.33333,3562 806,3558.6667 809,3554.3333   C 813.66667,3551 818.33333,3546.6667 820,3540.3333   C 823,3534.3333 823,3526.6667 823,3519   C 823,3512.6667 823,3512.6667 823,3512.6667   C 821.33333,3509.6667 818.33333,3506.6667 815.33333,3503.6667   C 812.33333,3500.3333 809,3499 804.33333,3495.6667   C 801.33333,3494.3333 798.33333,3492.6667 793.66667,3491.3333   C 790.66667,3491.3333 786,3489.6667 781.33333,3489.6667   z  M 1233.3333,3432.6667   C 1173.3333,3432.6667 1173.3333,3432.6667 1173.3333,3432.6667   C 1173.3333,3629.6667 1173.3333,3629.6667 1173.3333,3629.6667   C 1150.3333,3629.6667 1150.3333,3629.6667 1150.3333,3629.6667   C 1150.3333,3546.6667 1150.3333,3546.6667 1150.3333,3546.6667   C 1070.3333,3546.6667 1070.3333,3546.6667 1070.3333,3546.6667   C 1070.3333,3563.3333 1070.3333,3563.3333 1070.3333,3563.3333   C 1070.3333,3566.6667 1070.3333,3569.6667 1068.6667,3571   C 1068.6667,3574.3333 1068.6667,3577.3333 1068.6667,3577.3333   C 1067.3333,3578.6667 1065.6667,3580.3333 1064.3333,3582   C 1064.3333,3582 1061,3582 1058,3582   C 1056.6667,3582 1053.3333,3582 1050.3333,3580.3333   C 1047.3333,3578.6667 1044.3333,3577.3333 1041,3574.3333   C 1038,3571 1033.3333,3568 1030.3333,3565   C 1027.3333,3562 1025.6667,3558.6667 1022.6667,3554.3333   C 1021.3333,3551 1019.6667,3548 1016.6667,3545   C 1016.6667,3540.3333 1015,3539 1015,3534.3333   C 1015,3532.6667 1015,3531 1016.6667,3529.6667   C 1016.6667,3529.6667 1018,3528 1019.6667,3526.6667   C 1021.3333,3526.6667 1022.6667,3526.6667 1024.3333,3525   C 1025.6667,3525 1027.3333,3525 1030.3333,3525   C 1047.3333,3525 1047.3333,3525 1047.3333,3525   C 1047.3333,3432.6667 1047.3333,3432.6667 1047.3333,3432.6667   C 1002.6667,3432.6667 1002.6667,3432.6667 1002.6667,3432.6667   C 1002.6667,3409.6667 1002.6667,3409.6667 1002.6667,3409.6667   C 1233.3333,3409.6667 1233.3333,3409.6667 1233.3333,3409.6667   z  M 1070.3333,3432.6667   C 1070.3333,3525 1070.3333,3525 1070.3333,3525   C 1150.3333,3525 1150.3333,3525 1150.3333,3525   C 1150.3333,3432.6667 1150.3333,3432.6667 1150.3333,3432.6667   z  M 1202.6667,3343.6667   C 1198,3339 1193.3333,3336 1188.6667,3334.3333   C 1187,3331.3333 1181,3330 1176.3333,3330   C 1170.3333,3330 1162.6667,3333 1159.3333,3339   C 1153.3333,3343.6667 1151.6667,3351.3333 1151.6667,3360.6667   C 1151.6667,3363.6667 1151.6667,3368.3333 1153.3333,3373   C 1153.3333,3377.3333 1155,3380.6667 1156.3333,3385.3333   C 1159.3333,3389.6667 1161,3394.3333 1162.6667,3397.3333   C 1165.6667,3402 1167.3333,3406.6667 1171.6667,3409.6667   C 1147.3333,3409.6667 1147.3333,3409.6667 1147.3333,3409.6667   C 1141,3402 1136.3333,3394.3333 1133.3333,3385.3333   C 1131.6667,3376 1128.6667,3366.6667 1128.6667,3359   C 1128.6667,3351.3333 1131.6667,3343.6667 1133.3333,3337.6667   C 1136.3333,3331.3333 1139.6667,3325.3333 1144,3322   C 1147.3333,3317.6667 1153.3333,3313 1159.3333,3311.3333   C 1164,3310 1170.3333,3308.3333 1176.3333,3308.3333   C 1185.6667,3308.3333 1191.6667,3310 1199.3333,3313   C 1205.6667,3316 1211.6667,3322 1218,3330   z  M 1453,3409.6667   C 1453,3432.6667 1453,3432.6667 1453,3432.6667   C 1423.6667,3432.6667 1423.6667,3432.6667 1423.6667,3432.6667   C 1423.6667,3629.6667 1423.6667,3629.6667 1423.6667,3629.6667   C 1397.6667,3629.6667 1397.6667,3629.6667 1397.6667,3629.6667   C 1397.6667,3529.6667 1397.6667,3529.6667 1397.6667,3529.6667   C 1314.6667,3529.6667 1314.6667,3529.6667 1314.6667,3529.6667   C 1310,3534.3333 1302.3333,3535.6667 1296.3333,3535.6667   C 1296.3333,3537.3333 1296.3333,3537.3333 1296.3333,3537.3333   C 1304,3551 1314.6667,3565 1325.3333,3578.6667   C 1337.6667,3591 1351.6667,3603.3333 1365.3333,3614   C 1348.6667,3632.6667 1348.6667,3632.6667 1348.6667,3632.6667   C 1340.6667,3626.3333 1333,3618.6667 1325.3333,3612.6667   C 1317.6667,3605 1311.6667,3597.3333 1304,3591   C 1297.6667,3582 1291.6667,3574.3333 1285.6667,3566.6667   C 1281,3558.6667 1274.6667,3551 1270,3543.3333   C 1265.6667,3535.6667 1261,3529.6667 1258,3522   C 1254.6667,3514.3333 1250,3508 1247,3502   C 1268.6667,3491.3333 1268.6667,3491.3333 1268.6667,3491.3333   C 1270,3495.6667 1271.6667,3499 1273.3333,3502   C 1274.6667,3505 1276.3333,3506.6667 1279.3333,3508   C 1281,3509.6667 1282.3333,3511.3333 1285.6667,3512.6667   C 1287,3512.6667 1288.6667,3512.6667 1290,3512.6667   C 1297.6667,3512.6667 1302.3333,3511.3333 1305.3333,3505   C 1310,3500.3333 1310,3494.3333 1310,3485   C 1310,3479 1310,3474.3333 1310,3469.6667   C 1308.6667,3465 1307,3460.3333 1305.3333,3456   C 1304,3451.3333 1302.3333,3446.6667 1301,3443.6667   C 1297.6667,3439 1296.3333,3436 1296.3333,3432.6667   C 1233.3333,3432.6667 1233.3333,3432.6667 1233.3333,3432.6667   C 1233.3333,3409.6667 1233.3333,3409.6667 1233.3333,3409.6667   z  M 1397.6667,3432.6667   C 1321,3432.6667 1321,3432.6667 1321,3432.6667   C 1325.3333,3440.3333 1328.6667,3449.6667 1330,3459   C 1333,3468 1334.6667,3477.3333 1334.6667,3485   C 1334.6667,3489.6667 1334.6667,3494.3333 1333,3497.3333   C 1331.6667,3502 1331.6667,3505 1330,3508   C 1330,3509.6667 1330,3509.6667 1330,3509.6667   C 1397.6667,3509.6667 1397.6667,3509.6667 1397.6667,3509.6667   z  M 1370,3632.6667   C 1376.3333,3629.6667 1384,3626.3333 1391.6667,3623.3333   C 1397.6667,3622 1407,3620.3333 1411.6667,3620.3333   C 1417.6667,3620.3333 1423.6667,3622 1428.3333,3623.3333   C 1434.6667,3625 1439.3333,3626.3333 1442.3333,3631   C 1447,3634 1450,3637.3333 1451.3333,3643.3333   C 1453,3648 1454.6667,3652.6667 1454.6667,3658.6667   C 1454.6667,3665 1453,3671 1450,3677   C 1448.3333,3681.6667 1445.3333,3686.3333 1439.3333,3691   C 1434.6667,3694 1428.3333,3698.6667 1420.6667,3700.3333   C 1414.6667,3701.6667 1405.3333,3704.6667 1396,3704.6667   C 1384,3704.6667 1374.6667,3701.6667 1367,3698.6667   C 1357.6667,3695.6667 1350,3692.6667 1342.3333,3688   C 1336.3333,3683.3333 1330,3678.6667 1324,3674   C 1319.3333,3668 1314.6667,3663.3333 1310,3657.3333   C 1324,3641.6667 1324,3641.6667 1324,3641.6667   C 1330,3648 1334.6667,3652.6667 1340.6667,3657.3333   C 1345.3333,3663.3333 1351.6667,3666.3333 1356.3333,3671   C 1362.3333,3674 1368.3333,3677 1373,3678.6667   C 1379.3333,3680.3333 1387,3681.6667 1396,3681.6667   C 1400.6667,3681.6667 1407,3680.3333 1411.6667,3678.6667   C 1417.6667,3677 1420.6667,3677 1423.6667,3674   C 1427,3672.6667 1428.3333,3669.3333 1430,3666.3333   C 1431.6667,3665 1431.6667,3661.6667 1431.6667,3658.6667   C 1431.6667,3654 1431.6667,3649.3333 1427,3646.3333   C 1423.6667,3643.3333 1417.6667,3643.3333 1411.6667,3643.3333   C 1407,3643.3333 1402.3333,3643.3333 1397.6667,3645   C 1391.6667,3646.3333 1385.3333,3649.3333 1380.6667,3652.6667   z  M 1794.3333,3432.6667   C 1671.3333,3432.6667 1671.3333,3432.6667 1671.3333,3432.6667   C 1671.3333,3489.6667 1671.3333,3489.6667 1671.3333,3489.6667   C 1671.3333,3489.6667 1671.3333,3489.6667 1671.3333,3489.6667   C 1676,3482 1683.6667,3477.3333 1689.6667,3474.3333   C 1697.3333,3469.6667 1705,3466.6667 1714.3333,3466.6667   C 1722,3466.6667 1728,3468 1734.3333,3471.3333   C 1740.3333,3474.3333 1745,3479 1749.6667,3483.6667   C 1754.3333,3488 1757.3333,3494.3333 1760.3333,3502   C 1762,3508 1763.3333,3515.6667 1763.3333,3523.3333   C 1763.3333,3532.6667 1762,3540.3333 1758.6667,3548   C 1755.6667,3555.6667 1751,3563.3333 1746.6667,3568   C 1742,3574.3333 1735.6667,3580.3333 1729.6667,3585   C 1723.3333,3589.6667 1719,3592.6667 1712.6667,3597.3333   C 1699,3574.3333 1699,3574.3333 1699,3574.3333   C 1702,3574.3333 1703.6667,3571 1706.6667,3571   C 1709.6667,3568 1712.6667,3566.6667 1715.6667,3563.3333   C 1719,3562 1722,3558.6667 1723.3333,3555.6667   C 1726.6667,3552.6667 1729.6667,3549.6667 1732.6667,3546.6667   C 1734.3333,3543.3333 1735.6667,3539 1739,3534.3333   C 1739,3531 1740.3333,3526.6667 1740.3333,3522   C 1740.3333,3519 1739,3512.6667 1739,3509.6667   C 1737.3333,3506.6667 1735.6667,3502 1732.6667,3500.3333   C 1729.6667,3497.3333 1726.6667,3494.3333 1723.3333,3494.3333   C 1722,3491.3333 1717.3333,3491.3333 1712.6667,3491.3333   C 1708,3491.3333 1703.6667,3492.6667 1699,3494.3333   C 1694.3333,3497.3333 1689.6667,3500.3333 1685,3505   C 1682,3508 1679,3512.6667 1676,3517.3333   C 1672.6667,3522 1671.3333,3526.6667 1671.3333,3529.6667   C 1671.3333,3629.6667 1671.3333,3629.6667 1671.3333,3629.6667   C 1646.6667,3629.6667 1646.6667,3629.6667 1646.6667,3629.6667   C 1646.6667,3572.6667 1646.6667,3572.6667 1646.6667,3572.6667   C 1646.6667,3572.6667 1646.6667,3572.6667 1646.6667,3572.6667   C 1643.6667,3574.3333 1642,3575.6667 1640.6667,3577.3333   C 1639,3578.6667 1636,3580.3333 1632.6667,3582   C 1629.6667,3583.3333 1625,3585 1622,3586.3333   C 1617.3333,3588 1613,3588 1608.3333,3588   C 1599,3588 1591.3333,3586.3333 1583.6667,3583.3333   C 1576,3578.6667 1569.6667,3575.6667 1565.3333,3569.6667   C 1559,3563.3333 1556,3557.3333 1553,3549.6667   C 1549.6667,3542 1548.3333,3532.6667 1548.3333,3525   C 1548.3333,3515.6667 1549.6667,3508 1553,3502   C 1554.3333,3494.3333 1559,3488 1563.6667,3482   C 1568.3333,3477.3333 1574.3333,3474.3333 1580.6667,3471.3333   C 1586.6667,3468 1594.3333,3466.6667 1602,3466.6667   C 1606.6667,3466.6667 1611.3333,3468 1616,3468   C 1620.6667,3469.6667 1625,3471.3333 1628.3333,3474.3333   C 1632.6667,3476 1636,3477.3333 1639,3479   C 1642,3482 1643.6667,3483.6667 1646.6667,3485   C 1646.6667,3485 1646.6667,3485 1646.6667,3485   C 1646.6667,3432.6667 1646.6667,3432.6667 1646.6667,3432.6667   C 1525.3333,3432.6667 1525.3333,3432.6667 1525.3333,3432.6667   C 1525.3333,3409.6667 1525.3333,3409.6667 1525.3333,3409.6667   C 1794.3333,3409.6667 1794.3333,3409.6667 1794.3333,3409.6667   z  M 1605,3489.6667   C 1599,3489.6667 1594.3333,3491.3333 1589.6667,3494.3333   C 1586.6667,3495.6667 1582,3499 1579,3502   C 1577.3333,3505 1574.3333,3509.6667 1573,3514.3333   C 1573,3519 1571.3333,3522 1571.3333,3526.6667   C 1571.3333,3532.6667 1573,3535.6667 1573,3540.3333   C 1576,3546.6667 1577.3333,3549.6667 1580.6667,3554.3333   C 1583.6667,3557.3333 1586.6667,3560.3333 1591.3333,3563.3333   C 1596,3565 1600.6667,3565 1605,3565   C 1611.3333,3565 1614.3333,3565 1619,3563.3333   C 1625,3562 1628.3333,3558.6667 1632.6667,3554.3333   C 1637.3333,3551 1640.6667,3546.6667 1643.6667,3540.3333   C 1645,3534.3333 1646.6667,3526.6667 1646.6667,3519   C 1646.6667,3512.6667 1646.6667,3512.6667 1646.6667,3512.6667   C 1643.6667,3509.6667 1642,3506.6667 1639,3503.6667   C 1636,3500.3333 1632.6667,3499 1628.3333,3495.6667   C 1625,3494.3333 1620.6667,3492.6667 1616,3491.3333   C 1613,3491.3333 1608.3333,3489.6667 1605,3489.6667   z  M 1901.6667,3432.6667   C 1840.3333,3432.6667 1840.3333,3432.6667 1840.3333,3432.6667   C 1840.3333,3629.6667 1840.3333,3629.6667 1840.3333,3629.6667   C 1817.3333,3629.6667 1817.3333,3629.6667 1817.3333,3629.6667   C 1817.3333,3432.6667 1817.3333,3432.6667 1817.3333,3432.6667   C 1794.3333,3432.6667 1794.3333,3432.6667 1794.3333,3432.6667   C 1794.3333,3409.6667 1794.3333,3409.6667 1794.3333,3409.6667   C 1901.6667,3409.6667 1901.6667,3409.6667 1901.6667,3409.6667   z  M 1840.3333,3409.6667   C 1820.3333,3409.6667 1820.3333,3409.6667 1820.3333,3409.6667   C 1815.6667,3405 1815.6667,3405 1815.6667,3405   C 1808,3399 1802,3393 1795.6667,3388.3333   C 1789.6667,3383.6667 1785,3380.6667 1778.6667,3377.3333   C 1775.6667,3374.3333 1771,3371.3333 1768,3369.6667   C 1765,3368.3333 1760.3333,3368.3333 1757.3333,3366.6667   C 1754.3333,3365.3333 1751,3365.3333 1749.6667,3365.3333   C 1746.6667,3365.3333 1743.3333,3365.3333 1740.3333,3365.3333   C 1712.6667,3365.3333 1712.6667,3365.3333 1712.6667,3365.3333   C 1712.6667,3343.6667 1712.6667,3343.6667 1712.6667,3343.6667   C 1739,3343.6667 1739,3343.6667 1739,3343.6667   C 1743.3333,3343.6667 1746.6667,3343.6667 1749.6667,3345.3333   C 1754.3333,3345.3333 1757.3333,3346.6667 1760.3333,3348.3333   C 1763.3333,3349.6667 1768,3351.3333 1771,3353   C 1774.3333,3354.3333 1777.3333,3357.6667 1782,3360.6667   C 1786.3333,3363.6667 1791,3368.3333 1795.6667,3371.3333   C 1800.3333,3377.3333 1806.3333,3382 1812.6667,3388.3333   C 1812.6667,3386.6667 1812.6667,3386.6667 1812.6667,3386.6667   C 1806.3333,3377.3333 1802,3369.6667 1798.6667,3363.6667   C 1794.3333,3356 1789.6667,3349.6667 1786.3333,3346.6667   C 1782,3340.6667 1778.6667,3337.6667 1777.3333,3334.3333   C 1774.3333,3331.3333 1771,3328.3333 1768,3326.6667   C 1765,3325.3333 1762,3323.6667 1758.6667,3323.6667   C 1755.6667,3323.6667 1752.6667,3322 1749.6667,3322   C 1722,3322 1722,3322 1722,3322   C 1722,3302.3333 1722,3302.3333 1722,3302.3333   C 1748,3302.3333 1748,3302.3333 1748,3302.3333   C 1754.3333,3302.3333 1758.6667,3302.3333 1763.3333,3302.3333   C 1768,3303.6667 1771,3305.3333 1775.6667,3308.3333   C 1778.6667,3311.3333 1783.3333,3316 1788,3320.6667   C 1791,3325.3333 1795.6667,3331.3333 1802,3339   C 1805,3346.6667 1811,3356 1817.3333,3366.6667   C 1822,3377.3333 1829.6667,3389.6667 1837.3333,3403.6667   z  M 1995.3333,3511.3333   C 1992.3333,3511.3333 1991,3512.6667 1989.3333,3512.6667   C 1987.6667,3512.6667 1986.3333,3512.6667 1984.6667,3512.6667   C 1977,3512.6667 1969.3333,3511.3333 1963.3333,3508   C 1957,3505 1951,3502 1946.3333,3495.6667   C 1943.3333,3491.3333 1938.6667,3486.6667 1937,3479   C 1934,3474.3333 1932.3333,3466.6667 1932.3333,3460.3333   C 1932.3333,3454.3333 1934,3449.6667 1934,3446.6667   C 1937,3440.3333 1938.6667,3436 1941.6667,3432.6667   C 1941.6667,3432.6667 1941.6667,3432.6667 1941.6667,3432.6667   C 1901.6667,3432.6667 1901.6667,3432.6667 1901.6667,3432.6667   C 1901.6667,3409.6667 1901.6667,3409.6667 1901.6667,3409.6667   C 2166,3409.6667 2166,3409.6667 2166,3409.6667   C 2166,3432.6667 2166,3432.6667 2166,3432.6667   C 2109.3333,3432.6667 2109.3333,3432.6667 2109.3333,3432.6667   C 2109.3333,3629.6667 2109.3333,3629.6667 2109.3333,3629.6667   C 2083,3629.6667 2083,3629.6667 2083,3629.6667   C 2083,3432.6667 2083,3432.6667 2083,3432.6667   C 2029.3333,3432.6667 2029.3333,3432.6667 2029.3333,3432.6667   C 2029.3333,3432.6667 2029.3333,3432.6667 2029.3333,3432.6667   C 2031,3436 2034,3437.3333 2037,3442   C 2038.6667,3445 2040,3449.6667 2041.6667,3452.6667   C 2043,3457.3333 2044.6667,3462 2044.6667,3466.6667   C 2046.3333,3471.3333 2046.3333,3476 2046.3333,3480.3333   C 2046.3333,3488 2044.6667,3495.6667 2043,3502   C 2040,3509.6667 2037,3515.6667 2032.3333,3523.3333   C 2027.6667,3529.6667 2023,3534.3333 2017,3540.3333   C 2011,3546.6667 2004.6667,3551 1997,3554.3333   C 1997,3554.3333 1997,3554.3333 1997,3554.3333   C 2001.6667,3558.6667 2006.3333,3563.3333 2012.3333,3568   C 2017,3574.3333 2023,3578.6667 2029.3333,3585   C 2034,3591 2038.6667,3597.3333 2044.6667,3603.3333   C 2049.3333,3608 2054,3614 2057,3618.6667   C 2040,3632.6667 2040,3632.6667 2040,3632.6667   C 2037,3629.6667 2034,3623.3333 2029.3333,3618.6667   C 2024.6667,3612.6667 2020,3608 2014,3602   C 2007.6667,3595.6667 2001.6667,3589.6667 1995.3333,3583.3333   C 1989.3333,3577.3333 1981.6667,3571 1975.6667,3566.6667   C 1971,3568 1968,3569.6667 1964.6667,3571   C 1960,3571 1957,3571 1952.3333,3571   C 1948,3571 1943.3333,3571 1940.3333,3569.6667   C 1935.6667,3568 1931,3568 1929.3333,3565   C 1926.3333,3563.3333 1923.3333,3560.3333 1921.6667,3557.3333   C 1920.3333,3554.3333 1918.6667,3551 1918.6667,3548   C 1918.6667,3540.3333 1920.3333,3537.3333 1926.3333,3532.6667   C 1929.3333,3529.6667 1935.6667,3528 1943.3333,3528   C 1948,3528 1954,3529.6667 1958.6667,3531   C 1964.6667,3532.6667 1971,3535.6667 1975.6667,3540.3333   C 1978.6667,3539 1981.6667,3539 1984.6667,3535.6667   C 1987.6667,3534.3333 1992.3333,3532.6667 1995.3333,3529.6667   C 1998.6667,3528 2003.3333,3525 2006.3333,3522   C 2009.3333,3519 2011,3515.6667 2014,3511.3333   C 2017,3506.6667 2020,3502 2020,3497.3333   C 2023,3491.3333 2023,3486.6667 2023,3480.3333   C 2023,3474.3333 2023,3468 2020,3463.6667   C 2020,3457.3333 2017,3452.6667 2014,3448.3333   C 2009.3333,3443.6667 2006.3333,3440.3333 2000,3437.3333   C 1995.3333,3436 1989.3333,3432.6667 1984.6667,3432.6667   C 1978.6667,3432.6667 1974,3434.3333 1971,3436   C 1968,3437.3333 1964.6667,3439 1961.6667,3442   C 1960,3445 1958.6667,3446.6667 1958.6667,3449.6667   C 1957,3454.3333 1957,3457.3333 1957,3460.3333   C 1957,3463.6667 1957,3466.6667 1958.6667,3471.3333   C 1960,3474.3333 1961.6667,3477.3333 1964.6667,3480.3333   C 1968,3483.6667 1971,3485 1975.6667,3488   C 1978.6667,3489.6667 1983.3333,3491.3333 1989.3333,3491.3333   C 1989.3333,3491.3333 1992.3333,3489.6667 1995.3333,3489.6667   z  M 2415,3432.6667   C 2355,3432.6667 2355,3432.6667 2355,3432.6667   C 2355,3629.6667 2355,3629.6667 2355,3629.6667   C 2330.6667,3629.6667 2330.6667,3629.6667 2330.6667,3629.6667   C 2330.6667,3491.3333 2330.6667,3491.3333 2330.6667,3491.3333   C 2326,3489.6667 2321.3333,3488 2316.6667,3488   C 2312,3488 2307.3333,3489.6667 2304.3333,3491.3333   C 2301.3333,3494.3333 2298.3333,3495.6667 2296.6667,3499   C 2293.6667,3502 2292,3505 2290.6667,3508   C 2289,3512.6667 2289,3515.6667 2289,3520.3333   C 2289,3522 2289,3523.3333 2289,3525   C 2289,3526.6667 2289,3529.6667 2289,3529.6667   C 2267.6667,3529.6667 2267.6667,3529.6667 2267.6667,3529.6667   C 2266,3523.3333 2266,3519 2264.3333,3514.3333   C 2263,3509.6667 2261.3333,3505 2261.3333,3500.3333   C 2258.3333,3495.6667 2255.3333,3494.3333 2252,3491.3333   C 2249,3488 2246,3488 2241.3333,3488   C 2236.6667,3488 2233.6667,3488 2229,3491.3333   C 2226,3492.6667 2223,3494.3333 2221.3333,3499   C 2218.3333,3502 2216.6667,3505 2216.6667,3509.6667   C 2215.3333,3514.3333 2215.3333,3519 2215.3333,3523.3333   C 2215.3333,3534.3333 2216.6667,3545 2220,3554.3333   C 2224.3333,3563.3333 2230.6667,3571 2235.3333,3577.3333   C 2243,3585 2249,3591 2258.3333,3595.6667   C 2266,3602 2276.6667,3608 2286,3612.6667   C 2273.6667,3632.6667 2273.6667,3632.6667 2273.6667,3632.6667   C 2270.6667,3631 2266,3628 2261.3333,3625   C 2255.3333,3622 2249,3618.6667 2243,3612.6667   C 2235.3333,3609.6667 2230.6667,3603.3333 2224.3333,3597.3333   C 2218.3333,3591 2212.3333,3585 2207.6667,3577.3333   C 2203,3569.6667 2198.3333,3560.3333 2193.6667,3551   C 2190.6667,3543.3333 2190.6667,3532.6667 2190.6667,3522   C 2190.6667,3512.6667 2190.6667,3506.6667 2193.6667,3499   C 2196.6667,3491.3333 2200,3485 2203,3480.3333   C 2207.6667,3476 2213.6667,3471.3333 2218.3333,3468   C 2226,3465 2232,3463.6667 2240,3463.6667   C 2246,3463.6667 2250.6667,3465 2255.3333,3465   C 2258.3333,3468 2263,3469.6667 2266,3472.6667   C 2269,3474.3333 2270.6667,3477.3333 2272,3479   C 2273.6667,3482 2276.6667,3485 2276.6667,3488   C 2278.3333,3488 2278.3333,3488 2278.3333,3488   C 2279.6667,3483.6667 2283,3479 2286,3477.3333   C 2287.3333,3474.3333 2290.6667,3471.3333 2293.6667,3471.3333   C 2296.6667,3468 2299.6667,3468 2303,3466.6667   C 2307.3333,3465 2310.6667,3465 2313.6667,3465   C 2316.6667,3465 2319.6667,3465 2322.6667,3465   C 2326,3466.6667 2327.3333,3468 2330.6667,3468   C 2330.6667,3432.6667 2330.6667,3432.6667 2330.6667,3432.6667   C 2166,3432.6667 2166,3432.6667 2166,3432.6667   C 2166,3409.6667 2166,3409.6667 2166,3409.6667   C 2415,3409.6667 2415,3409.6667 2415,3409.6667   z  M 2619.3333,3432.6667   C 2588.6667,3432.6667 2588.6667,3432.6667 2588.6667,3432.6667   C 2588.6667,3629.6667 2588.6667,3629.6667 2588.6667,3629.6667   C 2565.6667,3629.6667 2565.6667,3629.6667 2565.6667,3629.6667   C 2565.6667,3546.6667 2565.6667,3546.6667 2565.6667,3546.6667   C 2484.3333,3546.6667 2484.3333,3546.6667 2484.3333,3546.6667   C 2484.3333,3563.3333 2484.3333,3563.3333 2484.3333,3563.3333   C 2484.3333,3566.6667 2484.3333,3569.6667 2484.3333,3571   C 2484.3333,3574.3333 2484.3333,3577.3333 2482.6667,3577.3333   C 2481,3578.6667 2481,3580.3333 2479.6667,3582   C 2478,3582 2476.6667,3582 2473.3333,3582   C 2470.3333,3582 2467.3333,3582 2464.3333,3580.3333   C 2462.6667,3578.6667 2458,3577.3333 2455,3574.3333   C 2452,3571 2449,3568 2445.6667,3565   C 2442.6667,3562 2439.6667,3558.6667 2438,3554.3333   C 2435,3551 2433.3333,3548 2432,3545   C 2430.3333,3540.3333 2429,3539 2429,3534.3333   C 2429,3532.6667 2430.3333,3531 2432,3529.6667   C 2432,3529.6667 2432,3528 2435,3526.6667   C 2435,3526.6667 2436.6667,3526.6667 2439.6667,3525   C 2439.6667,3525 2442.6667,3525 2445.6667,3525   C 2461,3525 2461,3525 2461,3525   C 2461,3432.6667 2461,3432.6667 2461,3432.6667   C 2415,3432.6667 2415,3432.6667 2415,3432.6667   C 2415,3409.6667 2415,3409.6667 2415,3409.6667   C 2619.3333,3409.6667 2619.3333,3409.6667 2619.3333,3409.6667   z  M 2484.3333,3432.6667   C 2484.3333,3525 2484.3333,3525 2484.3333,3525   C 2565.6667,3525 2565.6667,3525 2565.6667,3525   C 2565.6667,3432.6667 2565.6667,3432.6667 2565.6667,3432.6667   z  M 2633.3333,3700.3333   C 2575,3646.3333 2575,3646.3333 2575,3646.3333   C 2565.6667,3629.6667 2565.6667,3629.6667 2565.6667,3629.6667   C 2588.6667,3629.6667 2588.6667,3629.6667 2588.6667,3629.6667   C 2647,3683.3333 2647,3683.3333 2647,3683.3333   z "
     style="fill:#ffffff;fill-rule:evenodd;fill-opacity:1;stroke:none;" />
</svg>
