<?xml version="1.0" encoding="UTF-8" standalone="no"?>
<svg
   xmlns:dc="http://purl.org/dc/elements/1.1/"
   xmlns:cc="http://creativecommons.org/ns#"
   xmlns:rdf="http://www.w3.org/1999/02/22-rdf-syntax-ns#"
   xmlns:svg="http://www.w3.org/2000/svg"
   xmlns="http://www.w3.org/2000/svg"
   id="svg9"
   height="983.99603mm"
   width="713.32513mm"
   version="1.0">
  <metadata
     id="metadata13">
    <rdf:RDF>
      <cc:Work
         rdf:about="">
        <dc:format>image/svg+xml</dc:format>
        <dc:type
           rdf:resource="http://purl.org/dc/dcmitype/StillImage" />
      </cc:Work>
    </rdf:RDF>
  </metadata>
  <defs
     id="defs3">
    <pattern
       y="0"
       x="0"
       height="6"
       width="6"
       patternUnits="userSpaceOnUse"
       id="EMFhbasepattern" />
  </defs>
  <path
     id="path5"
     d="  M 0,-0.33333333   C 2696.3333,-0.33333333 2696.3333,-0.33333333 2696.3333,-0.33333333   C 2696.3333,1323.3333 2696.3333,1323.3333 2696.3333,1323.3333   C 2386.3333,1323.3333 2386.3333,1323.3333 2386.3333,1323.3333   C 2386.3333,1332.3333 2386.3333,1340.3333 2386.3333,1349.3333   C 2386.3333,1526.6667 2386.3333,1704.3333 2386.3333,1881.6667   C 2384.6667,1917 2383.3333,1952.6667 2378.6667,1988   C 2369.3333,2080.6667 2318.3333,2122.3333 2226,2119.3333   C 2145.6667,2116 2093.3333,2068.3333 2087,1988   C 2082.3333,1938.6667 2084,1889.3333 2079.3333,1840   C 2076.3333,1784.3333 2073.3333,1727.3333 2062.3333,1671.6667   C 2017.6667,1459 1868,1331 1650.6667,1323.3333   C 1470,1318.6667 1288,1321.6667 1107.6667,1321.6667   C 1103,1321.6667 1100,1323.3333 1095.3333,1324.6667   C 1095.3333,1667.3333 1095.3333,2009.6667 1095.3333,2352   C 1107.6667,2352 1116.6667,2352 1126,2352   C 1263.3333,2352 1399,2353.6667 1535,2352   C 1584.3333,2352 1633.6667,2349 1683,2343   C 1740,2335 1794,2318 1848,2289   C 1766.3333,2207 1738.3333,2105.3333 1729.3333,1989.6667   C 1695.3333,2040.3333 1655.3333,2073 1604.3333,2079   C 1541,2088.3333 1477.6667,2086.6667 1413,2091.3333   C 1413,1918.6667 1413,1753.6667 1413,1587   C 1456.3333,1587 1496.3333,1584 1538,1587   C 1683,1601 1752.3333,1671.6667 1761.6667,1818.3333   C 1766.3333,1887.6667 1760,1958.6667 1766.3333,2026.6667   C 1780,2185.6667 1863.3333,2305.6667 2027,2350.6667   C 2159.6667,2387.6667 2293.6667,2387.6667 2426.3333,2355.3333   C 2546.6667,2324.3333 2631.6667,2256.3333 2674.6667,2139.3333   C 2668.6667,2193.3333 2668.6667,2193.3333 2668.6667,2193.3333   C 2542.3333,2751.6667 1999.3333,3171.3333 1348.3333,3171.3333   C 697.33333,3171.3333 152.66667,2751.6667 27.666667,2193.3333   C 1.6666667,1955.6667 1.6666667,1955.6667 1.6666667,1955.6667   C 0,1955.6667 0,1955.6667 0,1955.6667   C 0,1946.3333 0,1946.3333 0,1946.3333   C 0,902 0,902 0,902   C 834.66667,1124.3333 834.66667,1124.3333 834.66667,1124.3333   C 884,1138 934.66667,1108.6667 948.66667,1059.3333   C 962.66667,1010 931.66667,959 882.33333,945.33333   C 0,710.66667 0,710.66667 0,710.66667   C 0,589 0,589 0,589   C 834.66667,811 834.66667,811 834.66667,811   C 884,825 934.66667,795.66667 948.66667,746.33333   C 962.66667,697 931.66667,646 882.33333,632   C 0,397.66667 0,397.66667 0,397.66667   C 0,277.33333 0,277.33333 0,277.33333   C 834.66667,501 834.66667,501 834.66667,501   C 884,515 934.66667,485.66667 948.66667,436.33333   C 962.66667,385.33333 931.66667,334.33333 882.33333,320.66667   C 0,84.666667 0,84.666667 0,84.666667   z  M 1829.3333,1323.3333   C 1911.3333,1323.3333 1994.6667,1323.3333 2078,1323.3333   C 2078,1412.6667 2078,1502 2078,1599.3333   C 2030,1471.3333 1951.3333,1377.3333 1829.3333,1323.3333   z "
     style="fill:#d51e3e;fill-rule:evenodd;fill-opacity:1;stroke:none;" />
  <path
     id="path7"
     d="  M 236.66667,3445.6667   C 206,3445.6667 206,3445.6667 206,3445.6667   C 206,3643.3333 206,3643.3333 206,3643.3333   C 181.33333,3643.3333 181.33333,3643.3333 181.33333,3643.3333   C 181.33333,3573.6667 181.33333,3573.6667 181.33333,3573.6667   C 181.33333,3573.6667 181.33333,3573.6667 181.33333,3573.6667   C 178.33333,3575.3333 175,3578.3333 172,3580   C 167.33333,3581.6667 162.66667,3584.6667 159.66667,3584.6667   C 155,3587.6667 149,3587.6667 144.33333,3589.3333   C 139.66667,3590.6667 133.33333,3590.6667 128.66667,3590.6667   C 116.33333,3590.6667 107.33333,3589.3333 99.333333,3584.6667   C 90.333333,3580 84,3575.3333 79.333333,3567.6667   C 73.333333,3561.3333 68.666667,3553.6667 65.666667,3544.6667   C 62.333333,3535.3333 61,3526 59.333333,3516.6667   C 65.666667,3515.3333 71.666667,3515.3333 76.333333,3512   C 81,3509 84,3507.3333 87,3504.3333   C 90.333333,3501.3333 91.666667,3498.3333 93.333333,3495   C 95,3492 95,3487.3333 95,3484.3333   C 95,3481.3333 95,3478.3333 95,3476.6667   C 93.333333,3473.6667 93.333333,3470.3333 91.666667,3467.3333   C 90.333333,3462.6667 90.333333,3459.6667 88.666667,3456.6667   C 85.666667,3452 84,3449 81,3445.6667   C 39.333333,3445.6667 39.333333,3445.6667 39.333333,3445.6667   C 39.333333,3422.6667 39.333333,3422.6667 39.333333,3422.6667   C 236.66667,3422.6667 236.66667,3422.6667 236.66667,3422.6667   z  M 107.33333,3445.6667   C 110.33333,3450.3333 113.33333,3456.6667 116.33333,3466   C 118,3472 118,3478.3333 118,3486   C 118,3490.6667 118,3495 116.33333,3499.6667   C 116.33333,3504.3333 113.33333,3509 110.33333,3512   C 107.33333,3518.3333 105.66667,3519.6667 101,3523   C 96.333333,3527.6667 91.666667,3529 85.666667,3532.3333   C 88.666667,3538.3333 90.333333,3543 93.333333,3547.6667   C 96.333333,3553.6667 99.333333,3557 102.66667,3560   C 105.66667,3563 110.33333,3564.6667 115,3566   C 119.66667,3567.6667 124.33333,3567.6667 130.33333,3567.6667   C 135,3567.6667 139.66667,3567.6667 144.33333,3566   C 149,3564.6667 155,3564.6667 159.66667,3561.3333   C 162.66667,3560 167.33333,3557 172,3553.6667   C 175,3550.6667 178.33333,3547.6667 181.33333,3543   C 181.33333,3445.6667 181.33333,3445.6667 181.33333,3445.6667   z  M 343.33333,3445.6667   C 283,3445.6667 283,3445.6667 283,3445.6667   C 283,3643.3333 283,3643.3333 283,3643.3333   C 260,3643.3333 260,3643.3333 260,3643.3333   C 260,3445.6667 260,3445.6667 260,3445.6667   C 236.66667,3445.6667 236.66667,3445.6667 236.66667,3445.6667   C 236.66667,3422.6667 236.66667,3422.6667 236.66667,3422.6667   C 343.33333,3422.6667 343.33333,3422.6667 343.33333,3422.6667   z  M 280,3422.6667   C 258.33333,3422.6667 258.33333,3422.6667 258.33333,3422.6667   C 246,3402.6667 246,3402.6667 246,3402.6667   C 241.33333,3391.6667 235.33333,3384 232,3376.3333   C 227.66667,3370.3333 223,3365.6667 218.33333,3362.3333   C 213.66667,3359.3333 210.66667,3356.3333 206,3356.3333   C 203,3356.3333 198.33333,3354.6667 193.66667,3354.6667   C 165.66667,3354.6667 165.66667,3354.6667 165.66667,3354.6667   C 165.66667,3331.6667 165.66667,3331.6667 165.66667,3331.6667   C 192,3331.6667 192,3331.6667 192,3331.6667   C 196.66667,3331.6667 203,3331.6667 207.33333,3331.6667   C 212,3333.3333 215.33333,3334.6667 219.66667,3336.3333   C 224.33333,3339.3333 229,3342.3333 232,3348.6667   C 236.66667,3351.6667 241.33333,3356.3333 246,3364   C 249,3370.3333 255.33333,3378 260,3387.3333   C 266,3398 270.66667,3408.6667 278.33333,3421   z  M 534.66667,3445.6667   C 505.33333,3445.6667 505.33333,3445.6667 505.33333,3445.6667   C 505.33333,3643.3333 505.33333,3643.3333 505.33333,3643.3333   C 479,3643.3333 479,3643.3333 479,3643.3333   C 479,3445.6667 479,3445.6667 479,3445.6667   C 412.66667,3445.6667 412.66667,3445.6667 412.66667,3445.6667   C 412.66667,3560 412.66667,3560 412.66667,3560   C 412.66667,3560 412.66667,3563 412.66667,3564.6667   C 412.66667,3566 412.66667,3567.6667 412.66667,3570.6667   C 411,3572.3333 409.66667,3573.6667 409.66667,3575.3333   C 406.33333,3577 405,3577 403.33333,3577   C 400.33333,3577 397.33333,3577 394,3573.6667   C 391,3573.6667 388,3570.6667 385,3567.6667   C 381.66667,3564.6667 378.66667,3563 374,3558.3333   C 371,3553.6667 369.33333,3552.3333 366.33333,3547.6667   C 364.66667,3543 363.33333,3540 360.33333,3536.6667   C 360.33333,3533.6667 358.66667,3529 358.66667,3527.6667   C 358.66667,3524.3333 360.33333,3523 360.33333,3521.3333   C 361.66667,3519.6667 363.33333,3518.3333 366.33333,3518.3333   C 368,3518.3333 371,3516.6667 374,3516.6667   C 377,3516.6667 380.33333,3516.6667 385,3516.6667   C 389.66667,3516.6667 389.66667,3516.6667 389.66667,3516.6667   C 389.66667,3445.6667 389.66667,3445.6667 389.66667,3445.6667   C 343.33333,3445.6667 343.33333,3445.6667 343.33333,3445.6667   C 343.33333,3422.6667 343.33333,3422.6667 343.33333,3422.6667   C 534.66667,3422.6667 534.66667,3422.6667 534.66667,3422.6667   z  M 596.33333,3521.3333   C 590,3521.3333 587,3519.6667 584,3516.6667   C 580.66667,3513.6667 579.33333,3509 579.33333,3504.3333   C 579.33333,3501.3333 580.66667,3496.6667 584,3493.6667   C 587,3490.6667 590,3489 596.33333,3489   C 599.33333,3489 604,3490.6667 607,3493.6667   C 610,3496.6667 611.66667,3501.3333 611.66667,3504.3333   C 611.66667,3509 610,3513.6667 607,3516.6667   C 604,3519.6667 599.33333,3521.3333 596.33333,3521.3333   z  M 596.33333,3646.3333   C 590,3646.3333 587,3643.3333 584,3640   C 580.66667,3637 579.33333,3634 579.33333,3629.3333   C 579.33333,3624.6667 580.66667,3621.6667 584,3618.6667   C 587,3614 590,3612.3333 596.33333,3612.3333   C 599.33333,3612.3333 604,3614 607,3618.6667   C 610,3621.6667 611.66667,3624.6667 611.66667,3629.3333   C 611.66667,3634 610,3637 607,3640   C 604,3643.3333 599.33333,3646.3333 596.33333,3646.3333   z  M 1006.6667,3445.6667   C 850.66667,3445.6667 850.66667,3445.6667 850.66667,3445.6667   C 850.66667,3503 850.66667,3503 850.66667,3503   C 850.66667,3503 850.66667,3503 850.66667,3503   C 857,3495 863,3490.6667 870.66667,3487.3333   C 877,3482.6667 884.66667,3479.6667 894,3479.6667   C 901.66667,3479.6667 907.66667,3481.3333 914,3484.3333   C 920,3487.3333 924.66667,3492 929.33333,3496.6667   C 934,3501.3333 937,3507.3333 940.33333,3515.3333   C 943.33333,3521.3333 943.33333,3529 943.33333,3536.6667   C 943.33333,3546 943.33333,3553.6667 938.66667,3561.3333   C 935.66667,3569.3333 931,3577 926.33333,3581.6667   C 921.66667,3587.6667 917,3594 911,3598.6667   C 904.66667,3603 898.66667,3606.3333 892.33333,3611   C 878.33333,3587.6667 878.33333,3587.6667 878.33333,3587.6667   C 881.66667,3587.6667 883,3584.6667 886.33333,3584.6667   C 889.33333,3581.6667 892.33333,3580 895.33333,3577   C 898.66667,3575.3333 901.66667,3572.3333 904.66667,3569.3333   C 906.33333,3566 909.33333,3563 912.33333,3560   C 915.66667,3557 917,3552.3333 918.66667,3547.6667   C 920,3544.6667 920,3540 920,3535.3333   C 920,3532.3333 920,3526 918.66667,3523   C 917,3519.6667 915.66667,3515.3333 912.33333,3513.6667   C 911,3510.6667 907.66667,3507.3333 904.66667,3507.3333   C 901.66667,3504.3333 898.66667,3504.3333 894,3504.3333   C 889.33333,3504.3333 884.66667,3506 878.33333,3507.3333   C 874,3510.6667 870.66667,3513.6667 866,3518.3333   C 863,3521.3333 858.33333,3526 857,3530.6667   C 853.66667,3535.3333 850.66667,3540 850.66667,3543   C 850.66667,3643.3333 850.66667,3643.3333 850.66667,3643.3333   C 826,3643.3333 826,3643.3333 826,3643.3333   C 826,3586 826,3586 826,3586   C 826,3586 826,3586 826,3586   C 824.66667,3587.6667 823,3589.3333 821.33333,3590.6667   C 818.33333,3592.3333 815.33333,3594 812.33333,3595.3333   C 809,3597 806,3598.6667 801.33333,3600   C 796.66667,3601.6667 792,3601.6667 787.33333,3601.6667   C 778.33333,3601.6667 770.66667,3600 762.66667,3597   C 756.66667,3592.3333 749,3589.3333 744.33333,3583   C 739.66667,3577 735,3570.6667 732,3563   C 729,3555.3333 727.33333,3546 727.33333,3538.3333   C 727.33333,3529 729,3521.3333 732,3515.3333   C 735,3507.3333 738,3501.3333 742.66667,3495   C 747.33333,3490.6667 753.66667,3487.3333 759.66667,3484.3333   C 766,3481.3333 773.66667,3479.6667 781.33333,3479.6667   C 786,3479.6667 790.66667,3481.3333 795.33333,3481.3333   C 799.66667,3482.6667 804.33333,3484.3333 807.66667,3487.3333   C 812.33333,3489 815.33333,3490.6667 818.33333,3492   C 821.33333,3495 823,3496.6667 826,3498.3333   C 826,3498.3333 826,3498.3333 826,3498.3333   C 826,3445.6667 826,3445.6667 826,3445.6667   C 704.33333,3445.6667 704.33333,3445.6667 704.33333,3445.6667   C 704.33333,3422.6667 704.33333,3422.6667 704.33333,3422.6667   C 1006.6667,3422.6667 1006.6667,3422.6667 1006.6667,3422.6667   z  M 784.33333,3503   C 778.33333,3503 773.66667,3504.3333 770.66667,3507.3333   C 766,3509 762.66667,3512 759.66667,3515.3333   C 756.66667,3518.3333 753.66667,3523 753.66667,3527.6667   C 752,3532.3333 750.33333,3535.3333 750.33333,3540   C 750.33333,3546 752,3549 753.66667,3553.6667   C 755,3560 756.66667,3563 759.66667,3567.6667   C 762.66667,3570.6667 767.33333,3573.6667 770.66667,3577   C 776.66667,3578.3333 779.66667,3578.3333 786,3578.3333   C 790.66667,3578.3333 795.33333,3578.3333 799.66667,3577   C 804.33333,3575.3333 809,3572.3333 812.33333,3567.6667   C 816.66667,3564.6667 821.33333,3560 823,3553.6667   C 826,3547.6667 826,3540 826,3532.3333   C 826,3526 826,3526 826,3526   C 824.66667,3523 821.33333,3519.6667 818.33333,3516.6667   C 815.33333,3513.6667 812.33333,3512 807.66667,3509   C 804.33333,3507.3333 801.33333,3506 796.66667,3504.3333   C 793.66667,3504.3333 789,3503 784.33333,3503   z  M 1238,3445.6667   C 1177.6667,3445.6667 1177.6667,3445.6667 1177.6667,3445.6667   C 1177.6667,3643.3333 1177.6667,3643.3333 1177.6667,3643.3333   C 1154.6667,3643.3333 1154.6667,3643.3333 1154.6667,3643.3333   C 1154.6667,3560 1154.6667,3560 1154.6667,3560   C 1074.3333,3560 1074.3333,3560 1074.3333,3560   C 1074.3333,3577 1074.3333,3577 1074.3333,3577   C 1074.3333,3580 1074.3333,3583 1073,3584.6667   C 1073,3587.6667 1073,3590.6667 1073,3590.6667   C 1071.3333,3592.3333 1069.6667,3594 1068.3333,3595.3333   C 1068.3333,3595.3333 1065,3595.3333 1062,3595.3333   C 1060.6667,3595.3333 1057.3333,3595.3333 1054.3333,3594   C 1051.3333,3592.3333 1048.3333,3590.6667 1045,3587.6667   C 1042,3584.6667 1037.3333,3581.6667 1034.3333,3578.3333   C 1031.3333,3575.3333 1029.6667,3572.3333 1026.6667,3567.6667   C 1025,3564.6667 1023.6667,3561.3333 1020.3333,3558.3333   C 1020.3333,3553.6667 1019,3552.3333 1019,3547.6667   C 1019,3546 1019,3544.6667 1020.3333,3543   C 1020.3333,3543 1022,3541.3333 1023.6667,3540   C 1025,3540 1026.6667,3540 1028,3538.3333   C 1029.6667,3538.3333 1031.3333,3538.3333 1034.3333,3538.3333   C 1051.3333,3538.3333 1051.3333,3538.3333 1051.3333,3538.3333   C 1051.3333,3445.6667 1051.3333,3445.6667 1051.3333,3445.6667   C 1006.6667,3445.6667 1006.6667,3445.6667 1006.6667,3445.6667   C 1006.6667,3422.6667 1006.6667,3422.6667 1006.6667,3422.6667   C 1238,3422.6667 1238,3422.6667 1238,3422.6667   z  M 1074.3333,3445.6667   C 1074.3333,3538.3333 1074.3333,3538.3333 1074.3333,3538.3333   C 1154.6667,3538.3333 1154.6667,3538.3333 1154.6667,3538.3333   C 1154.6667,3445.6667 1154.6667,3445.6667 1154.6667,3445.6667   z  M 1207,3356.3333   C 1202.3333,3351.6667 1197.6667,3348.6667 1193.3333,3347   C 1191.6667,3344 1185.3333,3342.3333 1181,3342.3333   C 1174.6667,3342.3333 1167,3345.6667 1164,3351.6667   C 1157.6667,3356.3333 1156,3364 1156,3373.3333   C 1156,3376.3333 1156,3381 1157.6667,3385.6667   C 1157.6667,3390.3333 1159.3333,3393.3333 1160.6667,3398   C 1164,3402.6667 1165.3333,3407.3333 1167,3410.3333   C 1170,3415 1171.6667,3419.6667 1176.3333,3422.6667   C 1151.6667,3422.6667 1151.6667,3422.6667 1151.6667,3422.6667   C 1145.3333,3415 1140.6667,3407.3333 1137.6667,3398   C 1136,3388.6667 1133,3379.3333 1133,3371.6667   C 1133,3364 1136,3356.3333 1137.6667,3350   C 1140.6667,3344 1143.6667,3337.6667 1148.3333,3334.6667   C 1151.6667,3330 1157.6667,3325.3333 1164,3324   C 1168.6667,3322.3333 1174.6667,3321 1181,3321   C 1190,3321 1196.3333,3322.3333 1204,3325.3333   C 1210,3328.6667 1216.3333,3334.6667 1222.3333,3342.3333   z  M 1458.6667,3422.6667   C 1458.6667,3445.6667 1458.6667,3445.6667 1458.6667,3445.6667   C 1429.3333,3445.6667 1429.3333,3445.6667 1429.3333,3445.6667   C 1429.3333,3643.3333 1429.3333,3643.3333 1429.3333,3643.3333   C 1403,3643.3333 1403,3643.3333 1403,3643.3333   C 1403,3543 1403,3543 1403,3543   C 1319.6667,3543 1319.6667,3543 1319.6667,3543   C 1315,3547.6667 1307.3333,3549 1301,3549   C 1301,3550.6667 1301,3550.6667 1301,3550.6667   C 1309,3564.6667 1319.6667,3578.3333 1330.3333,3592.3333   C 1342.6667,3604.6667 1356.6667,3617 1370.6667,3627.6667   C 1353.6667,3646.3333 1353.6667,3646.3333 1353.6667,3646.3333   C 1346,3640 1338.3333,3632.3333 1330.3333,3626.3333   C 1322.6667,3618.6667 1316.6667,3611 1309,3604.6667   C 1302.6667,3595.3333 1296.6667,3587.6667 1290.3333,3580   C 1285.6667,3572.3333 1279.6667,3564.6667 1275,3557   C 1270.3333,3549 1265.6667,3543 1262.6667,3535.3333   C 1259.6667,3527.6667 1255,3521.3333 1251.6667,3515.3333   C 1273.3333,3504.3333 1273.3333,3504.3333 1273.3333,3504.3333   C 1275,3509 1276.3333,3512 1278,3515.3333   C 1279.6667,3518.3333 1281,3519.6667 1284.3333,3521.3333   C 1285.6667,3523 1287.3333,3524.3333 1290.3333,3526   C 1292,3526 1293.3333,3526 1295,3526   C 1302.6667,3526 1307.3333,3524.3333 1310.3333,3518.3333   C 1315,3513.6667 1315,3507.3333 1315,3498.3333   C 1315,3492 1315,3487.3333 1315,3482.6667   C 1313.6667,3478.3333 1312,3473.6667 1310.3333,3469   C 1309,3464.3333 1307.3333,3459.6667 1305.6667,3456.6667   C 1302.6667,3452 1301,3449 1301,3445.6667   C 1238,3445.6667 1238,3445.6667 1238,3445.6667   C 1238,3422.6667 1238,3422.6667 1238,3422.6667   z  M 1403,3445.6667   C 1326,3445.6667 1326,3445.6667 1326,3445.6667   C 1330.3333,3453.6667 1333.6667,3462.6667 1335,3472   C 1338.3333,3481.3333 1339.6667,3490.6667 1339.6667,3498.3333   C 1339.6667,3503 1339.6667,3507.3333 1338.3333,3510.6667   C 1336.6667,3515.3333 1336.6667,3518.3333 1335,3521.3333   C 1335,3523 1335,3523 1335,3523   C 1403,3523 1403,3523 1403,3523   z  M 1375.3333,3646.3333   C 1381.3333,3643.3333 1389,3640 1396.6667,3637   C 1403,3635.6667 1412.3333,3634 1417,3634   C 1423,3634 1429.3333,3635.6667 1433.6667,3637   C 1440,3638.6667 1444.6667,3640 1447.6667,3644.6667   C 1452.3333,3648 1455.3333,3651 1457,3657   C 1458.6667,3661.6667 1460,3666.3333 1460,3672.6667   C 1460,3678.6667 1458.6667,3685 1455.3333,3691   C 1454,3695.6667 1450.6667,3700.3333 1444.6667,3705   C 1440,3708 1433.6667,3712.6667 1426,3714.3333   C 1420,3715.6667 1410.6667,3718.6667 1401.3333,3718.6667   C 1389,3718.6667 1380,3715.6667 1372,3712.6667   C 1363,3709.6667 1355,3706.3333 1347.3333,3702   C 1341.3333,3697.3333 1335,3692.6667 1329,3688   C 1324.3333,3681.6667 1319.6667,3677.3333 1315,3671   C 1329,3655.6667 1329,3655.6667 1329,3655.6667   C 1335,3661.6667 1339.6667,3666.3333 1346,3671   C 1350.6667,3677.3333 1356.6667,3680.3333 1361.3333,3685   C 1367.3333,3688 1373.6667,3691 1378.3333,3692.6667   C 1384.3333,3694 1392.3333,3695.6667 1401.3333,3695.6667   C 1406,3695.6667 1412.3333,3694 1417,3692.6667   C 1423,3691 1426,3691 1429.3333,3688   C 1432.3333,3686.3333 1433.6667,3683.3333 1435.3333,3680.3333   C 1437,3678.6667 1437,3675.6667 1437,3672.6667   C 1437,3668 1437,3663.3333 1432.3333,3660.3333   C 1429.3333,3657 1423,3657 1417,3657   C 1412.3333,3657 1407.6667,3657 1403,3658.6667   C 1396.6667,3660.3333 1390.6667,3663.3333 1386,3666.3333   z  M 1801,3445.6667   C 1677.6667,3445.6667 1677.6667,3445.6667 1677.6667,3445.6667   C 1677.6667,3503 1677.6667,3503 1677.6667,3503   C 1677.6667,3503 1677.6667,3503 1677.6667,3503   C 1682.3333,3495 1690,3490.6667 1696,3487.3333   C 1703.6667,3482.6667 1711.3333,3479.6667 1720.6667,3479.6667   C 1728.3333,3479.6667 1734.6667,3481.3333 1740.6667,3484.3333   C 1747,3487.3333 1751.6667,3492 1756.3333,3496.6667   C 1761,3501.3333 1764,3507.3333 1767,3515.3333   C 1768.6667,3521.3333 1770,3529 1770,3536.6667   C 1770,3546 1768.6667,3553.6667 1765.3333,3561.3333   C 1762.3333,3569.3333 1757.6667,3577 1753,3581.6667   C 1748.6667,3587.6667 1742.3333,3594 1736.3333,3598.6667   C 1730,3603 1725.3333,3606.3333 1719.3333,3611   C 1705.3333,3587.6667 1705.3333,3587.6667 1705.3333,3587.6667   C 1708.3333,3587.6667 1710,3584.6667 1713,3584.6667   C 1716,3581.6667 1719.3333,3580 1722.3333,3577   C 1725.3333,3575.3333 1728.3333,3572.3333 1730,3569.3333   C 1733,3566 1736.3333,3563 1739.3333,3560   C 1740.6667,3557 1742.3333,3552.3333 1745.3333,3547.6667   C 1745.3333,3544.6667 1747,3540 1747,3535.3333   C 1747,3532.3333 1745.3333,3526 1745.3333,3523   C 1744,3519.6667 1742.3333,3515.3333 1739.3333,3513.6667   C 1736.3333,3510.6667 1733,3507.3333 1730,3507.3333   C 1728.3333,3504.3333 1723.6667,3504.3333 1719.3333,3504.3333   C 1714.6667,3504.3333 1710,3506 1705.3333,3507.3333   C 1700.6667,3510.6667 1696,3513.6667 1691.3333,3518.3333   C 1688.3333,3521.3333 1685.3333,3526 1682.3333,3530.6667   C 1679,3535.3333 1677.6667,3540 1677.6667,3543   C 1677.6667,3643.3333 1677.6667,3643.3333 1677.6667,3643.3333   C 1653,3643.3333 1653,3643.3333 1653,3643.3333   C 1653,3586 1653,3586 1653,3586   C 1653,3586 1653,3586 1653,3586   C 1649.6667,3587.6667 1648.3333,3589.3333 1646.6667,3590.6667   C 1645,3592.3333 1642,3594 1639,3595.3333   C 1636,3597 1631.3333,3598.6667 1628.3333,3600   C 1623.6667,3601.6667 1619,3601.6667 1614.3333,3601.6667   C 1605,3601.6667 1597.3333,3600 1589.6667,3597   C 1582,3592.3333 1575.6667,3589.3333 1571,3583   C 1565,3577 1562,3570.6667 1558.6667,3563   C 1555.6667,3555.3333 1554,3546 1554,3538.3333   C 1554,3529 1555.6667,3521.3333 1558.6667,3515.3333   C 1560.3333,3507.3333 1565,3501.3333 1569.6667,3495   C 1574.3333,3490.6667 1580.3333,3487.3333 1586.6667,3484.3333   C 1592.6667,3481.3333 1600.3333,3479.6667 1608,3479.6667   C 1612.6667,3479.6667 1617.3333,3481.3333 1622,3481.3333   C 1626.6667,3482.6667 1631.3333,3484.3333 1634.3333,3487.3333   C 1639,3489 1642,3490.6667 1645,3492   C 1648.3333,3495 1649.6667,3496.6667 1653,3498.3333   C 1653,3498.3333 1653,3498.3333 1653,3498.3333   C 1653,3445.6667 1653,3445.6667 1653,3445.6667   C 1531,3445.6667 1531,3445.6667 1531,3445.6667   C 1531,3422.6667 1531,3422.6667 1531,3422.6667   C 1801,3422.6667 1801,3422.6667 1801,3422.6667   z  M 1611.3333,3503   C 1605,3503 1600.3333,3504.3333 1595.6667,3507.3333   C 1592.6667,3509 1588,3512 1585,3515.3333   C 1583.3333,3518.3333 1580.3333,3523 1578.6667,3527.6667   C 1578.6667,3532.3333 1577.3333,3535.3333 1577.3333,3540   C 1577.3333,3546 1578.6667,3549 1578.6667,3553.6667   C 1582,3560 1583.3333,3563 1586.6667,3567.6667   C 1589.6667,3570.6667 1592.6667,3573.6667 1597.3333,3577   C 1602,3578.3333 1606.6667,3578.3333 1611.3333,3578.3333   C 1617.3333,3578.3333 1620.3333,3578.3333 1625,3577   C 1631.3333,3575.3333 1634.3333,3572.3333 1639,3567.6667   C 1643.6667,3564.6667 1646.6667,3560 1649.6667,3553.6667   C 1651.3333,3547.6667 1653,3540 1653,3532.3333   C 1653,3526 1653,3526 1653,3526   C 1649.6667,3523 1648.3333,3519.6667 1645,3516.6667   C 1642,3513.6667 1639,3512 1634.3333,3509   C 1631.3333,3507.3333 1626.6667,3506 1622,3504.3333   C 1619,3504.3333 1614.3333,3503 1611.3333,3503   z  M 1909,3445.6667   C 1847.3333,3445.6667 1847.3333,3445.6667 1847.3333,3445.6667   C 1847.3333,3643.3333 1847.3333,3643.3333 1847.3333,3643.3333   C 1824,3643.3333 1824,3643.3333 1824,3643.3333   C 1824,3445.6667 1824,3445.6667 1824,3445.6667   C 1801,3445.6667 1801,3445.6667 1801,3445.6667   C 1801,3422.6667 1801,3422.6667 1801,3422.6667   C 1909,3422.6667 1909,3422.6667 1909,3422.6667   z  M 1847.3333,3422.6667   C 1827.3333,3422.6667 1827.3333,3422.6667 1827.3333,3422.6667   C 1822.6667,3418 1822.6667,3418 1822.6667,3418   C 1815,3412 1808.6667,3405.6667 1802.6667,3401   C 1796.3333,3396.3333 1791.6667,3393.3333 1785.6667,3390.3333   C 1782.3333,3387.3333 1777.6667,3384 1774.6667,3382.6667   C 1771.6667,3381 1767,3381 1764,3379.3333   C 1761,3378 1757.6667,3378 1756.3333,3378   C 1753,3378 1750,3378 1747,3378   C 1719.3333,3378 1719.3333,3378 1719.3333,3378   C 1719.3333,3356.3333 1719.3333,3356.3333 1719.3333,3356.3333   C 1745.3333,3356.3333 1745.3333,3356.3333 1745.3333,3356.3333   C 1750,3356.3333 1753,3356.3333 1756.3333,3358   C 1761,3358 1764,3359.3333 1767,3361   C 1770,3362.3333 1774.6667,3364 1777.6667,3365.6667   C 1781,3367 1784,3370.3333 1788.6667,3373.3333   C 1793.3333,3376.3333 1798,3381 1802.6667,3384   C 1807,3390.3333 1813.3333,3395 1819.3333,3401   C 1819.3333,3399.6667 1819.3333,3399.6667 1819.3333,3399.6667   C 1813.3333,3390.3333 1808.6667,3382.6667 1805.6667,3376.3333   C 1801,3368.6667 1796.3333,3362.3333 1793.3333,3359.3333   C 1788.6667,3353.3333 1785.6667,3350 1784,3347   C 1781,3344 1777.6667,3341 1774.6667,3339.3333   C 1771.6667,3337.6667 1768.6667,3336.3333 1765.3333,3336.3333   C 1762.3333,3336.3333 1759.3333,3334.6667 1756.3333,3334.6667   C 1728.3333,3334.6667 1728.3333,3334.6667 1728.3333,3334.6667   C 1728.3333,3314.6667 1728.3333,3314.6667 1728.3333,3314.6667   C 1754.6667,3314.6667 1754.6667,3314.6667 1754.6667,3314.6667   C 1761,3314.6667 1765.3333,3314.6667 1770,3314.6667   C 1774.6667,3316.3333 1777.6667,3317.6667 1782.3333,3321   C 1785.6667,3324 1790,3328.6667 1794.6667,3333.3333   C 1798,3337.6667 1802.6667,3344 1808.6667,3351.6667   C 1811.6667,3359.3333 1818,3368.6667 1824,3379.3333   C 1828.6667,3390.3333 1836.3333,3402.6667 1844,3416.3333   z  M 2003,3524.3333   C 2000,3524.3333 1998.3333,3526 1997,3526   C 1995.3333,3526 1993.6667,3526 1992.3333,3526   C 1984.6667,3526 1976.6667,3524.3333 1970.6667,3521.3333   C 1964.3333,3518.3333 1958.3333,3515.3333 1953.6667,3509   C 1950.6667,3504.3333 1946,3499.6667 1944.3333,3492   C 1941.3333,3487.3333 1939.6667,3479.6667 1939.6667,3473.6667   C 1939.6667,3467.3333 1941.3333,3462.6667 1941.3333,3459.6667   C 1944.3333,3453.6667 1946,3449 1949,3445.6667   C 1949,3445.6667 1949,3445.6667 1949,3445.6667   C 1909,3445.6667 1909,3445.6667 1909,3445.6667   C 1909,3422.6667 1909,3422.6667 1909,3422.6667   C 2174.3333,3422.6667 2174.3333,3422.6667 2174.3333,3422.6667   C 2174.3333,3445.6667 2174.3333,3445.6667 2174.3333,3445.6667   C 2117.3333,3445.6667 2117.3333,3445.6667 2117.3333,3445.6667   C 2117.3333,3643.3333 2117.3333,3643.3333 2117.3333,3643.3333   C 2091,3643.3333 2091,3643.3333 2091,3643.3333   C 2091,3445.6667 2091,3445.6667 2091,3445.6667   C 2037,3445.6667 2037,3445.6667 2037,3445.6667   C 2037,3445.6667 2037,3445.6667 2037,3445.6667   C 2038.6667,3449 2041.6667,3450.3333 2044.6667,3455   C 2046.3333,3458 2047.6667,3462.6667 2049.3333,3466   C 2051,3470.3333 2052.3333,3475 2052.3333,3479.6667   C 2054,3484.3333 2054,3489 2054,3493.6667   C 2054,3501.3333 2052.3333,3509 2051,3515.3333   C 2047.6667,3523 2044.6667,3529 2040,3536.6667   C 2035.3333,3543 2030.6667,3547.6667 2024.6667,3553.6667   C 2018.3333,3560 2012.3333,3564.6667 2004.6667,3567.6667   C 2004.6667,3567.6667 2004.6667,3567.6667 2004.6667,3567.6667   C 2009.3333,3572.3333 2014,3577 2020,3581.6667   C 2024.6667,3587.6667 2030.6667,3592.3333 2037,3598.6667   C 2041.6667,3604.6667 2046.3333,3611 2052.3333,3617   C 2057,3621.6667 2061.6667,3627.6667 2064.6667,3632.3333   C 2047.6667,3646.3333 2047.6667,3646.3333 2047.6667,3646.3333   C 2044.6667,3643.3333 2041.6667,3637 2037,3632.3333   C 2032.3333,3626.3333 2027.6667,3621.6667 2021.6667,3615.3333   C 2015.3333,3609.3333 2009.3333,3603 2003,3597   C 1997,3590.6667 1989,3584.6667 1983,3580   C 1978.3333,3581.6667 1975.3333,3583 1972.3333,3584.6667   C 1967.6667,3584.6667 1964.3333,3584.6667 1960,3584.6667   C 1955.3333,3584.6667 1950.6667,3584.6667 1947.6667,3583   C 1943,3581.6667 1938.3333,3581.6667 1936.6667,3578.3333   C 1933.6667,3577 1930.6667,3573.6667 1929,3570.6667   C 1927.3333,3567.6667 1926,3564.6667 1926,3561.3333   C 1926,3553.6667 1927.3333,3550.6667 1933.6667,3546   C 1936.6667,3543 1943,3541.3333 1950.6667,3541.3333   C 1955.3333,3541.3333 1961.3333,3543 1966,3544.6667   C 1972.3333,3546 1978.3333,3549 1983,3553.6667   C 1986,3552.3333 1989,3552.3333 1992.3333,3549   C 1995.3333,3547.6667 2000,3546 2003,3543   C 2006,3541.3333 2010.6667,3538.3333 2014,3535.3333   C 2017,3532.3333 2018.3333,3529 2021.6667,3524.3333   C 2024.6667,3519.6667 2027.6667,3515.3333 2027.6667,3510.6667   C 2030.6667,3504.3333 2030.6667,3499.6667 2030.6667,3493.6667   C 2030.6667,3487.3333 2030.6667,3481.3333 2027.6667,3476.6667   C 2027.6667,3470.3333 2024.6667,3466 2021.6667,3461.3333   C 2017,3456.6667 2014,3453.6667 2007.6667,3450.3333   C 2003,3449 1997,3445.6667 1992.3333,3445.6667   C 1986,3445.6667 1981.3333,3447.3333 1978.3333,3449   C 1975.3333,3450.3333 1972.3333,3452 1969,3455   C 1967.6667,3458 1966,3459.6667 1966,3462.6667   C 1964.3333,3467.3333 1964.3333,3470.3333 1964.3333,3473.6667   C 1964.3333,3476.6667 1964.3333,3479.6667 1966,3484.3333   C 1967.6667,3487.3333 1969,3490.6667 1972.3333,3493.6667   C 1975.3333,3496.6667 1978.3333,3498.3333 1983,3501.3333   C 1986,3503 1990.6667,3504.3333 1997,3504.3333   C 1997,3504.3333 2000,3503 2003,3503   z  M 2424,3445.6667   C 2364,3445.6667 2364,3445.6667 2364,3445.6667   C 2364,3643.3333 2364,3643.3333 2364,3643.3333   C 2339.3333,3643.3333 2339.3333,3643.3333 2339.3333,3643.3333   C 2339.3333,3504.3333 2339.3333,3504.3333 2339.3333,3504.3333   C 2334.6667,3503 2330,3501.3333 2325.3333,3501.3333   C 2320.6667,3501.3333 2316.3333,3503 2313,3504.3333   C 2310,3507.3333 2307,3509 2305.3333,3512   C 2302.3333,3515.3333 2300.6667,3518.3333 2299.3333,3521.3333   C 2297.6667,3526 2297.6667,3529 2297.6667,3533.6667   C 2297.6667,3535.3333 2297.6667,3536.6667 2297.6667,3538.3333   C 2297.6667,3540 2297.6667,3543 2297.6667,3543   C 2276,3543 2276,3543 2276,3543   C 2274.6667,3536.6667 2274.6667,3532.3333 2273,3527.6667   C 2271.3333,3523 2270,3518.3333 2270,3513.6667   C 2266.6667,3509 2263.6667,3507.3333 2260.6667,3504.3333   C 2257.6667,3501.3333 2254.3333,3501.3333 2250,3501.3333   C 2245.3333,3501.3333 2242,3501.3333 2237.6667,3504.3333   C 2234.3333,3506 2231.3333,3507.3333 2229.6667,3512   C 2226.6667,3515.3333 2225.3333,3518.3333 2225.3333,3523   C 2223.6667,3527.6667 2223.6667,3532.3333 2223.6667,3536.6667   C 2223.6667,3547.6667 2225.3333,3558.3333 2228.3333,3567.6667   C 2233,3577 2239,3584.6667 2243.6667,3590.6667   C 2251.3333,3598.6667 2257.6667,3604.6667 2266.6667,3609.3333   C 2274.6667,3615.3333 2285.3333,3621.6667 2294.6667,3626.3333   C 2282.3333,3646.3333 2282.3333,3646.3333 2282.3333,3646.3333   C 2279,3644.6667 2274.6667,3641.6667 2270,3638.6667   C 2263.6667,3635.6667 2257.6667,3632.3333 2251.3333,3626.3333   C 2243.6667,3623.3333 2239,3617 2233,3611   C 2226.6667,3604.6667 2220.6667,3598.6667 2216,3590.6667   C 2211.3333,3583 2206.6667,3573.6667 2202,3564.6667   C 2199,3557 2199,3546 2199,3535.3333   C 2199,3526 2199,3519.6667 2202,3512   C 2205,3504.3333 2208.3333,3498.3333 2211.3333,3493.6667   C 2216,3489 2222,3484.3333 2226.6667,3481.3333   C 2234.3333,3478.3333 2240.6667,3476.6667 2248.3333,3476.6667   C 2254.3333,3476.6667 2259,3478.3333 2263.6667,3478.3333   C 2266.6667,3481.3333 2271.3333,3482.6667 2274.6667,3486   C 2277.6667,3487.3333 2279,3490.6667 2280.6667,3492   C 2282.3333,3495 2285.3333,3498.3333 2285.3333,3501.3333   C 2287,3501.3333 2287,3501.3333 2287,3501.3333   C 2288.3333,3496.6667 2291.6667,3492 2294.6667,3490.6667   C 2296,3487.3333 2299.3333,3484.3333 2302.3333,3484.3333   C 2305.3333,3481.3333 2308.3333,3481.3333 2311.6667,3479.6667   C 2316.3333,3478.3333 2319.3333,3478.3333 2322.3333,3478.3333   C 2325.3333,3478.3333 2328.6667,3478.3333 2331.6667,3478.3333   C 2334.6667,3479.6667 2336.3333,3481.3333 2339.3333,3481.3333   C 2339.3333,3445.6667 2339.3333,3445.6667 2339.3333,3445.6667   C 2174.3333,3445.6667 2174.3333,3445.6667 2174.3333,3445.6667   C 2174.3333,3422.6667 2174.3333,3422.6667 2174.3333,3422.6667   C 2424,3422.6667 2424,3422.6667 2424,3422.6667   z  M 2629.3333,3445.6667   C 2598.3333,3445.6667 2598.3333,3445.6667 2598.3333,3445.6667   C 2598.3333,3643.3333 2598.3333,3643.3333 2598.3333,3643.3333   C 2575.3333,3643.3333 2575.3333,3643.3333 2575.3333,3643.3333   C 2575.3333,3560 2575.3333,3560 2575.3333,3560   C 2493.6667,3560 2493.6667,3560 2493.6667,3560   C 2493.6667,3577 2493.6667,3577 2493.6667,3577   C 2493.6667,3580 2493.6667,3583 2493.6667,3584.6667   C 2493.6667,3587.6667 2493.6667,3590.6667 2492,3590.6667   C 2490.3333,3592.3333 2490.3333,3594 2489,3595.3333   C 2487.3333,3595.3333 2486,3595.3333 2482.6667,3595.3333   C 2479.6667,3595.3333 2476.6667,3595.3333 2473.6667,3594   C 2472,3592.3333 2467.3333,3590.6667 2464.3333,3587.6667   C 2461.3333,3584.6667 2458,3581.6667 2455,3578.3333   C 2452,3575.3333 2449,3572.3333 2447.3333,3567.6667   C 2444.3333,3564.6667 2442.6667,3561.3333 2441,3558.3333   C 2439.6667,3553.6667 2438,3552.3333 2438,3547.6667   C 2438,3546 2439.6667,3544.6667 2441,3543   C 2441,3543 2441,3541.3333 2444.3333,3540   C 2444.3333,3540 2445.6667,3540 2449,3538.3333   C 2449,3538.3333 2452,3538.3333 2455,3538.3333   C 2470.3333,3538.3333 2470.3333,3538.3333 2470.3333,3538.3333   C 2470.3333,3445.6667 2470.3333,3445.6667 2470.3333,3445.6667   C 2424,3445.6667 2424,3445.6667 2424,3445.6667   C 2424,3422.6667 2424,3422.6667 2424,3422.6667   C 2629.3333,3422.6667 2629.3333,3422.6667 2629.3333,3422.6667   z  M 2493.6667,3445.6667   C 2493.6667,3538.3333 2493.6667,3538.3333 2493.6667,3538.3333   C 2575.3333,3538.3333 2575.3333,3538.3333 2575.3333,3538.3333   C 2575.3333,3445.6667 2575.3333,3445.6667 2575.3333,3445.6667   z  M 2643.3333,3714.3333   C 2584.6667,3660.3333 2584.6667,3660.3333 2584.6667,3660.3333   C 2575.3333,3643.3333 2575.3333,3643.3333 2575.3333,3643.3333   C 2598.3333,3643.3333 2598.3333,3643.3333 2598.3333,3643.3333   C 2657,3697.3333 2657,3697.3333 2657,3697.3333   z "
     style="fill:#ffffff;fill-rule:evenodd;fill-opacity:1;stroke:none;" />
</svg>
