<svg id="Layer_1" data-name="Layer 1" xmlns="http://www.w3.org/2000/svg" viewBox="0 0 770.21 234.13"><defs><style>.cls-1{fill:#d01e3a;}.cls-1,.cls-2{fill-rule:evenodd;}.cls-2,.cls-3{fill:#fff;}</style></defs><path class="cls-1" d="M0,0H169.24V83.08H149.78v1.6c0,11.17,0,22.33,0,33.49a61.32,61.32,0,0,1-.41,6.64c-.66,5.78-3.76,8.39-9.6,8.21-5-.16-8.3-3.16-8.73-8.2-.26-3.08-.23-6.2-.46-9.29A84.49,84.49,0,0,0,129.47,105c-2.78-13.36-12.17-21.43-25.82-21.84C92.27,82.78,80.88,83,69.5,83a3.52,3.52,0,0,0-.76.19v64.55h2c8.55,0,17.1.06,25.66,0a82.33,82.33,0,0,0,9.28-.63A28.9,28.9,0,0,0,116,143.73c-5.18-5.13-6.92-11.54-7.5-18.78-2.09,3.13-4.6,5.17-7.83,5.61-3.91.54-7.9.49-11.94.7V99.62c2.67,0,5.23-.19,7.75,0,9.15.81,13.56,5.33,14.09,14.5.26,4.37-.09,8.78.3,13.12.9,10,6.13,17.48,16.39,20.31a48.79,48.79,0,0,0,25,.23c7.56-1.86,12.94-6.18,15.6-13.48l-.37,3.37c-7.89,35-42,61.38-82.9,61.38s-75-26.36-82.9-61.38L.06,122.78H0V56.66L52.38,70.6a5.82,5.82,0,1,0,3-11.24L0,44.6V37L52.38,51a5.82,5.82,0,1,0,3-11.24L0,25V17.45l52.38,14a5.86,5.86,0,0,0,3-11.32L0,5.32V0ZM114.81,83.06c7.65,3.44,12.61,9.28,15.65,17.37V83.06Z"/><path class="cls-2" d="M170.34,233.87l-3.83-3.58-.58-1.09h1.55l3.83,3.56-1,1.11Zm-9.73-17.6v6.11h5.32v-6.11Zm8.88,0v-1.43H156.06v1.43h3v6.11h-1.43c-.14.06-.26.06-.33.13s-.2.12-.2.19a.58.58,0,0,0-.12.32,1.52,1.52,0,0,0,.19.65,1.87,1.87,0,0,0,.39.65,5.3,5.3,0,0,0,.51.72l.6.58c.19.13.44.27.64.39a1.71,1.71,0,0,0,.52.13,1.07,1.07,0,0,0,.46-.06,1.6,1.6,0,0,0,.19-.26c.06-.07.06-.2.13-.39v-1.62h5.32v5.39h1.55V216.27Zm-13.43,0h-4V229.2h-1.55v-9a2.83,2.83,0,0,0-1-.19,1.83,1.83,0,0,0-.78.19,1.79,1.79,0,0,0-.52.46,2,2,0,0,0-.39.65,3,3,0,0,0-.07.78v.65h-1.43c-.05-.39-.12-.72-.19-1s-.19-.65-.25-.91a1.7,1.7,0,0,0-.53-.59,1,1,0,0,0-.77-.26,1.6,1.6,0,0,0-.78.21,1.27,1.27,0,0,0-.52.51,2.08,2.08,0,0,0-.32.78,3.7,3.7,0,0,0-.07.91,6,6,0,0,0,.33,1.95,6.25,6.25,0,0,0,1,1.56,5.12,5.12,0,0,0,1.48,1.23,15.36,15.36,0,0,0,1.76,1l-.79,1.3a5.82,5.82,0,0,1-.83-.46,6.09,6.09,0,0,1-1.18-.77,6.93,6.93,0,0,1-1.23-1,7.59,7.59,0,0,1-1.1-1.37,9.11,9.11,0,0,1-.84-1.62,6,6,0,0,1-.27-1.94,5.19,5.19,0,0,1,.2-1.5,4,4,0,0,1,.65-1.23,3.68,3.68,0,0,1,1-.79,3.16,3.16,0,0,1,1.36-.32,4.94,4.94,0,0,1,1,.12,3.46,3.46,0,0,1,.71.46,5,5,0,0,1,.46.46c.12.19.25.39.31.51h.07a1.76,1.76,0,0,1,.46-.64,1.09,1.09,0,0,1,.51-.45,2.63,2.63,0,0,1,.66-.27,2.51,2.51,0,0,1,.65-.12c.25,0,.44.05.64.05s.33.14.52.2v-2.4H139.72v-1.43h16.34v1.43Zm-27.62,5.2V220a2,2,0,0,0-.39.07,1.75,1.75,0,0,1-.91-.21,2.31,2.31,0,0,1-.71-.44,6.16,6.16,0,0,1-.4-.65,4,4,0,0,1-.13-.72,3.1,3.1,0,0,1,.13-.65,2.3,2.3,0,0,1,.26-.52,1,1,0,0,1,.58-.39,1.43,1.43,0,0,1,.85-.19,3.11,3.11,0,0,1,1.11.25,4.44,4.44,0,0,1,.84.72,2.77,2.77,0,0,1,.45,1,3,3,0,0,1,.19,1.11,3.25,3.25,0,0,1-.19,1.09,2.71,2.71,0,0,1-.39.92,9.08,9.08,0,0,1-.58.72,3.28,3.28,0,0,1-.71.51,2,2,0,0,1-.65.39c-.26.13-.46.19-.58.26a4.23,4.23,0,0,0-1.11-.58,2.71,2.71,0,0,0-1-.2,2,2,0,0,0-1.17.32,1.12,1.12,0,0,0-.45,1,1.38,1.38,0,0,0,.19.66,3.58,3.58,0,0,0,.46.52,2.35,2.35,0,0,0,.72.26,4,4,0,0,0,.83.13,3,3,0,0,0,.79-.07,3.24,3.24,0,0,0,.71-.26,10.94,10.94,0,0,1,1.36,1.1l1.17,1.18c.39.39.71.78,1,1.1a6.39,6.39,0,0,0,.72.91l1.1-.91c-.26-.27-.52-.65-.84-1l-1-1.17c-.39-.4-.78-.72-1.1-1.11s-.72-.65-1-.91h0a4.9,4.9,0,0,0,1.31-1,4.22,4.22,0,0,0,1-1.11,5.77,5.77,0,0,0,.72-1.36,5.41,5.41,0,0,0,.2-1.42,3.78,3.78,0,0,0-.07-.92,5.39,5.39,0,0,0-.25-.91,2.58,2.58,0,0,0-.33-.71c-.2-.26-.32-.46-.46-.65h3.57V229.2h1.63V216.27h3.82v-1.43H122.27v1.43h2.66a4.06,4.06,0,0,0-.45.91,3.63,3.63,0,0,0-.13.91,2.86,2.86,0,0,0,.26,1.3,3.32,3.32,0,0,0,.64,1.1,4.38,4.38,0,0,0,1.11.78,3.21,3.21,0,0,0,1.43.26h.32a2.93,2.93,0,0,1,.33-.06Zm-10.19-6.63H117l-.39-.33-1.3-1.11a7,7,0,0,0-1-.7,2.51,2.51,0,0,0-.78-.53l-.65-.19a2,2,0,0,0-.58-.13h-2.4v-1.36h1.69a2.93,2.93,0,0,1,.78.06,1.39,1.39,0,0,1,.71.19,3.62,3.62,0,0,1,.65.33c.26.13.45.32.77.52s.53.45.85.72.72.65,1.11,1l0-.07c-.38-.58-.7-1.11-1-1.56s-.58-.84-.77-1.1-.46-.59-.65-.78a2,2,0,0,0-.59-.46,2.3,2.3,0,0,0-.58-.26c-.19,0-.39-.07-.65-.07h-1.82v-1.36h1.76a4,4,0,0,1,1,.07,2.06,2.06,0,0,1,.85.39,5.2,5.2,0,0,1,.78.78,12,12,0,0,1,.9,1.23c.26.52.65,1.11,1,1.82s.77,1.49,1.3,2.46l.19.4Zm4,1.43v-1.43h-7v1.43h1.49V229.2h1.56V216.27ZM102.81,220a1.7,1.7,0,0,0-1,.26,3.12,3.12,0,0,0-.72.51,4.41,4.41,0,0,0-.39.85,4.24,4.24,0,0,0-.12.85,6,6,0,0,0,.12.91,2.49,2.49,0,0,0,.53.84,3.41,3.41,0,0,0,.71.59,2.21,2.21,0,0,0,.91.19,2.42,2.42,0,0,0,.9-.19,2.3,2.3,0,0,0,.92-.53,4.31,4.31,0,0,0,.65-1,4.52,4.52,0,0,0,.25-1.37v-.45a6.34,6.34,0,0,0-.58-.59,2.51,2.51,0,0,0-.65-.45,4.34,4.34,0,0,0-.78-.33,4.08,4.08,0,0,0-.78-.12Zm12.46-3.77v-1.43H97.63v1.43h7.91v3.51h0a3.2,3.2,0,0,0-.52-.39,4.85,4.85,0,0,0-.65-.39,3.07,3.07,0,0,0-.85-.33,4,4,0,0,0-.9-.13,3.44,3.44,0,0,0-1.43.27,4.52,4.52,0,0,0-1.11.77,3.32,3.32,0,0,0-.7,1.23,3.89,3.89,0,0,0-.32,1.57,4.71,4.71,0,0,0,.32,1.62,4,4,0,0,0,.84,1.3,3.51,3.51,0,0,0,1.23.9,3.81,3.81,0,0,0,1.56.34,3.62,3.62,0,0,0,.91-.14c.25-.06.51-.2.71-.26a2.72,2.72,0,0,0,.51-.39c.14-.06.27-.2.4-.25h0v3.7h1.62v-6.5a2.93,2.93,0,0,1,.32-.85,7.93,7.93,0,0,1,.65-.84,3.91,3.91,0,0,1,.85-.65,2.63,2.63,0,0,1,1-.25,1.22,1.22,0,0,1,.71.19,1.63,1.63,0,0,1,.58.45,1.53,1.53,0,0,1,.33.65,3,3,0,0,1,.13.79,4,4,0,0,1-.13.83c-.14.26-.26.52-.39.72a2.75,2.75,0,0,1-.52.65,4.32,4.32,0,0,1-.58.51,3.38,3.38,0,0,1-.59.46,3,3,0,0,0-.45.26l.84,1.5a14.37,14.37,0,0,0,1.17-.85,5.65,5.65,0,0,0,1.1-1,4.46,4.46,0,0,0,.78-1.37,4.1,4.1,0,0,0,.32-1.62,5.16,5.16,0,0,0-.25-1.43,3.5,3.5,0,0,0-.72-1.16,2.91,2.91,0,0,0-1-.79,3,3,0,0,0-1.3-.32,3.56,3.56,0,0,0-1.62.46,3.7,3.7,0,0,0-1.23,1h0v-3.77Zm-26,0H84.2a9.06,9.06,0,0,1,.58,1.76,5.27,5.27,0,0,1,.26,1.75,3.29,3.29,0,0,1-.06.77c-.07.26-.13.53-.2.72v.07h4.48v-5.07Zm3.63-1.43v1.43h-2v12.47l.39.07a2.31,2.31,0,0,1,.9.51,1.84,1.84,0,0,1,.59.78,2.71,2.71,0,0,1,.2,1,2.56,2.56,0,0,1-.26,1.17,2.27,2.27,0,0,1-.72.91,3.1,3.1,0,0,1-1.24.65,5.91,5.91,0,0,1-1.62.26,5.61,5.61,0,0,1-1.94-.32,8.92,8.92,0,0,1-1.55-.72c-.46-.32-.85-.65-1.24-1s-.65-.72-.91-1l.91-1,1,1a13.36,13.36,0,0,0,1,.85,9.88,9.88,0,0,0,1.17.51,4.36,4.36,0,0,0,1.42.19,5.29,5.29,0,0,0,1.1-.12,6.54,6.54,0,0,0,.79-.33,1,1,0,0,0,.39-.52.74.74,0,0,0,.12-.52.91.91,0,0,0-.32-.78,1.69,1.69,0,0,0-1-.26,2.22,2.22,0,0,0-.91.14,3,3,0,0,0-1.1.45l-.65-1.23a4.41,4.41,0,0,1,1.36-.59,3.43,3.43,0,0,1,.46-.11V222.7H83.74a2,2,0,0,1-1.23.39v.07a21.82,21.82,0,0,0,2,2.73,19.89,19.89,0,0,0,2.53,2.32l-1,1.18c-.52-.39-1-.84-1.55-1.3s-.91-1-1.37-1.43-.84-1-1.23-1.56-.71-1-1-1.49-.58-1-.84-1.49-.45-.85-.65-1.31l1.36-.65a3,3,0,0,0,.32.65,1.45,1.45,0,0,0,.4.46,1.16,1.16,0,0,0,.39.26.86.86,0,0,0,.39.06,1,1,0,0,0,1-.51,2.15,2.15,0,0,0,.32-1.37,5.32,5.32,0,0,0-.06-1c-.07-.32-.19-.65-.26-.92s-.19-.58-.32-.83a6,6,0,0,1-.33-.72H78.42v-1.43Zm-16.51-4.35a4,4,0,0,0-.85-.65,1.21,1.21,0,0,0-.84-.25,1.51,1.51,0,0,0-1.17.51,2,2,0,0,0-.46,1.43,4.35,4.35,0,0,0,.06.85,8.56,8.56,0,0,0,.26.84c.14.26.27.53.39.78a4,4,0,0,0,.59.84H72.73a6.3,6.3,0,0,1-.83-1.69,5.61,5.61,0,0,1-.33-1.69,5.41,5.41,0,0,1,.26-1.42,3.1,3.1,0,0,1,.71-1,2.77,2.77,0,0,1,1-.66,4,4,0,0,1,1.17-.19,2.75,2.75,0,0,1,1.48.33,3.5,3.5,0,0,1,1.23,1l-1,1Zm-8.66,5.78v6.11H73v-6.11Zm10.7,0v-1.43H63.24v1.43h2.93v6.11h-1.5c-.12.06-.19.06-.32.13a1.14,1.14,0,0,0-.19.19.45.45,0,0,0-.07.32,3.62,3.62,0,0,0,.12.65c.14.19.27.46.39.65s.33.46.53.72.45.39.65.58a4.71,4.71,0,0,0,.64.39,1.86,1.86,0,0,0,.52.13c.2,0,.32,0,.39-.06a.55.55,0,0,0,.26-.26c.06-.07.06-.2.06-.39a1.22,1.22,0,0,0,.07-.53v-1.09H73v5.39h1.56V216.27ZM48.77,220a1.62,1.62,0,0,0-1,.26,2,2,0,0,0-.7.51,1.88,1.88,0,0,0-.39.85,1.72,1.72,0,0,0-.2.85,2.21,2.21,0,0,0,.2.91,3.35,3.35,0,0,0,.44.84,7.59,7.59,0,0,0,.72.59,2.5,2.5,0,0,0,1,.19,2.85,2.85,0,0,0,.92-.19,2,2,0,0,0,.83-.53,2.55,2.55,0,0,0,.65-1A3,3,0,0,0,51.5,222v-.45a5.07,5.07,0,0,0-.51-.59,2.75,2.75,0,0,0-.72-.45,2.58,2.58,0,0,0-.71-.33,4.19,4.19,0,0,0-.79-.12Zm14.47-3.77H53.06V220h.06a3.22,3.22,0,0,1,1.24-1,3.13,3.13,0,0,1,1.55-.46,3,3,0,0,1,1.3.32,4.34,4.34,0,0,1,1,.79,3.53,3.53,0,0,1,.65,1.16,3.46,3.46,0,0,1,.26,1.43,3.27,3.27,0,0,1-.32,1.62,4.67,4.67,0,0,1-.78,1.37,5.39,5.39,0,0,1-1,1l-1.23.85-.85-1.5a2.69,2.69,0,0,1,.46-.26,3.33,3.33,0,0,0,.58-.46,3.78,3.78,0,0,0,.58-.51,5.34,5.34,0,0,0,.58-.65,2.39,2.39,0,0,0,.34-.72,2.09,2.09,0,0,0,.19-.83,2.59,2.59,0,0,0-.14-.79,2.42,2.42,0,0,0-.39-.65,1,1,0,0,0-.51-.45,1.39,1.39,0,0,0-.72-.19,2.68,2.68,0,0,0-1,.25,4.1,4.1,0,0,0-.84.65,3.67,3.67,0,0,0-.65.84,3.09,3.09,0,0,0-.39.85v6.5H51.5v-3.7h-.06a1.65,1.65,0,0,1-.33.25,3.07,3.07,0,0,1-.58.39,4,4,0,0,1-.72.26,3.47,3.47,0,0,1-.9.14,4.08,4.08,0,0,1-1.56-.34,4.44,4.44,0,0,1-1.23-.9,5.35,5.35,0,0,1-.84-1.3,4.86,4.86,0,0,1-.26-1.62,4.08,4.08,0,0,1,.26-1.57,4.73,4.73,0,0,1,.78-1.23,2.86,2.86,0,0,1,1.09-.77,3,3,0,0,1,1.37-.27,5.38,5.38,0,0,1,1,.13,2.51,2.51,0,0,1,.78.33,5.3,5.3,0,0,1,.72.39,2.53,2.53,0,0,1,.45.39h.06v-3.51h-8v-1.43H63.24v1.43ZM36.39,229.39a1.08,1.08,0,0,1-.78-.33,1,1,0,0,1-.32-.78,1,1,0,0,1,.32-.71.87.87,0,0,1,.78-.33.82.82,0,0,1,.71.33.8.8,0,0,1,.32.71.84.84,0,0,1-.32.78,1.05,1.05,0,0,1-.71.33Zm0-8.12a1,1,0,0,1-.78-.33,1,1,0,0,1-.32-.78,1,1,0,0,1,.32-.7.85.85,0,0,1,.78-.34.8.8,0,0,1,.71.34.77.77,0,0,1,.32.7.84.84,0,0,1-.32.78,1,1,0,0,1-.71.33Zm-4-5h-2V229.2H28.8V216.27H24.45v7.79a1,1,0,0,1-.06.4,2.7,2.7,0,0,1-.19.32.88.88,0,0,1-.39.12,1,1,0,0,1-.59-.19,4.4,4.4,0,0,1-.64-.39l-.65-.65c-.2-.25-.34-.45-.53-.71s-.25-.45-.39-.72a3.16,3.16,0,0,1-.12-.58.66.66,0,0,1,.12-.39.78.78,0,0,1,.33-.26c.13,0,.32-.07.52-.07h1v-4.67h-3v-1.43H32.43v1.43ZM15.7,214.84H14.32l-.76-1.37a14.24,14.24,0,0,0-1-1.68,3.55,3.55,0,0,0-.91-.91,1.6,1.6,0,0,0-.78-.46c-.25,0-.51-.07-.84-.07H8.23V208.8H10c.32,0,.71.07,1,.07a3.19,3.19,0,0,1,.85.32,2.83,2.83,0,0,1,.84.72,7.6,7.6,0,0,1,.84,1c.26.44.59,1,.91,1.55s.78,1.37,1.23,2.21l.07.13Zm4.15,1.43v-1.43h-7v1.43h1.5V229.2H16V216.27Zm-15.37,0a6.29,6.29,0,0,1,.51,1.3,4.56,4.56,0,0,1,.19,1.36,4.06,4.06,0,0,1-.12.91,2.2,2.2,0,0,1-.39.85,2.35,2.35,0,0,1-.65.71,2.32,2.32,0,0,1-1,.52,3.72,3.72,0,0,0,.46,1.1,2.44,2.44,0,0,0,.65.79,1.69,1.69,0,0,0,.77.38,2.48,2.48,0,0,0,1,.13,2.5,2.5,0,0,0,1-.13,2.71,2.71,0,0,0,1-.33,4.46,4.46,0,0,0,.77-.51,2.86,2.86,0,0,0,.65-.65v-6.43Zm8.42,0v-1.43H0v1.43H2.73a4,4,0,0,1,.44.72,2.8,2.8,0,0,1,.27.71,2.62,2.62,0,0,1,.19.58v.53a1.31,1.31,0,0,1-.12.7,1.36,1.36,0,0,1-.39.65,3.45,3.45,0,0,1-.72.53,4.85,4.85,0,0,1-1.1.25,14,14,0,0,0,.45,1.83,4.49,4.49,0,0,0,.84,1.55,4.42,4.42,0,0,0,1.3,1.11,4.34,4.34,0,0,0,1.95.39,5.92,5.92,0,0,0,1-.13,7.1,7.1,0,0,0,1-.26,4,4,0,0,0,.77-.33,5.22,5.22,0,0,0,.65-.45h0v4.55h1.62V216.27Z"/><path class="cls-2" d="M274.93,171.51c0,17.11-7,28.44-25.13,28.44-17.41,0-24-11.08-24-27.42V131.3h7.81V172c0,5.23.78,11.45,4.18,15.65,3.17,3.91,8,5.06,12.85,5.06,12.57,0,16.43-8.61,16.43-20.06V131.3h7.82v40.21Zm29.51-27.24c0,.9,0,1.81,0,2.71v51.84h-7.82V131.3h8l36.19,52.56c.37.56.74,1.12,1.1,1.69,0-.09,0-.17,0-.26-.06-1.4-.08-2.81-.08-4.22V131.3h7.9v67.52h-7.63l-36.82-53.2c-.3-.45-.6-.9-.89-1.35Zm75.73,54.55h-7.82V131.3h7.82v67.52Zm43.36-11.58c.28-1,.6-1.93,1-2.88L444.1,131.3h8.44l-25.62,67.52h-7.16L395.18,131.3h8.67l18.83,53.15c.33.92.6,1.85.85,2.79Zm51.85-48.59V161h24.07v7.25H475.38v23.3h27.45v7.26H467.56V131.3h33.8v7.35Zm54.5,31.49v28.68h-7.81V131.3h19.79a24.4,24.4,0,0,1,7.45,1.14,19.82,19.82,0,0,1,6.44,3.4,16.9,16.9,0,0,1,4.57,5.7,17.68,17.68,0,0,1,1.72,7.94,19.7,19.7,0,0,1-1.11,6.72,17.41,17.41,0,0,1-3.16,5.47,18.44,18.44,0,0,1-4.94,4,22.41,22.41,0,0,1-4.59,2,10.29,10.29,0,0,1,.86.61,14.89,14.89,0,0,1,2.25,2.24,25.29,25.29,0,0,1,2.11,2.93c.76,1.21,1.47,2.47,2.13,3.73l11.73,21.66h-9.1l-10.14-19.34a36.82,36.82,0,0,0-2.79-4.58,13.84,13.84,0,0,0-2.66-2.85,8.54,8.54,0,0,0-2.85-1.45,12.63,12.63,0,0,0-3.51-.46ZM597.3,200a32.36,32.36,0,0,1-3.81-.26q-2.24-.27-4.44-.75a40.1,40.1,0,0,1-4.29-1.19,15.77,15.77,0,0,1-3.4-1.54L581,196V186.6l1.37,1a22.19,22.19,0,0,0,3.52,2.14,27.15,27.15,0,0,0,4,1.61,27.93,27.93,0,0,0,4.06,1,24.25,24.25,0,0,0,3.9.33c3.5,0,7.79-.48,10.65-2.7a9.07,9.07,0,0,0,3.38-7.62,10.41,10.41,0,0,0-.8-4.23,10.58,10.58,0,0,0-2.5-3.37,26.66,26.66,0,0,0-4.49-3.26c-2.18-1.3-4.37-2.55-6.59-3.78-2.47-1.36-4.95-2.79-7.29-4.38a27.15,27.15,0,0,1-5.06-4.32,14.8,14.8,0,0,1-3-4.89,17.39,17.39,0,0,1-1-5.94,15.82,15.82,0,0,1,1.8-7.57,17.62,17.62,0,0,1,4.82-5.66,22.39,22.39,0,0,1,7-3.57,28.89,28.89,0,0,1,8.52-1.23,35.35,35.35,0,0,1,13.32,2.23l.52.22v8.78l-1.28-.73a26.06,26.06,0,0,0-13.23-3.24,19.83,19.83,0,0,0-5.31.67,13.55,13.55,0,0,0-4.26,2,9.34,9.34,0,0,0-2.81,3.15,8.85,8.85,0,0,0-1,4.34,10.9,10.9,0,0,0,.69,4.11,9.79,9.79,0,0,0,2.26,3.22,22.15,22.15,0,0,0,4.23,3.17c2.19,1.29,4.41,2.52,6.65,3.72a82,82,0,0,1,7.27,4.34,29.39,29.39,0,0,1,5.27,4.49,17,17,0,0,1,3.22,5.09,16.05,16.05,0,0,1,1.06,6,18.11,18.11,0,0,1-1.68,8,15.64,15.64,0,0,1-4.76,5.76,21.37,21.37,0,0,1-7.16,3.4,33.63,33.63,0,0,1-9,1.13Zm49.56-1.13H639V131.3h7.82v67.52ZM690,138.65v60.17h-7.82V138.65h-19V131.3H709v7.35Zm58.23,34.88v25.29H740.4V173.66L719.19,131.3H728l15.29,31.22c.27.56.52,1.14.76,1.71l.39,1s0-.09.07-.14c.39-.85.81-1.7,1.25-2.51l16-31.25h8.45l-22,42.23ZM529.88,138.65v24.24h10.06a17.32,17.32,0,0,0,5.76-.91,12.81,12.81,0,0,0,4.41-2.58,11.35,11.35,0,0,0,2.81-4,13.39,13.39,0,0,0,1-5.34,10.59,10.59,0,0,0-3.4-8.35c-2.73-2.42-6.57-3.06-10.1-3.06Z"/><path class="cls-3" d="M225.65,102.2V0h36.23q54.44,0,54.44,49.82,0,23.87-14.87,38.12T261.88,102.2Zm23-83.47V83.51H260.1q15,0,23.47-9t8.52-24.45q0-14.6-8.44-23c-5.65-5.59-13.53-8.39-23.7-8.39ZM391.8,102.2H370.49V91.71h-.29Q362.87,104,348.45,104c-7.08,0-12.65-2-16.71-6s-6.08-9.39-6.08-16.08q0-21.22,25.15-24.52l19.83-2.63q0-12-13-12a44.13,44.13,0,0,0-24.79,7.76v-17a55.27,55.27,0,0,1,12.87-4.28,67.16,67.16,0,0,1,14.86-1.85q31.2,0,31.21,31.14V102.2ZM370.64,72.54V67.63l-13.26,1.7q-11,1.42-11,9.93a8.2,8.2,0,0,0,2.65,6.3A10.38,10.38,0,0,0,356.31,88a13.4,13.4,0,0,0,10.34-4.37,15.9,15.9,0,0,0,4-11.1Zm86.6-23a19.45,19.45,0,0,0-9.49-2.22,13.73,13.73,0,0,0-11.48,5.38c-2.75,3.6-4.13,8.47-4.13,14.65V102.2H409.63v-73h22.51V42.77h.29q5.35-14.85,19.24-14.84a14.8,14.8,0,0,1,5.57.85V49.53Zm6.69,50.74V82A48.52,48.52,0,0,0,475,87a36.79,36.79,0,0,0,10.44,1.63A22.39,22.39,0,0,0,494.9,87c2.31-1.1,3.45-2.75,3.45-5a4.63,4.63,0,0,0-1.55-3.58,14.49,14.49,0,0,0-4-2.48,45.43,45.43,0,0,0-5.38-1.92c-1.94-.58-3.82-1.22-5.62-1.92a57.52,57.52,0,0,1-7.66-3.53,22.12,22.12,0,0,1-5.57-4.4,17.16,17.16,0,0,1-3.41-5.77,23.1,23.1,0,0,1-1.19-7.76,20.09,20.09,0,0,1,2.68-10.56,21.74,21.74,0,0,1,7.12-7.22,32.86,32.86,0,0,1,10.2-4.14,53.68,53.68,0,0,1,11.94-1.31,63.44,63.44,0,0,1,9.83.76,70.63,70.63,0,0,1,9.85,2.16V47.75A34.82,34.82,0,0,0,506.38,44a38.71,38.71,0,0,0-9.58-1.24,20.28,20.28,0,0,0-4.16.39,12.48,12.48,0,0,0-3.48,1.14,6,6,0,0,0-2.34,1.92A4.37,4.37,0,0,0,486,48.9a4.89,4.89,0,0,0,1.27,3.4,11.16,11.16,0,0,0,3.35,2.46,31.94,31.94,0,0,0,4.6,1.85l5,1.68a64.39,64.39,0,0,1,8.12,3.43,25.78,25.78,0,0,1,6.23,4.35,17.07,17.07,0,0,1,4,5.84,20.91,20.91,0,0,1,1.38,8A20.61,20.61,0,0,1,517.13,91a22.24,22.24,0,0,1-7.47,7.47,34.12,34.12,0,0,1-10.77,4.21A60.17,60.17,0,0,1,486.24,104a65.56,65.56,0,0,1-22.31-3.7ZM603,102.2H580.55V60.72q0-16-11.7-16a11.92,11.92,0,0,0-9.68,4.47,17.34,17.34,0,0,0-3.72,11.41V102.2H533V0h22.5V40h.29q8.28-12.58,22.45-12.6Q603,27.44,603,57.36V102.2Zm78.52,0H660.22V91.71h-.29Q652.6,104,638.18,104c-7.08,0-12.65-2-16.71-6s-6.08-9.39-6.08-16.08q0-21.22,25.15-24.52l19.83-2.63q0-12-13-12a44.13,44.13,0,0,0-24.79,7.76v-17a55.27,55.27,0,0,1,12.87-4.28,67.09,67.09,0,0,1,14.86-1.85q31.2,0,31.21,31.14V102.2ZM660.37,72.54V67.63l-13.26,1.7q-11,1.42-11,9.93a8.17,8.17,0,0,0,2.65,6.3A10.38,10.38,0,0,0,646,88a13.4,13.4,0,0,0,10.34-4.37,15.9,15.9,0,0,0,4-11.1ZM769.84,102.2H747.38V61.64q0-17-12.11-17a12,12,0,0,0-9.61,4.47,17.12,17.12,0,0,0-3.79,11.41V102.2H699.36v-73h22.51V40.77h.29q8.05-13.35,23.45-13.33,24.23,0,24.23,30.07Z"/></svg>